G75*
%MOIN*%
%OFA0B0*%
%FSLAX25Y25*%
%IPPOS*%
%LPD*%
%AMOC8*
5,1,8,0,0,1.08239X$1,22.5*
%
%ADD10R,0.04724X0.03150*%
%ADD11R,0.03543X0.02756*%
%ADD12R,0.03150X0.04724*%
%ADD13R,0.05906X0.05118*%
%ADD14R,0.05118X0.05906*%
%ADD15R,0.03937X0.03937*%
%ADD16R,0.02756X0.04724*%
%ADD17R,0.04724X0.05512*%
%ADD18R,0.04724X0.04724*%
%ADD19R,0.05906X0.03150*%
%ADD20R,0.03150X0.05906*%
%ADD21R,0.03150X0.03150*%
%ADD22R,0.10000X0.05000*%
%ADD23R,0.03543X0.03150*%
%ADD24R,0.03937X0.04331*%
%ADD25R,0.00984X0.13780*%
%ADD26R,0.00984X0.15748*%
%ADD27R,0.02165X0.04724*%
%ADD28C,0.01969*%
%ADD29R,0.01575X0.01969*%
%ADD30R,0.04331X0.02756*%
%ADD31R,0.06500X0.06500*%
D10*
X0075315Y0217079D03*
X0075315Y0224165D03*
D11*
X0082197Y0222233D03*
X0082197Y0217115D03*
X0088107Y0217115D03*
X0088107Y0222233D03*
X0093846Y0222163D03*
X0093846Y0217045D03*
X0100677Y0217275D03*
X0100677Y0222393D03*
D12*
X0099505Y0211687D03*
X0092418Y0211687D03*
D13*
X0129419Y0212246D03*
X0129419Y0219727D03*
D14*
X0122435Y0218356D03*
X0122435Y0225236D03*
X0114955Y0225236D03*
X0114955Y0218356D03*
X0090203Y0227840D03*
X0082722Y0227840D03*
X0081081Y0235843D03*
X0081115Y0242990D03*
X0073635Y0242990D03*
X0073601Y0235843D03*
D15*
X0070718Y0199783D03*
X0070718Y0193484D03*
D16*
X0123896Y0190958D03*
X0129408Y0190958D03*
X0129408Y0202769D03*
X0123896Y0202769D03*
D17*
X0114297Y0200337D03*
X0114282Y0193056D03*
X0101683Y0193056D03*
X0101698Y0200337D03*
D18*
X0114675Y0211938D03*
X0122943Y0211938D03*
X0123149Y0231735D03*
X0114881Y0231735D03*
D19*
X0103376Y0090173D03*
X0103376Y0085449D03*
X0103376Y0080724D03*
X0103376Y0076000D03*
X0103376Y0071276D03*
X0103376Y0066551D03*
X0103376Y0061827D03*
X0103376Y0057102D03*
X0073849Y0066551D03*
X0073849Y0071276D03*
X0073849Y0076000D03*
X0073849Y0080724D03*
X0073849Y0085449D03*
X0073849Y0090173D03*
D20*
X0081526Y0096669D03*
X0086250Y0096669D03*
X0090975Y0096669D03*
X0095699Y0096669D03*
D21*
X0095699Y0090173D03*
X0095699Y0085449D03*
X0095699Y0080724D03*
X0090975Y0090173D03*
X0086250Y0090173D03*
X0081526Y0090173D03*
D22*
X0064020Y0216321D03*
X0064001Y0223492D03*
D23*
X0081997Y0200321D03*
X0081997Y0192841D03*
X0090264Y0196581D03*
D24*
X0095680Y0193540D03*
X0095680Y0200233D03*
X0076668Y0199800D03*
X0076668Y0193107D03*
D25*
X0103179Y0256145D03*
X0105148Y0256145D03*
X0109085Y0256145D03*
X0111053Y0256145D03*
X0113022Y0256145D03*
X0114990Y0256145D03*
X0118927Y0256145D03*
X0120896Y0256145D03*
D26*
X0122864Y0255161D03*
X0116959Y0255161D03*
X0107116Y0255161D03*
X0101211Y0255161D03*
D27*
X0102081Y0241611D03*
X0105821Y0241611D03*
X0098341Y0241611D03*
X0098341Y0231374D03*
X0105821Y0231374D03*
D28*
X0107115Y0163745D03*
X0107115Y0159808D03*
X0107115Y0155871D03*
X0103178Y0155871D03*
X0103178Y0159808D03*
X0103178Y0163745D03*
X0099241Y0163745D03*
X0099241Y0159808D03*
X0095304Y0159808D03*
X0095304Y0163745D03*
X0091367Y0163745D03*
X0091367Y0159808D03*
X0091367Y0155871D03*
X0087430Y0155871D03*
X0087430Y0159808D03*
X0087430Y0163745D03*
X0083493Y0163745D03*
X0083493Y0159808D03*
X0083493Y0155871D03*
X0083493Y0151934D03*
X0083493Y0147997D03*
X0083493Y0144060D03*
X0083493Y0140123D03*
X0083493Y0136186D03*
X0087430Y0136186D03*
X0087430Y0140123D03*
X0087430Y0144060D03*
X0087430Y0147997D03*
X0087430Y0151934D03*
X0091367Y0144060D03*
X0091367Y0140123D03*
X0091367Y0136186D03*
X0095304Y0136186D03*
X0095304Y0140123D03*
X0099241Y0140123D03*
X0099241Y0136186D03*
X0103178Y0136186D03*
X0103178Y0140123D03*
X0103178Y0144060D03*
X0107115Y0144060D03*
X0107115Y0147997D03*
X0107115Y0151934D03*
X0111052Y0151934D03*
X0111052Y0147997D03*
X0111052Y0144060D03*
X0111052Y0140123D03*
X0111052Y0136186D03*
X0107115Y0136186D03*
X0107115Y0140123D03*
X0111052Y0155871D03*
X0111052Y0159808D03*
X0111052Y0163745D03*
D29*
X0067443Y0109867D03*
X0059963Y0109867D03*
D30*
X0063703Y0106717D03*
X0063703Y0113016D03*
D31*
X0115703Y0083367D03*
X0115703Y0073367D03*
X0125703Y0073367D03*
X0125703Y0083367D03*
M02*
