G75*
%MOIN*%
%OFA0B0*%
%FSLAX25Y25*%
%IPPOS*%
%LPD*%
%AMOC8*
5,1,8,0,0,1.08239X$1,22.5*
%
%ADD10C,0.01000*%
%ADD11C,0.00512*%
%ADD12C,0.00600*%
%ADD13C,0.00004*%
%ADD14C,0.02200*%
%ADD15C,0.00200*%
%ADD16C,0.00100*%
%ADD17C,0.00800*%
%ADD18C,0.00500*%
%ADD19R,0.03000X0.01800*%
%ADD20C,0.00400*%
%ADD21C,0.00000*%
D10*
X0055653Y0049067D02*
X0055703Y0259267D01*
X0142703Y0259367D01*
X0142653Y0049167D01*
X0055653Y0049067D01*
D11*
X0004896Y0049079D01*
X0012573Y0049333D02*
X0011319Y0059313D01*
X0013832Y0059313D01*
X0012573Y0049333D01*
X0013599Y0059313D01*
X0013087Y0059313D02*
X0012573Y0049333D01*
X0011552Y0059313D01*
X0012064Y0059313D02*
X0012573Y0049333D01*
X0012623Y0259021D01*
X0013644Y0249040D01*
X0013878Y0249040D02*
X0012623Y0259021D01*
X0011597Y0249041D01*
X0011364Y0249041D02*
X0013878Y0249040D01*
X0013133Y0249041D02*
X0012623Y0259021D01*
X0012109Y0249041D01*
X0011364Y0249041D02*
X0012623Y0259021D01*
X0004946Y0259279D02*
X0055703Y0259267D01*
X0055670Y0288109D01*
X0055934Y0280432D02*
X0065916Y0279420D01*
X0065916Y0279187D02*
X0055934Y0280432D01*
X0065914Y0281467D01*
X0065913Y0281700D02*
X0065916Y0279187D01*
X0065915Y0279932D02*
X0055934Y0280432D01*
X0065914Y0280955D01*
X0065913Y0281700D02*
X0055934Y0280432D01*
X0142423Y0280531D01*
X0132444Y0279496D01*
X0132444Y0279263D02*
X0142423Y0280531D01*
X0132441Y0281544D01*
X0132441Y0281777D02*
X0132444Y0279263D01*
X0132443Y0280008D02*
X0142423Y0280531D01*
X0132442Y0281032D01*
X0132441Y0281777D02*
X0142423Y0280531D01*
X0142670Y0288209D02*
X0142703Y0259367D01*
X0188208Y0259356D01*
X0180531Y0259102D02*
X0181552Y0249121D01*
X0181785Y0249121D02*
X0180531Y0259102D01*
X0179505Y0249122D01*
X0179271Y0249122D02*
X0181785Y0249121D01*
X0181040Y0249121D02*
X0180531Y0259102D01*
X0180016Y0249122D01*
X0179271Y0249122D02*
X0180531Y0259102D01*
X0180481Y0049414D01*
X0181507Y0059394D01*
X0181740Y0059394D02*
X0180481Y0049414D01*
X0179459Y0059394D01*
X0179226Y0059394D02*
X0181740Y0059394D01*
X0180995Y0059394D02*
X0180481Y0049414D01*
X0179971Y0059394D01*
X0179226Y0059394D02*
X0180481Y0049414D01*
X0188158Y0049156D02*
X0142653Y0049167D01*
X0142653Y0049067D02*
X0142653Y0028589D01*
X0142397Y0036267D02*
X0132417Y0035243D01*
X0132417Y0035010D02*
X0132417Y0037524D01*
X0142397Y0036267D01*
X0132417Y0037290D01*
X0132417Y0036778D02*
X0142397Y0036267D01*
X0132417Y0035755D01*
X0132417Y0035010D02*
X0142397Y0036267D01*
X0055909Y0036267D01*
X0065889Y0035243D01*
X0065889Y0035010D02*
X0065889Y0037524D01*
X0055909Y0036267D01*
X0065889Y0037290D01*
X0065889Y0036778D02*
X0055909Y0036267D01*
X0065889Y0035755D01*
X0065889Y0035010D02*
X0055909Y0036267D01*
X0055653Y0028589D02*
X0055653Y0049067D01*
D12*
X0089684Y0044166D02*
X0090751Y0045234D01*
X0092886Y0045234D01*
X0093954Y0044166D01*
X0093954Y0043099D01*
X0089684Y0038828D01*
X0093954Y0038828D01*
X0096129Y0038828D02*
X0100399Y0043099D01*
X0100399Y0044166D01*
X0099332Y0045234D01*
X0097197Y0045234D01*
X0096129Y0044166D01*
X0096129Y0038828D02*
X0100399Y0038828D01*
X0102575Y0038828D02*
X0103642Y0038828D01*
X0103642Y0039896D01*
X0102575Y0039896D01*
X0102575Y0038828D01*
X0105797Y0038828D02*
X0110068Y0038828D01*
X0107933Y0038828D02*
X0107933Y0045234D01*
X0105797Y0043099D01*
X0171535Y0141995D02*
X0171535Y0146266D01*
X0173671Y0145198D02*
X0174738Y0146266D01*
X0176873Y0146266D01*
X0177941Y0145198D01*
X0177941Y0143063D01*
X0176873Y0141995D01*
X0174738Y0141995D02*
X0173671Y0144130D01*
X0173671Y0145198D01*
X0174738Y0141995D02*
X0171535Y0141995D01*
X0172603Y0148441D02*
X0171535Y0149508D01*
X0171535Y0151643D01*
X0172603Y0152711D01*
X0173671Y0152711D01*
X0174738Y0151643D01*
X0175806Y0152711D01*
X0176873Y0152711D01*
X0177941Y0151643D01*
X0177941Y0149508D01*
X0176873Y0148441D01*
X0174738Y0150576D02*
X0174738Y0151643D01*
X0176873Y0154886D02*
X0176873Y0155954D01*
X0177941Y0155954D01*
X0177941Y0154886D01*
X0176873Y0154886D01*
X0176873Y0158109D02*
X0177941Y0159177D01*
X0177941Y0161312D01*
X0176873Y0162379D01*
X0175806Y0162379D01*
X0174738Y0161312D01*
X0174738Y0160244D01*
X0174738Y0161312D02*
X0173671Y0162379D01*
X0172603Y0162379D01*
X0171535Y0161312D01*
X0171535Y0159177D01*
X0172603Y0158109D01*
X0172603Y0164554D02*
X0171535Y0165622D01*
X0171535Y0167757D01*
X0172603Y0168825D01*
X0176873Y0168825D01*
X0177941Y0167757D01*
X0177941Y0165622D01*
X0176873Y0164554D01*
X0174738Y0165622D02*
X0174738Y0168825D01*
X0174738Y0165622D02*
X0173671Y0164554D01*
X0172603Y0164554D01*
X0110090Y0283068D02*
X0105820Y0283061D01*
X0107955Y0283065D02*
X0107944Y0289470D01*
X0105812Y0287331D01*
X0103663Y0284125D02*
X0103665Y0283057D01*
X0102597Y0283055D01*
X0102595Y0284123D01*
X0103663Y0284125D01*
X0100422Y0283051D02*
X0096152Y0283044D01*
X0100415Y0287322D01*
X0100413Y0288389D01*
X0099343Y0289455D01*
X0097208Y0289451D01*
X0096142Y0288382D01*
X0093967Y0288378D02*
X0092898Y0289444D01*
X0090763Y0289440D01*
X0089697Y0288371D01*
X0093967Y0288378D02*
X0093969Y0287311D01*
X0089706Y0283033D01*
X0093976Y0283040D01*
X0008966Y0168744D02*
X0010033Y0167676D01*
X0010033Y0165541D01*
X0008966Y0164474D01*
X0008966Y0162298D02*
X0010033Y0161231D01*
X0010033Y0159096D01*
X0008966Y0158028D01*
X0008966Y0155873D02*
X0010033Y0155873D01*
X0010033Y0154805D01*
X0008966Y0154805D01*
X0008966Y0155873D01*
X0008966Y0152630D02*
X0010033Y0151563D01*
X0010033Y0149428D01*
X0008966Y0148360D01*
X0008966Y0146185D02*
X0006831Y0146185D01*
X0005763Y0145117D01*
X0005763Y0144050D01*
X0006831Y0141914D01*
X0003628Y0141914D01*
X0003628Y0146185D01*
X0004695Y0148360D02*
X0003628Y0149428D01*
X0003628Y0151563D01*
X0004695Y0152630D01*
X0005763Y0152630D01*
X0006831Y0151563D01*
X0007898Y0152630D01*
X0008966Y0152630D01*
X0006831Y0151563D02*
X0006831Y0150495D01*
X0008966Y0146185D02*
X0010033Y0145117D01*
X0010033Y0142982D01*
X0008966Y0141914D01*
X0004695Y0158028D02*
X0003628Y0159096D01*
X0003628Y0161231D01*
X0004695Y0162298D01*
X0005763Y0162298D01*
X0006831Y0161231D01*
X0007898Y0162298D01*
X0008966Y0162298D01*
X0006831Y0161231D02*
X0006831Y0160163D01*
X0005763Y0164474D02*
X0004695Y0164474D01*
X0003628Y0165541D01*
X0003628Y0167676D01*
X0004695Y0168744D01*
X0008966Y0168744D01*
X0006831Y0168744D02*
X0006831Y0165541D01*
X0005763Y0164474D01*
D13*
X0056703Y0251867D02*
X0056703Y0055367D01*
X0058303Y0055367D02*
X0058305Y0055491D01*
X0058311Y0055616D01*
X0058321Y0055740D01*
X0058335Y0055863D01*
X0058352Y0055986D01*
X0058374Y0056109D01*
X0058400Y0056231D01*
X0058429Y0056351D01*
X0058463Y0056471D01*
X0058500Y0056590D01*
X0058541Y0056707D01*
X0058585Y0056823D01*
X0058633Y0056938D01*
X0058685Y0057051D01*
X0058741Y0057162D01*
X0058800Y0057272D01*
X0058862Y0057379D01*
X0058928Y0057485D01*
X0058997Y0057588D01*
X0059070Y0057689D01*
X0059146Y0057788D01*
X0059224Y0057884D01*
X0059306Y0057978D01*
X0059391Y0058069D01*
X0059478Y0058158D01*
X0059569Y0058243D01*
X0059662Y0058326D01*
X0059758Y0058405D01*
X0059856Y0058481D01*
X0059956Y0058555D01*
X0060059Y0058625D01*
X0060164Y0058691D01*
X0060271Y0058755D01*
X0060380Y0058815D01*
X0060491Y0058871D01*
X0060603Y0058924D01*
X0060718Y0058973D01*
X0060833Y0059019D01*
X0060951Y0059060D01*
X0061069Y0059099D01*
X0061189Y0059133D01*
X0061309Y0059163D01*
X0061431Y0059190D01*
X0061553Y0059212D01*
X0061676Y0059231D01*
X0061799Y0059246D01*
X0061923Y0059257D01*
X0062048Y0059264D01*
X0062172Y0059267D01*
X0062296Y0059266D01*
X0062421Y0059261D01*
X0062545Y0059252D01*
X0062668Y0059239D01*
X0062792Y0059222D01*
X0062914Y0059202D01*
X0063036Y0059177D01*
X0063157Y0059148D01*
X0063277Y0059116D01*
X0063396Y0059080D01*
X0063514Y0059040D01*
X0063631Y0058996D01*
X0063746Y0058949D01*
X0063859Y0058898D01*
X0063971Y0058843D01*
X0064081Y0058785D01*
X0064189Y0058724D01*
X0064295Y0058659D01*
X0064399Y0058590D01*
X0064500Y0058519D01*
X0064600Y0058444D01*
X0064697Y0058366D01*
X0064791Y0058285D01*
X0064883Y0058201D01*
X0064972Y0058114D01*
X0065058Y0058024D01*
X0065141Y0057932D01*
X0065221Y0057837D01*
X0065299Y0057739D01*
X0065373Y0057639D01*
X0065444Y0057537D01*
X0065511Y0057433D01*
X0065575Y0057326D01*
X0065636Y0057217D01*
X0065693Y0057107D01*
X0065747Y0056995D01*
X0065797Y0056881D01*
X0065844Y0056766D01*
X0065886Y0056649D01*
X0065925Y0056531D01*
X0065961Y0056411D01*
X0065992Y0056291D01*
X0066019Y0056170D01*
X0066043Y0056048D01*
X0066063Y0055925D01*
X0066079Y0055801D01*
X0066091Y0055678D01*
X0066099Y0055554D01*
X0066103Y0055429D01*
X0066103Y0055305D01*
X0066099Y0055180D01*
X0066091Y0055056D01*
X0066079Y0054933D01*
X0066063Y0054809D01*
X0066043Y0054686D01*
X0066019Y0054564D01*
X0065992Y0054443D01*
X0065961Y0054323D01*
X0065925Y0054203D01*
X0065886Y0054085D01*
X0065844Y0053968D01*
X0065797Y0053853D01*
X0065747Y0053739D01*
X0065693Y0053627D01*
X0065636Y0053517D01*
X0065575Y0053408D01*
X0065511Y0053301D01*
X0065444Y0053197D01*
X0065373Y0053095D01*
X0065299Y0052995D01*
X0065221Y0052897D01*
X0065141Y0052802D01*
X0065058Y0052710D01*
X0064972Y0052620D01*
X0064883Y0052533D01*
X0064791Y0052449D01*
X0064697Y0052368D01*
X0064600Y0052290D01*
X0064500Y0052215D01*
X0064399Y0052144D01*
X0064295Y0052075D01*
X0064189Y0052010D01*
X0064081Y0051949D01*
X0063971Y0051891D01*
X0063859Y0051836D01*
X0063746Y0051785D01*
X0063631Y0051738D01*
X0063514Y0051694D01*
X0063396Y0051654D01*
X0063277Y0051618D01*
X0063157Y0051586D01*
X0063036Y0051557D01*
X0062914Y0051532D01*
X0062792Y0051512D01*
X0062668Y0051495D01*
X0062545Y0051482D01*
X0062421Y0051473D01*
X0062296Y0051468D01*
X0062172Y0051467D01*
X0062048Y0051470D01*
X0061923Y0051477D01*
X0061799Y0051488D01*
X0061676Y0051503D01*
X0061553Y0051522D01*
X0061431Y0051544D01*
X0061309Y0051571D01*
X0061189Y0051601D01*
X0061069Y0051635D01*
X0060951Y0051674D01*
X0060833Y0051715D01*
X0060718Y0051761D01*
X0060603Y0051810D01*
X0060491Y0051863D01*
X0060380Y0051919D01*
X0060271Y0051979D01*
X0060164Y0052043D01*
X0060059Y0052109D01*
X0059956Y0052179D01*
X0059856Y0052253D01*
X0059758Y0052329D01*
X0059662Y0052408D01*
X0059569Y0052491D01*
X0059478Y0052576D01*
X0059391Y0052665D01*
X0059306Y0052756D01*
X0059224Y0052850D01*
X0059146Y0052946D01*
X0059070Y0053045D01*
X0058997Y0053146D01*
X0058928Y0053249D01*
X0058862Y0053355D01*
X0058800Y0053462D01*
X0058741Y0053572D01*
X0058685Y0053683D01*
X0058633Y0053796D01*
X0058585Y0053911D01*
X0058541Y0054027D01*
X0058500Y0054144D01*
X0058463Y0054263D01*
X0058429Y0054383D01*
X0058400Y0054503D01*
X0058374Y0054625D01*
X0058352Y0054748D01*
X0058335Y0054871D01*
X0058321Y0054994D01*
X0058311Y0055118D01*
X0058305Y0055243D01*
X0058303Y0055367D01*
X0056703Y0055367D02*
X0056705Y0055221D01*
X0056711Y0055074D01*
X0056721Y0054928D01*
X0056734Y0054782D01*
X0056752Y0054637D01*
X0056773Y0054492D01*
X0056798Y0054348D01*
X0056827Y0054204D01*
X0056860Y0054062D01*
X0056897Y0053920D01*
X0056937Y0053779D01*
X0056981Y0053640D01*
X0057029Y0053501D01*
X0057081Y0053364D01*
X0057136Y0053228D01*
X0057195Y0053094D01*
X0057257Y0052962D01*
X0057323Y0052831D01*
X0057392Y0052702D01*
X0057464Y0052575D01*
X0057540Y0052450D01*
X0057620Y0052327D01*
X0057702Y0052206D01*
X0057788Y0052087D01*
X0057877Y0051971D01*
X0057969Y0051857D01*
X0058064Y0051745D01*
X0058162Y0051636D01*
X0058262Y0051530D01*
X0058366Y0051426D01*
X0058472Y0051326D01*
X0058581Y0051228D01*
X0058693Y0051133D01*
X0058807Y0051041D01*
X0058923Y0050952D01*
X0059042Y0050866D01*
X0059163Y0050784D01*
X0059286Y0050704D01*
X0059411Y0050628D01*
X0059538Y0050556D01*
X0059667Y0050487D01*
X0059798Y0050421D01*
X0059930Y0050359D01*
X0060064Y0050300D01*
X0060200Y0050245D01*
X0060337Y0050193D01*
X0060476Y0050145D01*
X0060615Y0050101D01*
X0060756Y0050061D01*
X0060898Y0050024D01*
X0061040Y0049991D01*
X0061184Y0049962D01*
X0061328Y0049937D01*
X0061473Y0049916D01*
X0061618Y0049898D01*
X0061764Y0049885D01*
X0061910Y0049875D01*
X0062057Y0049869D01*
X0062203Y0049867D01*
X0136203Y0049867D01*
X0136349Y0049869D01*
X0136496Y0049875D01*
X0136642Y0049885D01*
X0136788Y0049898D01*
X0136933Y0049916D01*
X0137078Y0049937D01*
X0137222Y0049962D01*
X0137366Y0049991D01*
X0137508Y0050024D01*
X0137650Y0050061D01*
X0137791Y0050101D01*
X0137930Y0050145D01*
X0138069Y0050193D01*
X0138206Y0050245D01*
X0138342Y0050300D01*
X0138476Y0050359D01*
X0138608Y0050421D01*
X0138739Y0050487D01*
X0138868Y0050556D01*
X0138995Y0050628D01*
X0139120Y0050704D01*
X0139243Y0050784D01*
X0139364Y0050866D01*
X0139483Y0050952D01*
X0139599Y0051041D01*
X0139713Y0051133D01*
X0139825Y0051228D01*
X0139934Y0051326D01*
X0140040Y0051426D01*
X0140144Y0051530D01*
X0140244Y0051636D01*
X0140342Y0051745D01*
X0140437Y0051857D01*
X0140529Y0051971D01*
X0140618Y0052087D01*
X0140704Y0052206D01*
X0140786Y0052327D01*
X0140866Y0052450D01*
X0140942Y0052575D01*
X0141014Y0052702D01*
X0141083Y0052831D01*
X0141149Y0052962D01*
X0141211Y0053094D01*
X0141270Y0053228D01*
X0141325Y0053364D01*
X0141377Y0053501D01*
X0141425Y0053640D01*
X0141469Y0053779D01*
X0141509Y0053920D01*
X0141546Y0054062D01*
X0141579Y0054204D01*
X0141608Y0054348D01*
X0141633Y0054492D01*
X0141654Y0054637D01*
X0141672Y0054782D01*
X0141685Y0054928D01*
X0141695Y0055074D01*
X0141701Y0055221D01*
X0141703Y0055367D01*
X0141703Y0253867D01*
X0141701Y0254000D01*
X0141695Y0254134D01*
X0141685Y0254267D01*
X0141671Y0254399D01*
X0141654Y0254531D01*
X0141632Y0254663D01*
X0141607Y0254794D01*
X0141577Y0254924D01*
X0141544Y0255053D01*
X0141507Y0255181D01*
X0141466Y0255308D01*
X0141421Y0255434D01*
X0141373Y0255558D01*
X0141321Y0255681D01*
X0141266Y0255802D01*
X0141206Y0255922D01*
X0141144Y0256040D01*
X0141078Y0256155D01*
X0141008Y0256269D01*
X0140935Y0256381D01*
X0140859Y0256490D01*
X0140780Y0256598D01*
X0140697Y0256702D01*
X0140612Y0256805D01*
X0140523Y0256904D01*
X0140432Y0257001D01*
X0140337Y0257096D01*
X0140240Y0257187D01*
X0140141Y0257276D01*
X0140038Y0257361D01*
X0139934Y0257444D01*
X0139826Y0257523D01*
X0139717Y0257599D01*
X0139605Y0257672D01*
X0139491Y0257742D01*
X0139376Y0257808D01*
X0139258Y0257870D01*
X0139138Y0257930D01*
X0139017Y0257985D01*
X0138894Y0258037D01*
X0138770Y0258085D01*
X0138644Y0258130D01*
X0138517Y0258171D01*
X0138389Y0258208D01*
X0138260Y0258241D01*
X0138130Y0258271D01*
X0137999Y0258296D01*
X0137867Y0258318D01*
X0137735Y0258335D01*
X0137603Y0258349D01*
X0137470Y0258359D01*
X0137336Y0258365D01*
X0137203Y0258367D01*
X0063203Y0258367D01*
X0058803Y0252867D02*
X0058805Y0252991D01*
X0058811Y0253116D01*
X0058821Y0253240D01*
X0058835Y0253363D01*
X0058852Y0253486D01*
X0058874Y0253609D01*
X0058900Y0253731D01*
X0058929Y0253851D01*
X0058963Y0253971D01*
X0059000Y0254090D01*
X0059041Y0254207D01*
X0059085Y0254323D01*
X0059133Y0254438D01*
X0059185Y0254551D01*
X0059241Y0254662D01*
X0059300Y0254772D01*
X0059362Y0254879D01*
X0059428Y0254985D01*
X0059497Y0255088D01*
X0059570Y0255189D01*
X0059646Y0255288D01*
X0059724Y0255384D01*
X0059806Y0255478D01*
X0059891Y0255569D01*
X0059978Y0255658D01*
X0060069Y0255743D01*
X0060162Y0255826D01*
X0060258Y0255905D01*
X0060356Y0255981D01*
X0060456Y0256055D01*
X0060559Y0256125D01*
X0060664Y0256191D01*
X0060771Y0256255D01*
X0060880Y0256315D01*
X0060991Y0256371D01*
X0061103Y0256424D01*
X0061218Y0256473D01*
X0061333Y0256519D01*
X0061451Y0256560D01*
X0061569Y0256599D01*
X0061689Y0256633D01*
X0061809Y0256663D01*
X0061931Y0256690D01*
X0062053Y0256712D01*
X0062176Y0256731D01*
X0062299Y0256746D01*
X0062423Y0256757D01*
X0062548Y0256764D01*
X0062672Y0256767D01*
X0062796Y0256766D01*
X0062921Y0256761D01*
X0063045Y0256752D01*
X0063168Y0256739D01*
X0063292Y0256722D01*
X0063414Y0256702D01*
X0063536Y0256677D01*
X0063657Y0256648D01*
X0063777Y0256616D01*
X0063896Y0256580D01*
X0064014Y0256540D01*
X0064131Y0256496D01*
X0064246Y0256449D01*
X0064359Y0256398D01*
X0064471Y0256343D01*
X0064581Y0256285D01*
X0064689Y0256224D01*
X0064795Y0256159D01*
X0064899Y0256090D01*
X0065000Y0256019D01*
X0065100Y0255944D01*
X0065197Y0255866D01*
X0065291Y0255785D01*
X0065383Y0255701D01*
X0065472Y0255614D01*
X0065558Y0255524D01*
X0065641Y0255432D01*
X0065721Y0255337D01*
X0065799Y0255239D01*
X0065873Y0255139D01*
X0065944Y0255037D01*
X0066011Y0254933D01*
X0066075Y0254826D01*
X0066136Y0254717D01*
X0066193Y0254607D01*
X0066247Y0254495D01*
X0066297Y0254381D01*
X0066344Y0254266D01*
X0066386Y0254149D01*
X0066425Y0254031D01*
X0066461Y0253911D01*
X0066492Y0253791D01*
X0066519Y0253670D01*
X0066543Y0253548D01*
X0066563Y0253425D01*
X0066579Y0253301D01*
X0066591Y0253178D01*
X0066599Y0253054D01*
X0066603Y0252929D01*
X0066603Y0252805D01*
X0066599Y0252680D01*
X0066591Y0252556D01*
X0066579Y0252433D01*
X0066563Y0252309D01*
X0066543Y0252186D01*
X0066519Y0252064D01*
X0066492Y0251943D01*
X0066461Y0251823D01*
X0066425Y0251703D01*
X0066386Y0251585D01*
X0066344Y0251468D01*
X0066297Y0251353D01*
X0066247Y0251239D01*
X0066193Y0251127D01*
X0066136Y0251017D01*
X0066075Y0250908D01*
X0066011Y0250801D01*
X0065944Y0250697D01*
X0065873Y0250595D01*
X0065799Y0250495D01*
X0065721Y0250397D01*
X0065641Y0250302D01*
X0065558Y0250210D01*
X0065472Y0250120D01*
X0065383Y0250033D01*
X0065291Y0249949D01*
X0065197Y0249868D01*
X0065100Y0249790D01*
X0065000Y0249715D01*
X0064899Y0249644D01*
X0064795Y0249575D01*
X0064689Y0249510D01*
X0064581Y0249449D01*
X0064471Y0249391D01*
X0064359Y0249336D01*
X0064246Y0249285D01*
X0064131Y0249238D01*
X0064014Y0249194D01*
X0063896Y0249154D01*
X0063777Y0249118D01*
X0063657Y0249086D01*
X0063536Y0249057D01*
X0063414Y0249032D01*
X0063292Y0249012D01*
X0063168Y0248995D01*
X0063045Y0248982D01*
X0062921Y0248973D01*
X0062796Y0248968D01*
X0062672Y0248967D01*
X0062548Y0248970D01*
X0062423Y0248977D01*
X0062299Y0248988D01*
X0062176Y0249003D01*
X0062053Y0249022D01*
X0061931Y0249044D01*
X0061809Y0249071D01*
X0061689Y0249101D01*
X0061569Y0249135D01*
X0061451Y0249174D01*
X0061333Y0249215D01*
X0061218Y0249261D01*
X0061103Y0249310D01*
X0060991Y0249363D01*
X0060880Y0249419D01*
X0060771Y0249479D01*
X0060664Y0249543D01*
X0060559Y0249609D01*
X0060456Y0249679D01*
X0060356Y0249753D01*
X0060258Y0249829D01*
X0060162Y0249908D01*
X0060069Y0249991D01*
X0059978Y0250076D01*
X0059891Y0250165D01*
X0059806Y0250256D01*
X0059724Y0250350D01*
X0059646Y0250446D01*
X0059570Y0250545D01*
X0059497Y0250646D01*
X0059428Y0250749D01*
X0059362Y0250855D01*
X0059300Y0250962D01*
X0059241Y0251072D01*
X0059185Y0251183D01*
X0059133Y0251296D01*
X0059085Y0251411D01*
X0059041Y0251527D01*
X0059000Y0251644D01*
X0058963Y0251763D01*
X0058929Y0251883D01*
X0058900Y0252003D01*
X0058874Y0252125D01*
X0058852Y0252248D01*
X0058835Y0252371D01*
X0058821Y0252494D01*
X0058811Y0252618D01*
X0058805Y0252743D01*
X0058803Y0252867D01*
X0056703Y0251867D02*
X0056705Y0252027D01*
X0056711Y0252186D01*
X0056721Y0252345D01*
X0056734Y0252504D01*
X0056752Y0252663D01*
X0056773Y0252821D01*
X0056799Y0252978D01*
X0056828Y0253135D01*
X0056861Y0253291D01*
X0056898Y0253446D01*
X0056938Y0253601D01*
X0056983Y0253754D01*
X0057031Y0253906D01*
X0057083Y0254057D01*
X0057139Y0254206D01*
X0057198Y0254354D01*
X0057261Y0254501D01*
X0057327Y0254646D01*
X0057397Y0254789D01*
X0057471Y0254931D01*
X0057547Y0255071D01*
X0057628Y0255209D01*
X0057711Y0255344D01*
X0057798Y0255478D01*
X0057889Y0255610D01*
X0057982Y0255739D01*
X0058079Y0255866D01*
X0058178Y0255991D01*
X0058281Y0256113D01*
X0058387Y0256232D01*
X0058495Y0256349D01*
X0058607Y0256463D01*
X0058721Y0256575D01*
X0058838Y0256683D01*
X0058957Y0256789D01*
X0059079Y0256892D01*
X0059204Y0256991D01*
X0059331Y0257088D01*
X0059460Y0257181D01*
X0059592Y0257272D01*
X0059726Y0257359D01*
X0059861Y0257442D01*
X0059999Y0257523D01*
X0060139Y0257599D01*
X0060281Y0257673D01*
X0060424Y0257743D01*
X0060569Y0257809D01*
X0060716Y0257872D01*
X0060864Y0257931D01*
X0061013Y0257987D01*
X0061164Y0258039D01*
X0061316Y0258087D01*
X0061469Y0258132D01*
X0061624Y0258172D01*
X0061779Y0258209D01*
X0061935Y0258242D01*
X0062092Y0258271D01*
X0062249Y0258297D01*
X0062407Y0258318D01*
X0062566Y0258336D01*
X0062725Y0258349D01*
X0062884Y0258359D01*
X0063043Y0258365D01*
X0063203Y0258367D01*
X0132803Y0253367D02*
X0132805Y0253491D01*
X0132811Y0253616D01*
X0132821Y0253740D01*
X0132835Y0253863D01*
X0132852Y0253986D01*
X0132874Y0254109D01*
X0132900Y0254231D01*
X0132929Y0254351D01*
X0132963Y0254471D01*
X0133000Y0254590D01*
X0133041Y0254707D01*
X0133085Y0254823D01*
X0133133Y0254938D01*
X0133185Y0255051D01*
X0133241Y0255162D01*
X0133300Y0255272D01*
X0133362Y0255379D01*
X0133428Y0255485D01*
X0133497Y0255588D01*
X0133570Y0255689D01*
X0133646Y0255788D01*
X0133724Y0255884D01*
X0133806Y0255978D01*
X0133891Y0256069D01*
X0133978Y0256158D01*
X0134069Y0256243D01*
X0134162Y0256326D01*
X0134258Y0256405D01*
X0134356Y0256481D01*
X0134456Y0256555D01*
X0134559Y0256625D01*
X0134664Y0256691D01*
X0134771Y0256755D01*
X0134880Y0256815D01*
X0134991Y0256871D01*
X0135103Y0256924D01*
X0135218Y0256973D01*
X0135333Y0257019D01*
X0135451Y0257060D01*
X0135569Y0257099D01*
X0135689Y0257133D01*
X0135809Y0257163D01*
X0135931Y0257190D01*
X0136053Y0257212D01*
X0136176Y0257231D01*
X0136299Y0257246D01*
X0136423Y0257257D01*
X0136548Y0257264D01*
X0136672Y0257267D01*
X0136796Y0257266D01*
X0136921Y0257261D01*
X0137045Y0257252D01*
X0137168Y0257239D01*
X0137292Y0257222D01*
X0137414Y0257202D01*
X0137536Y0257177D01*
X0137657Y0257148D01*
X0137777Y0257116D01*
X0137896Y0257080D01*
X0138014Y0257040D01*
X0138131Y0256996D01*
X0138246Y0256949D01*
X0138359Y0256898D01*
X0138471Y0256843D01*
X0138581Y0256785D01*
X0138689Y0256724D01*
X0138795Y0256659D01*
X0138899Y0256590D01*
X0139000Y0256519D01*
X0139100Y0256444D01*
X0139197Y0256366D01*
X0139291Y0256285D01*
X0139383Y0256201D01*
X0139472Y0256114D01*
X0139558Y0256024D01*
X0139641Y0255932D01*
X0139721Y0255837D01*
X0139799Y0255739D01*
X0139873Y0255639D01*
X0139944Y0255537D01*
X0140011Y0255433D01*
X0140075Y0255326D01*
X0140136Y0255217D01*
X0140193Y0255107D01*
X0140247Y0254995D01*
X0140297Y0254881D01*
X0140344Y0254766D01*
X0140386Y0254649D01*
X0140425Y0254531D01*
X0140461Y0254411D01*
X0140492Y0254291D01*
X0140519Y0254170D01*
X0140543Y0254048D01*
X0140563Y0253925D01*
X0140579Y0253801D01*
X0140591Y0253678D01*
X0140599Y0253554D01*
X0140603Y0253429D01*
X0140603Y0253305D01*
X0140599Y0253180D01*
X0140591Y0253056D01*
X0140579Y0252933D01*
X0140563Y0252809D01*
X0140543Y0252686D01*
X0140519Y0252564D01*
X0140492Y0252443D01*
X0140461Y0252323D01*
X0140425Y0252203D01*
X0140386Y0252085D01*
X0140344Y0251968D01*
X0140297Y0251853D01*
X0140247Y0251739D01*
X0140193Y0251627D01*
X0140136Y0251517D01*
X0140075Y0251408D01*
X0140011Y0251301D01*
X0139944Y0251197D01*
X0139873Y0251095D01*
X0139799Y0250995D01*
X0139721Y0250897D01*
X0139641Y0250802D01*
X0139558Y0250710D01*
X0139472Y0250620D01*
X0139383Y0250533D01*
X0139291Y0250449D01*
X0139197Y0250368D01*
X0139100Y0250290D01*
X0139000Y0250215D01*
X0138899Y0250144D01*
X0138795Y0250075D01*
X0138689Y0250010D01*
X0138581Y0249949D01*
X0138471Y0249891D01*
X0138359Y0249836D01*
X0138246Y0249785D01*
X0138131Y0249738D01*
X0138014Y0249694D01*
X0137896Y0249654D01*
X0137777Y0249618D01*
X0137657Y0249586D01*
X0137536Y0249557D01*
X0137414Y0249532D01*
X0137292Y0249512D01*
X0137168Y0249495D01*
X0137045Y0249482D01*
X0136921Y0249473D01*
X0136796Y0249468D01*
X0136672Y0249467D01*
X0136548Y0249470D01*
X0136423Y0249477D01*
X0136299Y0249488D01*
X0136176Y0249503D01*
X0136053Y0249522D01*
X0135931Y0249544D01*
X0135809Y0249571D01*
X0135689Y0249601D01*
X0135569Y0249635D01*
X0135451Y0249674D01*
X0135333Y0249715D01*
X0135218Y0249761D01*
X0135103Y0249810D01*
X0134991Y0249863D01*
X0134880Y0249919D01*
X0134771Y0249979D01*
X0134664Y0250043D01*
X0134559Y0250109D01*
X0134456Y0250179D01*
X0134356Y0250253D01*
X0134258Y0250329D01*
X0134162Y0250408D01*
X0134069Y0250491D01*
X0133978Y0250576D01*
X0133891Y0250665D01*
X0133806Y0250756D01*
X0133724Y0250850D01*
X0133646Y0250946D01*
X0133570Y0251045D01*
X0133497Y0251146D01*
X0133428Y0251249D01*
X0133362Y0251355D01*
X0133300Y0251462D01*
X0133241Y0251572D01*
X0133185Y0251683D01*
X0133133Y0251796D01*
X0133085Y0251911D01*
X0133041Y0252027D01*
X0133000Y0252144D01*
X0132963Y0252263D01*
X0132929Y0252383D01*
X0132900Y0252503D01*
X0132874Y0252625D01*
X0132852Y0252748D01*
X0132835Y0252871D01*
X0132821Y0252994D01*
X0132811Y0253118D01*
X0132805Y0253243D01*
X0132803Y0253367D01*
X0132803Y0055367D02*
X0132805Y0055491D01*
X0132811Y0055616D01*
X0132821Y0055740D01*
X0132835Y0055863D01*
X0132852Y0055986D01*
X0132874Y0056109D01*
X0132900Y0056231D01*
X0132929Y0056351D01*
X0132963Y0056471D01*
X0133000Y0056590D01*
X0133041Y0056707D01*
X0133085Y0056823D01*
X0133133Y0056938D01*
X0133185Y0057051D01*
X0133241Y0057162D01*
X0133300Y0057272D01*
X0133362Y0057379D01*
X0133428Y0057485D01*
X0133497Y0057588D01*
X0133570Y0057689D01*
X0133646Y0057788D01*
X0133724Y0057884D01*
X0133806Y0057978D01*
X0133891Y0058069D01*
X0133978Y0058158D01*
X0134069Y0058243D01*
X0134162Y0058326D01*
X0134258Y0058405D01*
X0134356Y0058481D01*
X0134456Y0058555D01*
X0134559Y0058625D01*
X0134664Y0058691D01*
X0134771Y0058755D01*
X0134880Y0058815D01*
X0134991Y0058871D01*
X0135103Y0058924D01*
X0135218Y0058973D01*
X0135333Y0059019D01*
X0135451Y0059060D01*
X0135569Y0059099D01*
X0135689Y0059133D01*
X0135809Y0059163D01*
X0135931Y0059190D01*
X0136053Y0059212D01*
X0136176Y0059231D01*
X0136299Y0059246D01*
X0136423Y0059257D01*
X0136548Y0059264D01*
X0136672Y0059267D01*
X0136796Y0059266D01*
X0136921Y0059261D01*
X0137045Y0059252D01*
X0137168Y0059239D01*
X0137292Y0059222D01*
X0137414Y0059202D01*
X0137536Y0059177D01*
X0137657Y0059148D01*
X0137777Y0059116D01*
X0137896Y0059080D01*
X0138014Y0059040D01*
X0138131Y0058996D01*
X0138246Y0058949D01*
X0138359Y0058898D01*
X0138471Y0058843D01*
X0138581Y0058785D01*
X0138689Y0058724D01*
X0138795Y0058659D01*
X0138899Y0058590D01*
X0139000Y0058519D01*
X0139100Y0058444D01*
X0139197Y0058366D01*
X0139291Y0058285D01*
X0139383Y0058201D01*
X0139472Y0058114D01*
X0139558Y0058024D01*
X0139641Y0057932D01*
X0139721Y0057837D01*
X0139799Y0057739D01*
X0139873Y0057639D01*
X0139944Y0057537D01*
X0140011Y0057433D01*
X0140075Y0057326D01*
X0140136Y0057217D01*
X0140193Y0057107D01*
X0140247Y0056995D01*
X0140297Y0056881D01*
X0140344Y0056766D01*
X0140386Y0056649D01*
X0140425Y0056531D01*
X0140461Y0056411D01*
X0140492Y0056291D01*
X0140519Y0056170D01*
X0140543Y0056048D01*
X0140563Y0055925D01*
X0140579Y0055801D01*
X0140591Y0055678D01*
X0140599Y0055554D01*
X0140603Y0055429D01*
X0140603Y0055305D01*
X0140599Y0055180D01*
X0140591Y0055056D01*
X0140579Y0054933D01*
X0140563Y0054809D01*
X0140543Y0054686D01*
X0140519Y0054564D01*
X0140492Y0054443D01*
X0140461Y0054323D01*
X0140425Y0054203D01*
X0140386Y0054085D01*
X0140344Y0053968D01*
X0140297Y0053853D01*
X0140247Y0053739D01*
X0140193Y0053627D01*
X0140136Y0053517D01*
X0140075Y0053408D01*
X0140011Y0053301D01*
X0139944Y0053197D01*
X0139873Y0053095D01*
X0139799Y0052995D01*
X0139721Y0052897D01*
X0139641Y0052802D01*
X0139558Y0052710D01*
X0139472Y0052620D01*
X0139383Y0052533D01*
X0139291Y0052449D01*
X0139197Y0052368D01*
X0139100Y0052290D01*
X0139000Y0052215D01*
X0138899Y0052144D01*
X0138795Y0052075D01*
X0138689Y0052010D01*
X0138581Y0051949D01*
X0138471Y0051891D01*
X0138359Y0051836D01*
X0138246Y0051785D01*
X0138131Y0051738D01*
X0138014Y0051694D01*
X0137896Y0051654D01*
X0137777Y0051618D01*
X0137657Y0051586D01*
X0137536Y0051557D01*
X0137414Y0051532D01*
X0137292Y0051512D01*
X0137168Y0051495D01*
X0137045Y0051482D01*
X0136921Y0051473D01*
X0136796Y0051468D01*
X0136672Y0051467D01*
X0136548Y0051470D01*
X0136423Y0051477D01*
X0136299Y0051488D01*
X0136176Y0051503D01*
X0136053Y0051522D01*
X0135931Y0051544D01*
X0135809Y0051571D01*
X0135689Y0051601D01*
X0135569Y0051635D01*
X0135451Y0051674D01*
X0135333Y0051715D01*
X0135218Y0051761D01*
X0135103Y0051810D01*
X0134991Y0051863D01*
X0134880Y0051919D01*
X0134771Y0051979D01*
X0134664Y0052043D01*
X0134559Y0052109D01*
X0134456Y0052179D01*
X0134356Y0052253D01*
X0134258Y0052329D01*
X0134162Y0052408D01*
X0134069Y0052491D01*
X0133978Y0052576D01*
X0133891Y0052665D01*
X0133806Y0052756D01*
X0133724Y0052850D01*
X0133646Y0052946D01*
X0133570Y0053045D01*
X0133497Y0053146D01*
X0133428Y0053249D01*
X0133362Y0053355D01*
X0133300Y0053462D01*
X0133241Y0053572D01*
X0133185Y0053683D01*
X0133133Y0053796D01*
X0133085Y0053911D01*
X0133041Y0054027D01*
X0133000Y0054144D01*
X0132963Y0054263D01*
X0132929Y0054383D01*
X0132900Y0054503D01*
X0132874Y0054625D01*
X0132852Y0054748D01*
X0132835Y0054871D01*
X0132821Y0054994D01*
X0132811Y0055118D01*
X0132805Y0055243D01*
X0132803Y0055367D01*
D14*
X0112214Y0063902D02*
X0112214Y0064142D01*
X0108161Y0090491D02*
X0108161Y0090731D01*
X0108153Y0096338D02*
X0108153Y0096579D01*
X0108153Y0102138D02*
X0108153Y0102379D01*
X0120852Y0102146D02*
X0120852Y0101906D01*
X0120822Y0096317D02*
X0120822Y0096076D01*
X0120825Y0090470D02*
X0120825Y0090230D01*
X0065445Y0111235D02*
X0065205Y0111235D01*
X0067331Y0180268D02*
X0067572Y0180268D01*
X0094878Y0217864D02*
X0095118Y0217864D01*
X0097944Y0193474D02*
X0098184Y0193474D01*
X0115031Y0217932D02*
X0115271Y0217932D01*
D15*
X0117907Y0223837D02*
X0112395Y0223837D01*
X0112395Y0212026D01*
X0117907Y0212026D01*
X0117907Y0223837D01*
X0100820Y0199379D02*
X0095308Y0199379D01*
X0095308Y0187568D01*
X0100820Y0187568D01*
X0100820Y0199379D01*
X0097754Y0211959D02*
X0097754Y0223770D01*
X0092242Y0223770D01*
X0092242Y0211959D01*
X0097754Y0211959D01*
X0070207Y0186174D02*
X0070207Y0174363D01*
X0064696Y0174363D01*
X0064696Y0186174D01*
X0070207Y0186174D01*
X0068081Y0117140D02*
X0062569Y0117140D01*
X0062569Y0105329D01*
X0068081Y0105329D01*
X0068081Y0117140D01*
X0072583Y0110646D02*
X0083607Y0110646D01*
X0083607Y0105134D01*
X0072583Y0105134D01*
X0072583Y0110646D01*
X0072412Y0102731D02*
X0077924Y0102731D01*
X0077924Y0090920D01*
X0072412Y0090920D01*
X0072412Y0102731D01*
X0078358Y0102763D02*
X0083870Y0102763D01*
X0083870Y0090952D01*
X0078358Y0090952D01*
X0078358Y0102763D01*
X0096230Y0090745D02*
X0096230Y0079721D01*
X0101742Y0079721D01*
X0101742Y0090745D01*
X0096230Y0090745D01*
X0102255Y0093367D02*
X0102255Y0087855D01*
X0114066Y0087855D01*
X0114066Y0093367D01*
X0102255Y0093367D01*
X0102247Y0093703D02*
X0102247Y0099214D01*
X0114058Y0099214D01*
X0114058Y0093703D01*
X0102247Y0093703D01*
X0102247Y0099503D02*
X0102247Y0105014D01*
X0114058Y0105014D01*
X0114058Y0099503D01*
X0102247Y0099503D01*
X0101705Y0079334D02*
X0096193Y0079334D01*
X0096193Y0068310D01*
X0101705Y0068310D01*
X0101705Y0079334D01*
X0093708Y0076378D02*
X0093708Y0070867D01*
X0082684Y0070867D01*
X0082684Y0076378D01*
X0093708Y0076378D01*
X0106308Y0066778D02*
X0106308Y0061266D01*
X0118119Y0061266D01*
X0118119Y0066778D01*
X0106308Y0066778D01*
X0114930Y0081763D02*
X0126741Y0081763D01*
X0126741Y0087275D01*
X0114930Y0087275D01*
X0114930Y0081763D01*
X0114920Y0087594D02*
X0126731Y0087594D01*
X0126731Y0093106D01*
X0114920Y0093106D01*
X0114920Y0087594D01*
X0114916Y0093441D02*
X0126727Y0093441D01*
X0126727Y0098952D01*
X0114916Y0098952D01*
X0114916Y0093441D01*
X0114946Y0099270D02*
X0126757Y0099270D01*
X0126757Y0104782D01*
X0114946Y0104782D01*
X0114946Y0099270D01*
D16*
X0114939Y0099329D02*
X0114939Y0099512D01*
X0114756Y0099695D01*
X0114389Y0099695D01*
X0114205Y0099512D01*
X0114205Y0099145D01*
X0114389Y0098962D01*
X0114756Y0098962D02*
X0114939Y0099329D01*
X0114756Y0098962D02*
X0115306Y0098962D01*
X0115306Y0099695D01*
X0115123Y0098591D02*
X0115306Y0098407D01*
X0115306Y0098040D01*
X0115123Y0097857D01*
X0114389Y0097857D01*
X0114205Y0098040D01*
X0114205Y0098407D01*
X0114389Y0098591D01*
X0112191Y0100213D02*
X0112007Y0100030D01*
X0111273Y0100030D01*
X0111090Y0100213D01*
X0111090Y0100580D01*
X0111273Y0100763D01*
X0111273Y0101134D02*
X0111090Y0101318D01*
X0111090Y0101685D01*
X0111273Y0101868D01*
X0111457Y0101868D01*
X0111640Y0101685D01*
X0111640Y0101134D01*
X0111273Y0101134D01*
X0111640Y0101134D02*
X0112007Y0101501D01*
X0112191Y0101868D01*
X0112007Y0100763D02*
X0112191Y0100580D01*
X0112191Y0100213D01*
X0113673Y0089281D02*
X0113673Y0088680D01*
X0114123Y0089130D01*
X0113222Y0089130D01*
X0113372Y0088360D02*
X0113222Y0088210D01*
X0113222Y0087909D01*
X0113372Y0087759D01*
X0113973Y0087759D01*
X0114123Y0087909D01*
X0114123Y0088210D01*
X0113973Y0088360D01*
X0113554Y0086144D02*
X0113554Y0085544D01*
X0113554Y0085844D02*
X0114455Y0085844D01*
X0114155Y0085544D01*
X0113554Y0085223D02*
X0113554Y0084623D01*
X0114455Y0084623D01*
X0114195Y0080785D02*
X0113694Y0080785D01*
X0113444Y0080535D01*
X0113444Y0079784D01*
X0112944Y0079784D02*
X0114445Y0079784D01*
X0114445Y0080535D01*
X0114195Y0080785D01*
X0113444Y0080285D02*
X0112944Y0080785D01*
X0113194Y0079312D02*
X0114195Y0079312D01*
X0114445Y0079062D01*
X0114445Y0078561D01*
X0114195Y0078311D01*
X0113194Y0078311D01*
X0112944Y0078561D01*
X0112944Y0079062D01*
X0113194Y0079312D01*
X0114445Y0077839D02*
X0114445Y0076838D01*
X0114445Y0077338D02*
X0112944Y0077338D01*
X0112944Y0076365D02*
X0113944Y0076365D01*
X0114445Y0075865D01*
X0113944Y0075365D01*
X0112944Y0075365D01*
X0112944Y0074892D02*
X0112944Y0073891D01*
X0114445Y0073891D01*
X0114445Y0073419D02*
X0113194Y0073419D01*
X0112944Y0073169D01*
X0112944Y0072668D01*
X0113194Y0072418D01*
X0114445Y0072418D01*
X0114195Y0071946D02*
X0114445Y0071695D01*
X0114445Y0071195D01*
X0114195Y0070945D01*
X0113194Y0070945D01*
X0112944Y0071195D01*
X0112944Y0071695D01*
X0113194Y0071946D01*
X0113694Y0071946D01*
X0113694Y0071445D01*
X0112944Y0070472D02*
X0112944Y0069472D01*
X0114445Y0069472D01*
X0114445Y0070472D01*
X0113694Y0069972D02*
X0113694Y0069472D01*
X0113694Y0068999D02*
X0113444Y0068749D01*
X0113444Y0067998D01*
X0112944Y0067998D02*
X0114445Y0067998D01*
X0114445Y0068749D01*
X0114195Y0068999D01*
X0113694Y0068999D01*
X0113444Y0068499D02*
X0112944Y0068999D01*
X0113694Y0075365D02*
X0113694Y0076365D01*
X0097838Y0099377D02*
X0096937Y0099377D01*
X0096937Y0099977D01*
X0097087Y0100298D02*
X0096937Y0100448D01*
X0096937Y0100748D01*
X0097087Y0100898D01*
X0097237Y0100898D01*
X0097387Y0100748D01*
X0097387Y0100598D01*
X0097387Y0100748D02*
X0097538Y0100898D01*
X0097688Y0100898D01*
X0097838Y0100748D01*
X0097838Y0100448D01*
X0097688Y0100298D01*
X0092059Y0086401D02*
X0092176Y0086284D01*
X0092176Y0085817D01*
X0092059Y0085700D01*
X0091825Y0085700D01*
X0091708Y0085817D01*
X0091439Y0085817D02*
X0091322Y0085700D01*
X0091089Y0085700D01*
X0090972Y0085817D01*
X0090972Y0086284D01*
X0091089Y0086401D01*
X0091322Y0086401D01*
X0091439Y0086284D01*
X0091439Y0085817D01*
X0091708Y0086284D02*
X0091825Y0086401D01*
X0092059Y0086401D01*
X0090702Y0086401D02*
X0090235Y0085700D01*
X0090235Y0086401D01*
X0089966Y0086401D02*
X0089966Y0085934D01*
X0089732Y0085700D01*
X0089499Y0085934D01*
X0089499Y0086401D01*
X0089229Y0086401D02*
X0089229Y0085700D01*
X0088762Y0085700D01*
X0088492Y0085700D02*
X0088492Y0086401D01*
X0088142Y0086401D01*
X0088025Y0086284D01*
X0088025Y0086051D01*
X0088142Y0085934D01*
X0088492Y0085934D01*
X0088259Y0085934D02*
X0088025Y0085700D01*
X0087522Y0085700D02*
X0087522Y0086401D01*
X0087289Y0086401D02*
X0087756Y0086401D01*
X0087019Y0086401D02*
X0087019Y0085700D01*
X0086552Y0085700D01*
X0086283Y0085700D02*
X0086283Y0086401D01*
X0085932Y0086401D01*
X0085815Y0086284D01*
X0085815Y0086051D01*
X0085932Y0085934D01*
X0086283Y0085934D01*
X0086049Y0085934D02*
X0085815Y0085700D01*
X0086552Y0086401D02*
X0087019Y0086401D01*
X0087019Y0086051D02*
X0086786Y0086051D01*
X0088762Y0086401D02*
X0089229Y0086401D01*
X0089229Y0086051D02*
X0088995Y0086051D01*
X0090702Y0085700D02*
X0090702Y0086401D01*
X0094468Y0082814D02*
X0094218Y0082564D01*
X0094218Y0082064D01*
X0094468Y0081813D01*
X0094468Y0081341D02*
X0094218Y0081091D01*
X0094218Y0080590D01*
X0094468Y0080340D01*
X0095469Y0080340D01*
X0095719Y0080590D01*
X0095719Y0081091D01*
X0095469Y0081341D01*
X0095469Y0081813D02*
X0095719Y0082064D01*
X0095719Y0082564D01*
X0095469Y0082814D01*
X0095219Y0082814D01*
X0094969Y0082564D01*
X0094719Y0082814D01*
X0094468Y0082814D01*
X0094969Y0082564D02*
X0094969Y0082314D01*
X0073812Y0089353D02*
X0073812Y0090254D01*
X0073362Y0090254D01*
X0073212Y0090104D01*
X0073212Y0089803D01*
X0073362Y0089653D01*
X0073812Y0089653D01*
X0073512Y0089653D02*
X0073212Y0089353D01*
X0072891Y0089503D02*
X0072741Y0089353D01*
X0072441Y0089353D01*
X0072291Y0089503D01*
X0072291Y0089803D01*
X0072441Y0089953D01*
X0072591Y0089953D01*
X0072891Y0089803D01*
X0072891Y0090254D01*
X0072291Y0090254D01*
X0104670Y0186655D02*
X0104970Y0186655D01*
X0105120Y0186805D01*
X0105441Y0186655D02*
X0105441Y0187555D01*
X0105120Y0187405D02*
X0104970Y0187555D01*
X0104670Y0187555D01*
X0104520Y0187405D01*
X0104520Y0187255D01*
X0104670Y0187105D01*
X0104520Y0186955D01*
X0104520Y0186805D01*
X0104670Y0186655D01*
X0104670Y0187105D02*
X0104820Y0187105D01*
X0105441Y0186655D02*
X0106041Y0187555D01*
X0106041Y0186655D01*
X0106361Y0186655D02*
X0106662Y0186955D01*
X0106512Y0186955D02*
X0106962Y0186955D01*
X0106962Y0186655D02*
X0106962Y0187555D01*
X0106512Y0187555D01*
X0106361Y0187405D01*
X0106361Y0187105D01*
X0106512Y0186955D01*
X0098637Y0199849D02*
X0098336Y0199849D01*
X0098186Y0199999D01*
X0097866Y0199849D02*
X0097266Y0199849D01*
X0097566Y0199849D02*
X0097566Y0200749D01*
X0097866Y0200449D01*
X0098186Y0200599D02*
X0098336Y0200749D01*
X0098637Y0200749D01*
X0098787Y0200599D01*
X0098787Y0199999D01*
X0098637Y0199849D01*
X0094968Y0191831D02*
X0094517Y0191380D01*
X0094517Y0191981D01*
X0094067Y0191831D02*
X0094968Y0191831D01*
X0094968Y0191060D02*
X0094067Y0191060D01*
X0094968Y0190460D01*
X0094067Y0190460D01*
X0094067Y0190139D02*
X0094367Y0189839D01*
X0094367Y0189989D02*
X0094367Y0189539D01*
X0094067Y0189539D02*
X0094968Y0189539D01*
X0094968Y0189989D01*
X0094818Y0190139D01*
X0094517Y0190139D01*
X0094367Y0189989D01*
X0099268Y0218193D02*
X0099868Y0218193D01*
X0099568Y0218193D02*
X0099568Y0219094D01*
X0099868Y0218793D01*
X0100189Y0218943D02*
X0100189Y0219094D01*
X0100189Y0218943D02*
X0100489Y0218643D01*
X0100489Y0218193D01*
X0100489Y0218643D02*
X0100789Y0218943D01*
X0100789Y0219094D01*
X0091853Y0220230D02*
X0091703Y0220080D01*
X0091102Y0220080D01*
X0090952Y0220230D01*
X0090952Y0220531D01*
X0091102Y0220681D01*
X0091402Y0221001D02*
X0091402Y0221601D01*
X0091553Y0221922D02*
X0091853Y0222222D01*
X0090952Y0222222D01*
X0090952Y0221922D02*
X0090952Y0222522D01*
X0090952Y0221451D02*
X0091853Y0221451D01*
X0091402Y0221001D01*
X0091703Y0220681D02*
X0091853Y0220531D01*
X0091853Y0220230D01*
X0088010Y0241820D02*
X0087710Y0241820D01*
X0087560Y0241970D01*
X0087239Y0241820D02*
X0086639Y0241820D01*
X0086939Y0241820D02*
X0086939Y0242720D01*
X0087239Y0242420D01*
X0087560Y0242570D02*
X0087710Y0242720D01*
X0088010Y0242720D01*
X0088160Y0242570D01*
X0088160Y0241970D01*
X0088010Y0241820D01*
X0086319Y0241820D02*
X0085718Y0241820D01*
X0086018Y0241820D02*
X0086018Y0242720D01*
X0086319Y0242420D01*
X0113992Y0224941D02*
X0114593Y0224340D01*
X0114443Y0224190D01*
X0114142Y0224190D01*
X0113992Y0224340D01*
X0113992Y0224941D01*
X0114142Y0225091D01*
X0114443Y0225091D01*
X0114593Y0224941D01*
X0114593Y0224340D01*
X0114913Y0224641D02*
X0115513Y0224641D01*
X0115063Y0225091D01*
X0115063Y0224190D01*
X0115834Y0224340D02*
X0115984Y0224190D01*
X0116284Y0224190D01*
X0116434Y0224340D01*
X0116434Y0224941D01*
X0116284Y0225091D01*
X0115984Y0225091D01*
X0115834Y0224941D01*
D17*
X0110452Y0219641D02*
X0110452Y0217279D01*
X0106318Y0212751D02*
X0101594Y0212751D01*
X0097657Y0217082D02*
X0097657Y0219444D01*
X0101594Y0224168D02*
X0106318Y0224168D01*
X0088167Y0223083D02*
X0086592Y0221508D01*
X0080293Y0221508D01*
X0078718Y0223083D01*
X0078718Y0227413D01*
X0078718Y0235287D02*
X0078718Y0241193D01*
X0088167Y0241193D01*
X0088167Y0235287D01*
X0088167Y0227413D02*
X0088167Y0223083D01*
X0073068Y0175652D02*
X0071099Y0173683D01*
X0071099Y0123289D01*
X0073068Y0121321D01*
X0123462Y0121321D01*
X0125430Y0123289D01*
X0125430Y0173683D01*
X0123462Y0175652D01*
X0073068Y0175652D01*
X0119524Y0171715D02*
X0119526Y0171803D01*
X0119532Y0171891D01*
X0119542Y0171979D01*
X0119556Y0172067D01*
X0119573Y0172153D01*
X0119595Y0172239D01*
X0119620Y0172323D01*
X0119650Y0172407D01*
X0119682Y0172489D01*
X0119719Y0172569D01*
X0119759Y0172648D01*
X0119803Y0172725D01*
X0119850Y0172800D01*
X0119900Y0172872D01*
X0119954Y0172943D01*
X0120010Y0173010D01*
X0120070Y0173076D01*
X0120132Y0173138D01*
X0120198Y0173198D01*
X0120265Y0173254D01*
X0120336Y0173308D01*
X0120408Y0173358D01*
X0120483Y0173405D01*
X0120560Y0173449D01*
X0120639Y0173489D01*
X0120719Y0173526D01*
X0120801Y0173558D01*
X0120885Y0173588D01*
X0120969Y0173613D01*
X0121055Y0173635D01*
X0121141Y0173652D01*
X0121229Y0173666D01*
X0121317Y0173676D01*
X0121405Y0173682D01*
X0121493Y0173684D01*
X0121581Y0173682D01*
X0121669Y0173676D01*
X0121757Y0173666D01*
X0121845Y0173652D01*
X0121931Y0173635D01*
X0122017Y0173613D01*
X0122101Y0173588D01*
X0122185Y0173558D01*
X0122267Y0173526D01*
X0122347Y0173489D01*
X0122426Y0173449D01*
X0122503Y0173405D01*
X0122578Y0173358D01*
X0122650Y0173308D01*
X0122721Y0173254D01*
X0122788Y0173198D01*
X0122854Y0173138D01*
X0122916Y0173076D01*
X0122976Y0173010D01*
X0123032Y0172943D01*
X0123086Y0172872D01*
X0123136Y0172800D01*
X0123183Y0172725D01*
X0123227Y0172648D01*
X0123267Y0172569D01*
X0123304Y0172489D01*
X0123336Y0172407D01*
X0123366Y0172323D01*
X0123391Y0172239D01*
X0123413Y0172153D01*
X0123430Y0172067D01*
X0123444Y0171979D01*
X0123454Y0171891D01*
X0123460Y0171803D01*
X0123462Y0171715D01*
X0123460Y0171627D01*
X0123454Y0171539D01*
X0123444Y0171451D01*
X0123430Y0171363D01*
X0123413Y0171277D01*
X0123391Y0171191D01*
X0123366Y0171107D01*
X0123336Y0171023D01*
X0123304Y0170941D01*
X0123267Y0170861D01*
X0123227Y0170782D01*
X0123183Y0170705D01*
X0123136Y0170630D01*
X0123086Y0170558D01*
X0123032Y0170487D01*
X0122976Y0170420D01*
X0122916Y0170354D01*
X0122854Y0170292D01*
X0122788Y0170232D01*
X0122721Y0170176D01*
X0122650Y0170122D01*
X0122578Y0170072D01*
X0122503Y0170025D01*
X0122426Y0169981D01*
X0122347Y0169941D01*
X0122267Y0169904D01*
X0122185Y0169872D01*
X0122101Y0169842D01*
X0122017Y0169817D01*
X0121931Y0169795D01*
X0121845Y0169778D01*
X0121757Y0169764D01*
X0121669Y0169754D01*
X0121581Y0169748D01*
X0121493Y0169746D01*
X0121405Y0169748D01*
X0121317Y0169754D01*
X0121229Y0169764D01*
X0121141Y0169778D01*
X0121055Y0169795D01*
X0120969Y0169817D01*
X0120885Y0169842D01*
X0120801Y0169872D01*
X0120719Y0169904D01*
X0120639Y0169941D01*
X0120560Y0169981D01*
X0120483Y0170025D01*
X0120408Y0170072D01*
X0120336Y0170122D01*
X0120265Y0170176D01*
X0120198Y0170232D01*
X0120132Y0170292D01*
X0120070Y0170354D01*
X0120010Y0170420D01*
X0119954Y0170487D01*
X0119900Y0170558D01*
X0119850Y0170630D01*
X0119803Y0170705D01*
X0119759Y0170782D01*
X0119719Y0170861D01*
X0119682Y0170941D01*
X0119650Y0171023D01*
X0119620Y0171107D01*
X0119595Y0171191D01*
X0119573Y0171277D01*
X0119556Y0171363D01*
X0119542Y0171451D01*
X0119532Y0171539D01*
X0119526Y0171627D01*
X0119524Y0171715D01*
X0090650Y0088090D02*
X0088537Y0088090D01*
X0083994Y0086590D02*
X0083994Y0083209D01*
X0095194Y0083209D02*
X0095194Y0086590D01*
X0103621Y0079385D02*
X0103621Y0076004D01*
X0108165Y0074504D02*
X0110278Y0074504D01*
X0114821Y0076004D02*
X0114821Y0079385D01*
D18*
X0091508Y0093787D02*
X0088359Y0093787D01*
X0088359Y0101661D02*
X0091508Y0101661D01*
X0097216Y0224046D02*
X0097218Y0224085D01*
X0097224Y0224124D01*
X0097234Y0224162D01*
X0097247Y0224199D01*
X0097264Y0224234D01*
X0097284Y0224268D01*
X0097308Y0224299D01*
X0097335Y0224328D01*
X0097364Y0224354D01*
X0097396Y0224377D01*
X0097430Y0224397D01*
X0097466Y0224413D01*
X0097503Y0224425D01*
X0097542Y0224434D01*
X0097581Y0224439D01*
X0097620Y0224440D01*
X0097659Y0224437D01*
X0097698Y0224430D01*
X0097735Y0224419D01*
X0097772Y0224405D01*
X0097807Y0224387D01*
X0097840Y0224366D01*
X0097871Y0224341D01*
X0097899Y0224314D01*
X0097924Y0224284D01*
X0097946Y0224251D01*
X0097965Y0224217D01*
X0097980Y0224181D01*
X0097992Y0224143D01*
X0098000Y0224105D01*
X0098004Y0224066D01*
X0098004Y0224026D01*
X0098000Y0223987D01*
X0097992Y0223949D01*
X0097980Y0223911D01*
X0097965Y0223875D01*
X0097946Y0223841D01*
X0097924Y0223808D01*
X0097899Y0223778D01*
X0097871Y0223751D01*
X0097840Y0223726D01*
X0097807Y0223705D01*
X0097772Y0223687D01*
X0097735Y0223673D01*
X0097698Y0223662D01*
X0097659Y0223655D01*
X0097620Y0223652D01*
X0097581Y0223653D01*
X0097542Y0223658D01*
X0097503Y0223667D01*
X0097466Y0223679D01*
X0097430Y0223695D01*
X0097396Y0223715D01*
X0097364Y0223738D01*
X0097335Y0223764D01*
X0097308Y0223793D01*
X0097284Y0223824D01*
X0097264Y0223858D01*
X0097247Y0223893D01*
X0097234Y0223930D01*
X0097224Y0223968D01*
X0097218Y0224007D01*
X0097216Y0224046D01*
X0087442Y0229850D02*
X0079442Y0229850D01*
D19*
X0081114Y0096857D03*
X0075168Y0096826D03*
D20*
X0121330Y0187483D02*
X0121330Y0193388D01*
X0115499Y0195570D02*
X0115499Y0189665D01*
X0103294Y0189665D02*
X0103294Y0195570D01*
X0093510Y0195593D02*
X0093510Y0189687D01*
X0081305Y0189687D02*
X0081305Y0195593D01*
X0133535Y0193388D02*
X0133535Y0187483D01*
D21*
X0129065Y0245515D02*
X0139596Y0245515D01*
X0129065Y0245515D02*
X0129011Y0245517D01*
X0128958Y0245522D01*
X0128905Y0245531D01*
X0128853Y0245544D01*
X0128801Y0245560D01*
X0128751Y0245580D01*
X0128703Y0245603D01*
X0128656Y0245630D01*
X0128611Y0245659D01*
X0128568Y0245692D01*
X0128528Y0245727D01*
X0128490Y0245765D01*
X0128455Y0245805D01*
X0128422Y0245848D01*
X0128393Y0245893D01*
X0128366Y0245940D01*
X0128343Y0245988D01*
X0128323Y0246038D01*
X0128307Y0246090D01*
X0128294Y0246142D01*
X0128285Y0246195D01*
X0128280Y0246248D01*
X0128278Y0246302D01*
X0128278Y0263035D01*
X0128277Y0263035D02*
X0128275Y0263112D01*
X0128269Y0263188D01*
X0128260Y0263264D01*
X0128247Y0263339D01*
X0128230Y0263414D01*
X0128209Y0263487D01*
X0128184Y0263560D01*
X0128156Y0263631D01*
X0128125Y0263701D01*
X0128090Y0263769D01*
X0128052Y0263835D01*
X0128010Y0263900D01*
X0127966Y0263962D01*
X0127918Y0264022D01*
X0127867Y0264079D01*
X0127814Y0264134D01*
X0127758Y0264186D01*
X0127699Y0264235D01*
X0127638Y0264281D01*
X0127575Y0264324D01*
X0127510Y0264364D01*
X0127442Y0264401D01*
X0127373Y0264434D01*
X0127303Y0264464D01*
X0127231Y0264490D01*
X0127158Y0264513D01*
X0127084Y0264532D01*
X0127009Y0264547D01*
X0126933Y0264558D01*
X0126857Y0264566D01*
X0126780Y0264570D01*
X0126704Y0264570D01*
X0126627Y0264566D01*
X0126551Y0264558D01*
X0126475Y0264547D01*
X0126400Y0264532D01*
X0126326Y0264513D01*
X0126253Y0264490D01*
X0126181Y0264464D01*
X0126111Y0264434D01*
X0126042Y0264401D01*
X0125975Y0264364D01*
X0125909Y0264324D01*
X0125846Y0264281D01*
X0125785Y0264235D01*
X0125726Y0264186D01*
X0125670Y0264134D01*
X0125617Y0264079D01*
X0125566Y0264022D01*
X0125518Y0263962D01*
X0125474Y0263900D01*
X0125432Y0263835D01*
X0125394Y0263769D01*
X0125359Y0263701D01*
X0125328Y0263631D01*
X0125300Y0263560D01*
X0125275Y0263487D01*
X0125254Y0263414D01*
X0125237Y0263339D01*
X0125224Y0263264D01*
X0125215Y0263188D01*
X0125209Y0263112D01*
X0125207Y0263035D01*
X0125207Y0256342D01*
X0125207Y0256341D02*
X0125145Y0256339D01*
X0125084Y0256333D01*
X0125023Y0256324D01*
X0124962Y0256310D01*
X0124903Y0256293D01*
X0124845Y0256272D01*
X0124788Y0256247D01*
X0124733Y0256219D01*
X0124680Y0256188D01*
X0124629Y0256153D01*
X0124580Y0256115D01*
X0124533Y0256074D01*
X0124490Y0256031D01*
X0124449Y0255984D01*
X0124411Y0255935D01*
X0124376Y0255884D01*
X0124345Y0255831D01*
X0124317Y0255776D01*
X0124292Y0255719D01*
X0124271Y0255661D01*
X0124254Y0255602D01*
X0124240Y0255541D01*
X0124231Y0255480D01*
X0124225Y0255419D01*
X0124223Y0255357D01*
X0124222Y0255357D02*
X0124222Y0251420D01*
X0124223Y0251420D02*
X0124225Y0251358D01*
X0124231Y0251297D01*
X0124240Y0251236D01*
X0124254Y0251175D01*
X0124271Y0251116D01*
X0124292Y0251058D01*
X0124317Y0251001D01*
X0124345Y0250946D01*
X0124376Y0250893D01*
X0124411Y0250842D01*
X0124449Y0250793D01*
X0124490Y0250746D01*
X0124533Y0250703D01*
X0124580Y0250662D01*
X0124629Y0250624D01*
X0124680Y0250589D01*
X0124733Y0250558D01*
X0124788Y0250530D01*
X0124845Y0250505D01*
X0124903Y0250484D01*
X0124962Y0250467D01*
X0125023Y0250453D01*
X0125084Y0250444D01*
X0125145Y0250438D01*
X0125207Y0250436D01*
X0125207Y0248468D01*
X0124026Y0245515D01*
X0100049Y0245515D01*
X0098868Y0248468D01*
X0098868Y0250436D01*
X0098930Y0250438D01*
X0098991Y0250444D01*
X0099052Y0250453D01*
X0099113Y0250467D01*
X0099172Y0250484D01*
X0099230Y0250505D01*
X0099287Y0250530D01*
X0099342Y0250558D01*
X0099395Y0250589D01*
X0099446Y0250624D01*
X0099495Y0250662D01*
X0099542Y0250703D01*
X0099585Y0250746D01*
X0099626Y0250793D01*
X0099664Y0250842D01*
X0099699Y0250893D01*
X0099730Y0250946D01*
X0099758Y0251001D01*
X0099783Y0251058D01*
X0099804Y0251116D01*
X0099821Y0251175D01*
X0099835Y0251236D01*
X0099844Y0251297D01*
X0099850Y0251358D01*
X0099852Y0251420D01*
X0099852Y0255357D01*
X0099850Y0255419D01*
X0099844Y0255480D01*
X0099835Y0255541D01*
X0099821Y0255602D01*
X0099804Y0255661D01*
X0099783Y0255719D01*
X0099758Y0255776D01*
X0099730Y0255831D01*
X0099699Y0255884D01*
X0099664Y0255935D01*
X0099626Y0255984D01*
X0099585Y0256031D01*
X0099542Y0256074D01*
X0099495Y0256115D01*
X0099446Y0256153D01*
X0099395Y0256188D01*
X0099342Y0256219D01*
X0099287Y0256247D01*
X0099230Y0256272D01*
X0099172Y0256293D01*
X0099113Y0256310D01*
X0099052Y0256324D01*
X0098991Y0256333D01*
X0098930Y0256339D01*
X0098868Y0256341D01*
X0098868Y0256342D02*
X0098868Y0263035D01*
X0098866Y0263112D01*
X0098860Y0263188D01*
X0098851Y0263264D01*
X0098838Y0263339D01*
X0098821Y0263414D01*
X0098800Y0263487D01*
X0098775Y0263560D01*
X0098747Y0263631D01*
X0098716Y0263701D01*
X0098681Y0263769D01*
X0098643Y0263835D01*
X0098601Y0263900D01*
X0098557Y0263962D01*
X0098509Y0264022D01*
X0098458Y0264079D01*
X0098405Y0264134D01*
X0098349Y0264186D01*
X0098290Y0264235D01*
X0098229Y0264281D01*
X0098166Y0264324D01*
X0098101Y0264364D01*
X0098033Y0264401D01*
X0097964Y0264434D01*
X0097894Y0264464D01*
X0097822Y0264490D01*
X0097749Y0264513D01*
X0097675Y0264532D01*
X0097600Y0264547D01*
X0097524Y0264558D01*
X0097448Y0264566D01*
X0097371Y0264570D01*
X0097295Y0264570D01*
X0097218Y0264566D01*
X0097142Y0264558D01*
X0097066Y0264547D01*
X0096991Y0264532D01*
X0096917Y0264513D01*
X0096844Y0264490D01*
X0096772Y0264464D01*
X0096702Y0264434D01*
X0096633Y0264401D01*
X0096566Y0264364D01*
X0096500Y0264324D01*
X0096437Y0264281D01*
X0096376Y0264235D01*
X0096317Y0264186D01*
X0096261Y0264134D01*
X0096208Y0264079D01*
X0096157Y0264022D01*
X0096109Y0263962D01*
X0096065Y0263900D01*
X0096023Y0263835D01*
X0095985Y0263769D01*
X0095950Y0263701D01*
X0095919Y0263631D01*
X0095891Y0263560D01*
X0095866Y0263487D01*
X0095845Y0263414D01*
X0095828Y0263339D01*
X0095815Y0263264D01*
X0095806Y0263188D01*
X0095800Y0263112D01*
X0095798Y0263035D01*
X0095797Y0263035D02*
X0095797Y0246302D01*
X0095795Y0246248D01*
X0095790Y0246195D01*
X0095781Y0246142D01*
X0095768Y0246090D01*
X0095752Y0246038D01*
X0095732Y0245988D01*
X0095709Y0245940D01*
X0095682Y0245893D01*
X0095653Y0245848D01*
X0095620Y0245805D01*
X0095585Y0245765D01*
X0095547Y0245727D01*
X0095507Y0245692D01*
X0095464Y0245659D01*
X0095419Y0245630D01*
X0095372Y0245603D01*
X0095324Y0245580D01*
X0095274Y0245560D01*
X0095222Y0245544D01*
X0095170Y0245531D01*
X0095117Y0245522D01*
X0095064Y0245517D01*
X0095010Y0245515D01*
X0084478Y0245515D01*
M02*
