%
M48
M72
T01C0.01000
T02C0.01300
T03C0.03937
T04C0.04000
%
T01
X68103Y98867
X69703Y102867
X74703Y113367
X71603Y119467
X78653Y123367
X81203Y129067
X88203Y123367
X91203Y113617
X87903Y105517
X84703Y112767
X98703Y103267
X117203Y139367
X118203Y145567
X121803Y142167
X116203Y150867
X121903Y152467
X115503Y169467
X112003Y169367
X112303Y174367
X106203Y169367
X102203Y169367
X98703Y169867
X100203Y173867
X94703Y169367
X89703Y173867
X85903Y184667
X92203Y185767
X97203Y183367
X102203Y185867
X105903Y185767
X108203Y182867
X113903Y185667
X118803Y183967
X123203Y183367
X120703Y173867
X132703Y154367
X135953Y148117
X136703Y171667
X139003Y179867
X130903Y197267
X125803Y197267
X105203Y199867
X102903Y207567
X86103Y208867
X86203Y212867
X85703Y199367
X76703Y186667
X76703Y173867
X77803Y168667
X77803Y160067
X75703Y155367
X76203Y148867
X77403Y145167
X73203Y141367
X63403Y172117
X65603Y192967
X65203Y196567
X76403Y212267
X94703Y156867
X94203Y150367
X96203Y146367
X100203Y143867
X99703Y156867
X109203Y59267
T02
X129903Y104667
X129803Y110867
X133603Y109867
X125403Y112567
X117703Y107067
X132803Y136467
X122603Y162867
X123203Y167867
X129203Y175367
X126003Y177967
X135703Y182367
X136703Y194867
X136203Y203367
X128503Y226867
X110303Y241617
X101953Y227767
X91103Y236377
X93603Y250367
X74873Y229007
T03
X117633Y240378
X127633Y240378
T04
X63511Y72557
X63511Y82557
X63511Y92557
M30
