G75*
%MOIN*%
%OFA0B0*%
%FSLAX25Y25*%
%IPPOS*%
%LPD*%
%AMOC8*
5,1,8,0,0,1.08239X$1,22.5*
%
%ADD10R,0.03937X0.03937*%
%ADD11R,0.06299X0.05512*%
%ADD12R,0.04724X0.03150*%
%ADD13R,0.03150X0.04724*%
%ADD14C,0.07000*%
%ADD15R,0.03150X0.07874*%
%ADD16R,0.03937X0.04331*%
%ADD17R,0.01772X0.02756*%
%ADD18R,0.00984X0.15748*%
%ADD19R,0.00984X0.13780*%
%ADD20R,0.03543X0.01181*%
%ADD21R,0.01181X0.03543*%
%ADD22R,0.02165X0.04724*%
%ADD23R,0.03937X0.03543*%
%ADD24C,0.06000*%
%ADD25C,0.01000*%
%ADD26C,0.00600*%
%ADD27C,0.02600*%
%ADD28C,0.02900*%
D10*
X0065325Y0108085D03*
X0065325Y0114384D03*
X0105003Y0102259D03*
X0105003Y0096459D03*
X0105011Y0090611D03*
X0111310Y0090611D03*
X0111302Y0096459D03*
X0111302Y0102259D03*
X0117702Y0102026D03*
X0117672Y0096197D03*
X0117676Y0090350D03*
X0117686Y0084519D03*
X0123985Y0084519D03*
X0123975Y0090350D03*
X0123971Y0096197D03*
X0124002Y0102026D03*
X0115363Y0064022D03*
X0109064Y0064022D03*
X0067452Y0177118D03*
X0067452Y0183418D03*
X0094998Y0214715D03*
X0094998Y0221014D03*
X0098064Y0196623D03*
X0098064Y0190324D03*
X0115151Y0214782D03*
X0115151Y0221082D03*
D11*
X0083442Y0225838D03*
X0083442Y0236862D03*
D12*
X0098986Y0088777D03*
X0098986Y0081690D03*
X0098949Y0077365D03*
X0098949Y0070278D03*
D13*
X0091739Y0073623D03*
X0084653Y0073623D03*
X0081638Y0107890D03*
X0074552Y0107890D03*
D14*
X0117633Y0240378D03*
X0127633Y0240378D03*
D15*
X0093870Y0097724D03*
X0085996Y0097724D03*
D16*
X0081114Y0100204D03*
X0075168Y0100172D03*
X0075168Y0093479D03*
X0081114Y0093511D03*
D17*
X0122708Y0187384D03*
X0125858Y0187384D03*
X0129007Y0187384D03*
X0132157Y0187384D03*
X0132157Y0193487D03*
X0129007Y0193487D03*
X0125858Y0193487D03*
X0122708Y0193487D03*
X0114121Y0195669D03*
X0110971Y0195669D03*
X0107822Y0195669D03*
X0104672Y0195669D03*
X0104672Y0189566D03*
X0107822Y0189566D03*
X0110971Y0189566D03*
X0114121Y0189566D03*
X0092132Y0189589D03*
X0088982Y0189589D03*
X0085833Y0189589D03*
X0082683Y0189589D03*
X0082683Y0195691D03*
X0085833Y0195691D03*
X0088982Y0195691D03*
X0092132Y0195691D03*
D18*
X0101211Y0255161D03*
X0107116Y0255161D03*
X0116959Y0255161D03*
X0122864Y0255161D03*
D19*
X0120896Y0256145D03*
X0118927Y0256145D03*
X0114990Y0256145D03*
X0113022Y0256145D03*
X0111053Y0256145D03*
X0109085Y0256145D03*
X0105148Y0256145D03*
X0103179Y0256145D03*
D20*
X0128659Y0172108D03*
X0128659Y0170140D03*
X0128659Y0168171D03*
X0128659Y0166203D03*
X0128659Y0164234D03*
X0128659Y0162266D03*
X0128659Y0160297D03*
X0128659Y0158329D03*
X0128659Y0156360D03*
X0128659Y0154392D03*
X0128659Y0152423D03*
X0128659Y0150455D03*
X0128659Y0148486D03*
X0128659Y0146518D03*
X0128659Y0144549D03*
X0128659Y0142581D03*
X0128659Y0140612D03*
X0128659Y0138644D03*
X0128659Y0136675D03*
X0128659Y0134707D03*
X0128659Y0132738D03*
X0128659Y0130770D03*
X0128659Y0128801D03*
X0128659Y0126833D03*
X0128659Y0124864D03*
X0067871Y0124864D03*
X0067871Y0126833D03*
X0067871Y0128801D03*
X0067871Y0130770D03*
X0067871Y0132738D03*
X0067871Y0134707D03*
X0067871Y0136675D03*
X0067871Y0138644D03*
X0067871Y0140612D03*
X0067871Y0142581D03*
X0067871Y0144549D03*
X0067871Y0146518D03*
X0067871Y0148486D03*
X0067871Y0150455D03*
X0067871Y0152423D03*
X0067871Y0154392D03*
X0067871Y0156360D03*
X0067871Y0158329D03*
X0067871Y0160297D03*
X0067871Y0162266D03*
X0067871Y0164234D03*
X0067871Y0166203D03*
X0067871Y0168171D03*
X0067871Y0170140D03*
X0067871Y0172108D03*
D21*
X0074643Y0178880D03*
X0076611Y0178880D03*
X0078580Y0178880D03*
X0080548Y0178880D03*
X0082517Y0178880D03*
X0084485Y0178880D03*
X0086454Y0178880D03*
X0088422Y0178880D03*
X0090391Y0178880D03*
X0092359Y0178880D03*
X0094328Y0178880D03*
X0096296Y0178880D03*
X0098265Y0178880D03*
X0100233Y0178880D03*
X0102202Y0178880D03*
X0104170Y0178880D03*
X0106139Y0178880D03*
X0108107Y0178880D03*
X0110076Y0178880D03*
X0112044Y0178880D03*
X0114013Y0178880D03*
X0115981Y0178880D03*
X0117950Y0178880D03*
X0119918Y0178880D03*
X0121887Y0178880D03*
X0121887Y0118093D03*
X0119918Y0118093D03*
X0117950Y0118093D03*
X0115981Y0118093D03*
X0114013Y0118093D03*
X0112044Y0118093D03*
X0110076Y0118093D03*
X0108107Y0118093D03*
X0106139Y0118093D03*
X0104170Y0118093D03*
X0102202Y0118093D03*
X0100233Y0118093D03*
X0098265Y0118093D03*
X0096296Y0118093D03*
X0094328Y0118093D03*
X0092359Y0118093D03*
X0090391Y0118093D03*
X0088422Y0118093D03*
X0086454Y0118093D03*
X0084485Y0118093D03*
X0082517Y0118093D03*
X0080548Y0118093D03*
X0078580Y0118093D03*
X0076611Y0118093D03*
X0074643Y0118093D03*
D22*
X0085854Y0090018D03*
X0085854Y0079781D03*
X0089594Y0079781D03*
X0093334Y0079781D03*
X0093334Y0090018D03*
X0105481Y0082813D03*
X0109221Y0082813D03*
X0112961Y0082813D03*
X0112961Y0072576D03*
X0105481Y0072576D03*
D23*
X0107649Y0215385D03*
X0107649Y0221487D03*
X0100366Y0221487D03*
X0100366Y0215385D03*
D24*
X0066511Y0072557D02*
X0060511Y0072557D01*
X0060511Y0082557D02*
X0066511Y0082557D01*
X0066511Y0092557D02*
X0060511Y0092557D01*
D25*
X0078533Y0118093D02*
X0078580Y0118093D01*
X0098986Y0077402D02*
X0098949Y0077365D01*
X0109005Y0082867D02*
X0109221Y0082813D01*
X0116703Y0083536D02*
X0117686Y0084519D01*
D26*
X0119038Y0080967D01*
X0130003Y0080967D01*
X0131303Y0082767D01*
X0131303Y0102367D01*
X0132703Y0104167D01*
X0132703Y0106567D01*
X0131703Y0107167D01*
X0125002Y0107167D01*
X0124002Y0106567D01*
X0124002Y0110568D01*
X0120203Y0114367D01*
X0120203Y0117808D01*
X0119918Y0118093D01*
X0118203Y0118346D02*
X0118203Y0122367D01*
X0117203Y0123367D01*
X0117203Y0139367D01*
X0119095Y0137864D02*
X0125731Y0137864D01*
X0125675Y0137768D02*
X0125587Y0137437D01*
X0125587Y0136675D01*
X0125587Y0135914D01*
X0125675Y0135583D01*
X0125787Y0135390D01*
X0125787Y0123818D01*
X0126431Y0123174D01*
X0130403Y0123174D01*
X0130403Y0113447D01*
X0130355Y0113398D01*
X0130310Y0113417D01*
X0129296Y0113417D01*
X0128358Y0113028D01*
X0127641Y0112311D01*
X0127253Y0111374D01*
X0127253Y0110359D01*
X0127641Y0109422D01*
X0128358Y0108705D01*
X0128692Y0108567D01*
X0125401Y0108567D01*
X0125401Y0111148D01*
X0121603Y0114947D01*
X0121603Y0115021D01*
X0121887Y0115021D01*
X0122649Y0115021D01*
X0122979Y0115110D01*
X0123276Y0115281D01*
X0123518Y0115523D01*
X0123689Y0115819D01*
X0123777Y0116150D01*
X0123777Y0118093D01*
X0123777Y0120035D01*
X0123689Y0120366D01*
X0123518Y0120662D01*
X0123276Y0120904D01*
X0122979Y0121076D01*
X0122649Y0121164D01*
X0121887Y0121164D01*
X0121887Y0118093D01*
X0121887Y0118093D01*
X0121887Y0121164D01*
X0121125Y0121164D01*
X0120795Y0121076D01*
X0120602Y0120964D01*
X0119603Y0120964D01*
X0119603Y0122947D01*
X0118783Y0123767D01*
X0118603Y0123947D01*
X0118603Y0137373D01*
X0119237Y0138007D01*
X0119603Y0138889D01*
X0119603Y0139844D01*
X0119237Y0140726D01*
X0118562Y0141401D01*
X0117680Y0141767D01*
X0116725Y0141767D01*
X0115843Y0141401D01*
X0115168Y0140726D01*
X0115103Y0140568D01*
X0115103Y0146347D01*
X0109683Y0151767D01*
X0096197Y0151767D01*
X0095562Y0152401D01*
X0094680Y0152767D01*
X0093725Y0152767D01*
X0092843Y0152401D01*
X0092168Y0151726D01*
X0091803Y0150844D01*
X0091803Y0149889D01*
X0092168Y0149007D01*
X0092843Y0148332D01*
X0093725Y0147967D01*
X0094409Y0147967D01*
X0094168Y0147726D01*
X0093803Y0146844D01*
X0093803Y0146240D01*
X0093212Y0145767D01*
X0091683Y0145767D01*
X0091103Y0146347D01*
X0091103Y0162787D01*
X0093383Y0165067D01*
X0103683Y0165067D01*
X0104383Y0165767D01*
X0105203Y0166587D01*
X0105203Y0167183D01*
X0105725Y0166967D01*
X0106680Y0166967D01*
X0107562Y0167332D01*
X0108197Y0167967D01*
X0110009Y0167967D01*
X0110643Y0167332D01*
X0111525Y0166967D01*
X0112480Y0166967D01*
X0113362Y0167332D01*
X0113803Y0167773D01*
X0114143Y0167432D01*
X0114803Y0167159D01*
X0114803Y0152861D01*
X0114168Y0152226D01*
X0113803Y0151344D01*
X0113803Y0150389D01*
X0114168Y0149507D01*
X0114843Y0148832D01*
X0115725Y0148467D01*
X0116680Y0148467D01*
X0117103Y0148642D01*
X0117103Y0147709D01*
X0116843Y0147601D01*
X0116168Y0146926D01*
X0115803Y0146044D01*
X0115803Y0145089D01*
X0116168Y0144207D01*
X0116843Y0143532D01*
X0117725Y0143167D01*
X0118680Y0143167D01*
X0119562Y0143532D01*
X0120237Y0144207D01*
X0120532Y0144919D01*
X0120499Y0144224D01*
X0120443Y0144201D01*
X0119768Y0143526D01*
X0119403Y0142644D01*
X0119403Y0141689D01*
X0119768Y0140807D01*
X0120443Y0140132D01*
X0121325Y0139767D01*
X0122280Y0139767D01*
X0123162Y0140132D01*
X0123837Y0140807D01*
X0124203Y0141689D01*
X0124203Y0142644D01*
X0123837Y0143526D01*
X0123295Y0144069D01*
X0123385Y0145948D01*
X0123502Y0146144D01*
X0123411Y0146506D01*
X0123429Y0146879D01*
X0123276Y0147048D01*
X0123220Y0147269D01*
X0122900Y0147461D01*
X0122649Y0147737D01*
X0122421Y0147748D01*
X0120903Y0148659D01*
X0120903Y0150283D01*
X0121425Y0150067D01*
X0122380Y0150067D01*
X0123262Y0150432D01*
X0123854Y0151023D01*
X0125787Y0151023D01*
X0125787Y0137961D01*
X0125675Y0137768D01*
X0125587Y0137266D02*
X0118603Y0137266D01*
X0118603Y0136667D02*
X0125587Y0136667D01*
X0125587Y0136675D02*
X0128658Y0136675D01*
X0128658Y0136675D01*
X0125587Y0136675D01*
X0125587Y0136069D02*
X0118603Y0136069D01*
X0118603Y0135470D02*
X0125740Y0135470D01*
X0125787Y0134872D02*
X0118603Y0134872D01*
X0118603Y0134273D02*
X0125787Y0134273D01*
X0125787Y0133675D02*
X0118603Y0133675D01*
X0118603Y0133076D02*
X0125787Y0133076D01*
X0125787Y0132478D02*
X0118603Y0132478D01*
X0118603Y0131879D02*
X0125787Y0131879D01*
X0125787Y0131281D02*
X0118603Y0131281D01*
X0118603Y0130682D02*
X0125787Y0130682D01*
X0125787Y0130084D02*
X0118603Y0130084D01*
X0118603Y0129485D02*
X0125787Y0129485D01*
X0125787Y0128887D02*
X0118603Y0128887D01*
X0118603Y0128288D02*
X0125787Y0128288D01*
X0125787Y0127690D02*
X0118603Y0127690D01*
X0118603Y0127091D02*
X0125787Y0127091D01*
X0125787Y0126493D02*
X0118603Y0126493D01*
X0118603Y0125894D02*
X0125787Y0125894D01*
X0125787Y0125296D02*
X0118603Y0125296D01*
X0118603Y0124697D02*
X0125787Y0124697D01*
X0125787Y0124099D02*
X0118603Y0124099D01*
X0118783Y0123767D02*
X0118783Y0123767D01*
X0119049Y0123500D02*
X0126105Y0123500D01*
X0123607Y0120508D02*
X0130403Y0120508D01*
X0130403Y0121106D02*
X0122865Y0121106D01*
X0121887Y0121106D02*
X0121887Y0121106D01*
X0121887Y0120508D02*
X0121887Y0120508D01*
X0121887Y0119909D02*
X0121887Y0119909D01*
X0121887Y0119311D02*
X0121887Y0119311D01*
X0121887Y0118712D02*
X0121887Y0118712D01*
X0121961Y0118167D02*
X0124103Y0118167D01*
X0125403Y0116867D01*
X0125403Y0112567D01*
X0124421Y0112128D02*
X0127565Y0112128D01*
X0127318Y0111530D02*
X0125019Y0111530D01*
X0125401Y0110931D02*
X0127253Y0110931D01*
X0127264Y0110333D02*
X0125401Y0110333D01*
X0125401Y0109734D02*
X0127512Y0109734D01*
X0127927Y0109136D02*
X0125401Y0109136D01*
X0124002Y0106567D02*
X0124002Y0102026D01*
X0122602Y0105094D02*
X0121577Y0105094D01*
X0120933Y0104450D01*
X0120933Y0104306D01*
X0120882Y0104496D01*
X0120711Y0104792D01*
X0120469Y0105034D01*
X0120173Y0105206D01*
X0119842Y0105294D01*
X0118002Y0105294D01*
X0118002Y0102326D01*
X0117402Y0102326D01*
X0117402Y0105294D01*
X0115563Y0105294D01*
X0115232Y0105206D01*
X0114936Y0105034D01*
X0114694Y0104792D01*
X0114537Y0104522D01*
X0114482Y0104729D01*
X0114311Y0105025D01*
X0114069Y0105267D01*
X0113772Y0105438D01*
X0113442Y0105527D01*
X0111602Y0105527D01*
X0111602Y0102559D01*
X0111002Y0102559D01*
X0111002Y0105527D01*
X0109162Y0105527D01*
X0108832Y0105438D01*
X0108535Y0105267D01*
X0108293Y0105025D01*
X0108122Y0104729D01*
X0108071Y0104539D01*
X0108071Y0104683D01*
X0107427Y0105327D01*
X0103522Y0105327D01*
X0101483Y0107367D01*
X0097523Y0107367D01*
X0096703Y0106547D01*
X0094323Y0104167D01*
X0089967Y0104167D01*
X0089985Y0104171D01*
X0090419Y0104182D01*
X0090532Y0104301D01*
X0090691Y0104339D01*
X0090919Y0104709D01*
X0091218Y0105024D01*
X0091213Y0105187D01*
X0092523Y0107315D01*
X0092823Y0107638D01*
X0092817Y0107794D01*
X0092899Y0107927D01*
X0092797Y0108356D01*
X0092674Y0111694D01*
X0093237Y0112257D01*
X0093603Y0113139D01*
X0093603Y0114094D01*
X0093237Y0114976D01*
X0092993Y0115221D01*
X0118803Y0115221D01*
X0118803Y0113787D01*
X0119623Y0112967D01*
X0122602Y0109988D01*
X0122602Y0106739D01*
X0122503Y0106344D01*
X0122602Y0106179D01*
X0122602Y0105094D01*
X0122602Y0105545D02*
X0103305Y0105545D01*
X0102706Y0106143D02*
X0122602Y0106143D01*
X0122602Y0106742D02*
X0102108Y0106742D01*
X0101509Y0107340D02*
X0122602Y0107340D01*
X0122602Y0107939D02*
X0092896Y0107939D01*
X0092790Y0108537D02*
X0122602Y0108537D01*
X0122602Y0109136D02*
X0092768Y0109136D01*
X0092746Y0109734D02*
X0122602Y0109734D01*
X0122257Y0110333D02*
X0092724Y0110333D01*
X0092702Y0110931D02*
X0121658Y0110931D01*
X0121060Y0111530D02*
X0092680Y0111530D01*
X0093109Y0112128D02*
X0120461Y0112128D01*
X0119863Y0112727D02*
X0093432Y0112727D01*
X0093603Y0113325D02*
X0119264Y0113325D01*
X0118803Y0113924D02*
X0093603Y0113924D01*
X0093425Y0114523D02*
X0118803Y0114523D01*
X0118803Y0115121D02*
X0093093Y0115121D01*
X0091203Y0113617D02*
X0091403Y0108167D01*
X0089803Y0105567D01*
X0087903Y0105517D01*
X0085503Y0105545D02*
X0084313Y0105545D01*
X0084313Y0105072D02*
X0084313Y0110367D01*
X0085180Y0110367D01*
X0086062Y0110732D01*
X0086737Y0111407D01*
X0087103Y0112289D01*
X0087103Y0113244D01*
X0086737Y0114126D01*
X0086062Y0114801D01*
X0085180Y0115167D01*
X0084225Y0115167D01*
X0083343Y0114801D01*
X0082668Y0114126D01*
X0082303Y0113244D01*
X0082303Y0112767D01*
X0082123Y0112767D01*
X0081303Y0111947D01*
X0080708Y0111352D01*
X0079608Y0111352D01*
X0078963Y0110708D01*
X0078963Y0105072D01*
X0079608Y0104428D01*
X0079714Y0104428D01*
X0079714Y0103469D01*
X0078690Y0103469D01*
X0078243Y0103022D01*
X0078177Y0103136D01*
X0077935Y0103378D01*
X0077638Y0103549D01*
X0077308Y0103638D01*
X0075468Y0103638D01*
X0075468Y0100472D01*
X0074868Y0100472D01*
X0074868Y0099872D01*
X0071899Y0099872D01*
X0071899Y0097836D01*
X0071988Y0097505D01*
X0072159Y0097209D01*
X0072401Y0096967D01*
X0072698Y0096796D01*
X0072887Y0096745D01*
X0072744Y0096745D01*
X0072099Y0096100D01*
X0072099Y0090858D01*
X0072744Y0090214D01*
X0077592Y0090214D01*
X0078157Y0090779D01*
X0078690Y0090246D01*
X0081170Y0090246D01*
X0083671Y0089328D01*
X0083671Y0087200D01*
X0084315Y0086556D01*
X0087392Y0086556D01*
X0088036Y0087200D01*
X0088036Y0092697D01*
X0088671Y0093332D01*
X0088671Y0101367D01*
X0091196Y0101367D01*
X0091196Y0093332D01*
X0091421Y0093106D01*
X0091151Y0092836D01*
X0091151Y0087200D01*
X0091796Y0086556D01*
X0092912Y0086556D01*
X0092623Y0086267D01*
X0086623Y0086267D01*
X0085803Y0085447D01*
X0084454Y0084097D01*
X0084454Y0083243D01*
X0084315Y0083243D01*
X0083671Y0082599D01*
X0083671Y0079605D01*
X0083493Y0079448D01*
X0083490Y0079397D01*
X0083454Y0079361D01*
X0083454Y0078825D01*
X0083343Y0077085D01*
X0082622Y0077085D01*
X0081978Y0076440D01*
X0081978Y0070805D01*
X0082622Y0070160D01*
X0086683Y0070160D01*
X0087328Y0070805D01*
X0087328Y0076319D01*
X0087392Y0076319D01*
X0087582Y0076509D01*
X0087713Y0076379D01*
X0088009Y0076208D01*
X0088340Y0076119D01*
X0088865Y0076119D01*
X0088865Y0073922D01*
X0091439Y0073922D01*
X0091439Y0073323D01*
X0088865Y0073323D01*
X0088865Y0071089D01*
X0088953Y0070759D01*
X0089124Y0070462D01*
X0089366Y0070220D01*
X0089663Y0070049D01*
X0089993Y0069960D01*
X0091439Y0069960D01*
X0091439Y0073322D01*
X0092039Y0073322D01*
X0092039Y0069960D01*
X0093485Y0069960D01*
X0093816Y0070049D01*
X0094112Y0070220D01*
X0094354Y0070462D01*
X0094526Y0070759D01*
X0094614Y0071089D01*
X0094614Y0073323D01*
X0092039Y0073323D01*
X0092039Y0073922D01*
X0094614Y0073922D01*
X0094614Y0076156D01*
X0094571Y0076319D01*
X0094872Y0076319D01*
X0095287Y0076734D01*
X0095287Y0075619D01*
X0095375Y0075288D01*
X0095546Y0074992D01*
X0095789Y0074750D01*
X0096085Y0074579D01*
X0096416Y0074490D01*
X0098649Y0074490D01*
X0098649Y0077065D01*
X0099249Y0077065D01*
X0099249Y0077665D01*
X0102611Y0077665D01*
X0102611Y0079111D01*
X0102523Y0079442D01*
X0102491Y0079496D01*
X0102559Y0079613D01*
X0102648Y0079944D01*
X0102648Y0081390D01*
X0099286Y0081390D01*
X0099286Y0081990D01*
X0102648Y0081990D01*
X0102648Y0083436D01*
X0102559Y0083767D01*
X0102388Y0084063D01*
X0102146Y0084305D01*
X0101850Y0084476D01*
X0101519Y0084565D01*
X0099286Y0084565D01*
X0099286Y0081990D01*
X0098686Y0081990D01*
X0098686Y0084565D01*
X0096452Y0084565D01*
X0096122Y0084476D01*
X0095825Y0084305D01*
X0095583Y0084063D01*
X0095412Y0083767D01*
X0095324Y0083436D01*
X0095324Y0082792D01*
X0094872Y0083243D01*
X0094734Y0083243D01*
X0094734Y0084418D01*
X0096033Y0085717D01*
X0096418Y0086102D01*
X0101804Y0086102D01*
X0102448Y0086746D01*
X0102448Y0087377D01*
X0103757Y0087377D01*
X0103922Y0087542D01*
X0104282Y0087542D01*
X0104228Y0086275D01*
X0103943Y0086275D01*
X0103298Y0085631D01*
X0103298Y0079995D01*
X0103943Y0079351D01*
X0105352Y0079351D01*
X0106653Y0077300D01*
X0106653Y0077127D01*
X0106954Y0076826D01*
X0107181Y0076467D01*
X0107350Y0076429D01*
X0107473Y0076307D01*
X0107898Y0076307D01*
X0108313Y0076214D01*
X0108459Y0076307D01*
X0111154Y0076307D01*
X0111308Y0076211D01*
X0111715Y0076307D01*
X0112133Y0076307D01*
X0112261Y0076435D01*
X0112437Y0076476D01*
X0112657Y0076831D01*
X0112953Y0077127D01*
X0112953Y0077308D01*
X0114220Y0079351D01*
X0114500Y0079351D01*
X0115144Y0079995D01*
X0115144Y0081568D01*
X0115262Y0081450D01*
X0117356Y0081450D01*
X0117638Y0080709D01*
X0117638Y0080387D01*
X0117836Y0080189D01*
X0117936Y0079927D01*
X0118230Y0079795D01*
X0118458Y0079567D01*
X0118739Y0079567D01*
X0118994Y0079452D01*
X0119296Y0079567D01*
X0129303Y0079567D01*
X0129303Y0079305D01*
X0129216Y0078873D01*
X0129303Y0078743D01*
X0129303Y0078587D01*
X0129615Y0078275D01*
X0132903Y0073343D01*
X0132903Y0063147D01*
X0131223Y0061467D01*
X0131215Y0061462D01*
X0131205Y0061449D01*
X0130923Y0061167D01*
X0118000Y0061167D01*
X0118432Y0061598D01*
X0118432Y0066446D01*
X0117787Y0067091D01*
X0116763Y0067091D01*
X0116763Y0070636D01*
X0116855Y0070780D01*
X0116763Y0071197D01*
X0116763Y0071624D01*
X0116642Y0071745D01*
X0116605Y0071913D01*
X0116245Y0072142D01*
X0115943Y0072444D01*
X0115772Y0072444D01*
X0115144Y0072844D01*
X0115144Y0075394D01*
X0114500Y0076038D01*
X0111423Y0076038D01*
X0110779Y0075394D01*
X0110779Y0069758D01*
X0111423Y0069114D01*
X0113963Y0069114D01*
X0113963Y0067091D01*
X0112939Y0067091D01*
X0112295Y0066446D01*
X0112295Y0066303D01*
X0112244Y0066492D01*
X0112073Y0066789D01*
X0111831Y0067031D01*
X0111534Y0067202D01*
X0111204Y0067291D01*
X0109364Y0067291D01*
X0109364Y0064322D01*
X0108764Y0064322D01*
X0108764Y0067291D01*
X0107005Y0067291D01*
X0106963Y0069114D01*
X0107019Y0069114D01*
X0107664Y0069758D01*
X0107664Y0075394D01*
X0107019Y0076038D01*
X0103943Y0076038D01*
X0103298Y0075394D01*
X0103298Y0072502D01*
X0102411Y0071707D01*
X0102411Y0072309D01*
X0101767Y0072953D01*
X0096131Y0072953D01*
X0095487Y0072309D01*
X0095487Y0068248D01*
X0096131Y0067604D01*
X0101767Y0067604D01*
X0102411Y0068248D01*
X0102411Y0068878D01*
X0102875Y0068878D01*
X0103415Y0068848D01*
X0103449Y0068878D01*
X0103494Y0068878D01*
X0103836Y0069221D01*
X0103943Y0069114D01*
X0104162Y0069114D01*
X0104348Y0061167D01*
X0096983Y0061167D01*
X0096983Y0067269D01*
X0096692Y0067560D01*
X0061005Y0067560D01*
X0061005Y0068257D01*
X0063211Y0068257D01*
X0063211Y0072257D01*
X0063811Y0072257D01*
X0063811Y0068257D01*
X0066850Y0068257D01*
X0067518Y0068363D01*
X0068162Y0068572D01*
X0068765Y0068879D01*
X0069313Y0069277D01*
X0069791Y0069756D01*
X0070189Y0070303D01*
X0070496Y0070906D01*
X0070706Y0071550D01*
X0070811Y0072219D01*
X0070811Y0072257D01*
X0063812Y0072257D01*
X0063812Y0072857D01*
X0070811Y0072857D01*
X0070811Y0072895D01*
X0070706Y0073564D01*
X0070496Y0074208D01*
X0070189Y0074811D01*
X0069791Y0075358D01*
X0069313Y0075837D01*
X0068765Y0076235D01*
X0068162Y0076542D01*
X0067518Y0076751D01*
X0066850Y0076857D01*
X0063811Y0076857D01*
X0063811Y0072857D01*
X0063211Y0072857D01*
X0063211Y0076857D01*
X0061005Y0076857D01*
X0061005Y0078457D01*
X0067327Y0078457D01*
X0068834Y0079081D01*
X0069987Y0080235D01*
X0070611Y0081742D01*
X0070611Y0083373D01*
X0069987Y0084880D01*
X0068834Y0086033D01*
X0067327Y0086657D01*
X0061005Y0086657D01*
X0061005Y0088457D01*
X0067327Y0088457D01*
X0068834Y0089081D01*
X0069987Y0090235D01*
X0070611Y0091742D01*
X0070611Y0093373D01*
X0069987Y0094880D01*
X0068834Y0096033D01*
X0067787Y0096467D01*
X0068580Y0096467D01*
X0069462Y0096832D01*
X0070137Y0097507D01*
X0070503Y0098389D01*
X0070503Y0099344D01*
X0070137Y0100226D01*
X0069462Y0100901D01*
X0068580Y0101267D01*
X0067625Y0101267D01*
X0066743Y0100901D01*
X0066109Y0100267D01*
X0063783Y0100267D01*
X0061603Y0102447D01*
X0061603Y0107792D01*
X0065025Y0107792D01*
X0065025Y0107785D01*
X0065625Y0107785D01*
X0065625Y0107792D01*
X0066780Y0107792D01*
X0066956Y0107968D01*
X0066956Y0108385D01*
X0068593Y0108385D01*
X0068593Y0110225D01*
X0068505Y0110555D01*
X0068333Y0110852D01*
X0068091Y0111094D01*
X0067795Y0111265D01*
X0067605Y0111316D01*
X0067749Y0111316D01*
X0068393Y0111960D01*
X0068393Y0114595D01*
X0069235Y0115102D01*
X0069453Y0115109D01*
X0069714Y0115390D01*
X0070043Y0115587D01*
X0070096Y0115798D01*
X0071279Y0117067D01*
X0072080Y0117067D01*
X0072803Y0117366D01*
X0072803Y0114861D01*
X0072668Y0114726D01*
X0072303Y0113844D01*
X0072303Y0112889D01*
X0072668Y0112007D01*
X0073123Y0111552D01*
X0072806Y0111552D01*
X0072475Y0111463D01*
X0072179Y0111292D01*
X0071936Y0111050D01*
X0071765Y0110754D01*
X0071677Y0110423D01*
X0071677Y0108190D01*
X0074251Y0108190D01*
X0074251Y0107590D01*
X0071677Y0107590D01*
X0071677Y0105356D01*
X0071765Y0105026D01*
X0071936Y0104729D01*
X0072179Y0104487D01*
X0072475Y0104316D01*
X0072806Y0104228D01*
X0074252Y0104228D01*
X0074252Y0107590D01*
X0074852Y0107590D01*
X0074852Y0108190D01*
X0077426Y0108190D01*
X0077426Y0110423D01*
X0077338Y0110754D01*
X0077167Y0111050D01*
X0076925Y0111292D01*
X0076628Y0111463D01*
X0076297Y0111552D01*
X0076282Y0111552D01*
X0076737Y0112007D01*
X0077103Y0112889D01*
X0077103Y0113844D01*
X0076737Y0114726D01*
X0076443Y0115021D01*
X0076611Y0115021D01*
X0076611Y0118092D01*
X0076611Y0118092D01*
X0076611Y0115021D01*
X0077373Y0115021D01*
X0077704Y0115110D01*
X0077897Y0115221D01*
X0089413Y0115221D01*
X0089168Y0114976D01*
X0088803Y0114094D01*
X0088803Y0113139D01*
X0089168Y0112257D01*
X0089843Y0111582D01*
X0089877Y0111568D01*
X0089988Y0108539D01*
X0089335Y0107478D01*
X0089262Y0107551D01*
X0088380Y0107917D01*
X0087425Y0107917D01*
X0086543Y0107551D01*
X0085868Y0106876D01*
X0085503Y0105994D01*
X0085503Y0105039D01*
X0085868Y0104157D01*
X0086241Y0103785D01*
X0085803Y0103347D01*
X0085453Y0102997D01*
X0085169Y0102761D01*
X0084183Y0102761D01*
X0084183Y0102825D01*
X0083539Y0103469D01*
X0082514Y0103469D01*
X0082514Y0104428D01*
X0083669Y0104428D01*
X0084313Y0105072D01*
X0084187Y0104946D02*
X0085541Y0104946D01*
X0085789Y0104348D02*
X0082514Y0104348D01*
X0082514Y0103749D02*
X0086206Y0103749D01*
X0085607Y0103151D02*
X0083857Y0103151D01*
X0086396Y0101960D02*
X0087203Y0102767D01*
X0094903Y0102767D01*
X0098103Y0105967D01*
X0100903Y0105967D01*
X0104611Y0102259D01*
X0105003Y0102259D01*
X0105003Y0096459D01*
X0105011Y0096450D01*
X0105011Y0090611D01*
X0105781Y0089841D01*
X0105481Y0082813D01*
X0105781Y0081288D01*
X0108053Y0077707D01*
X0111553Y0077707D01*
X0113203Y0080367D01*
X0113203Y0083324D01*
X0112961Y0082813D01*
X0113203Y0083442D01*
X0113203Y0085867D01*
X0114058Y0086991D02*
X0114666Y0086991D01*
X0114618Y0086943D02*
X0114618Y0086157D01*
X0114603Y0086172D01*
X0114603Y0086447D01*
X0113783Y0087267D01*
X0112623Y0087267D01*
X0111803Y0086447D01*
X0111803Y0086275D01*
X0111423Y0086275D01*
X0111233Y0086085D01*
X0111102Y0086215D01*
X0110806Y0086387D01*
X0110475Y0086475D01*
X0109463Y0086475D01*
X0109463Y0083054D01*
X0108980Y0083054D01*
X0108980Y0086475D01*
X0107967Y0086475D01*
X0107637Y0086387D01*
X0107340Y0086215D01*
X0107210Y0086085D01*
X0107030Y0086265D01*
X0107084Y0087542D01*
X0107435Y0087542D01*
X0108080Y0088187D01*
X0108080Y0088330D01*
X0108130Y0088141D01*
X0108302Y0087844D01*
X0108544Y0087602D01*
X0108840Y0087431D01*
X0109171Y0087342D01*
X0111010Y0087342D01*
X0111010Y0090311D01*
X0111610Y0090311D01*
X0111610Y0087342D01*
X0113450Y0087342D01*
X0113781Y0087431D01*
X0114077Y0087602D01*
X0114319Y0087844D01*
X0114446Y0088065D01*
X0114496Y0087880D01*
X0114667Y0087584D01*
X0114909Y0087342D01*
X0114977Y0087302D01*
X0114618Y0086943D01*
X0114603Y0086392D02*
X0114618Y0086392D01*
X0114664Y0087590D02*
X0114055Y0087590D01*
X0112347Y0086991D02*
X0107061Y0086991D01*
X0107035Y0086392D02*
X0107659Y0086392D01*
X0107482Y0087590D02*
X0108565Y0087590D01*
X0108118Y0088188D02*
X0108080Y0088188D01*
X0108980Y0086392D02*
X0109463Y0086392D01*
X0109463Y0085794D02*
X0108980Y0085794D01*
X0108980Y0085195D02*
X0109463Y0085195D01*
X0109463Y0084597D02*
X0108980Y0084597D01*
X0108980Y0083998D02*
X0109463Y0083998D01*
X0109463Y0083400D02*
X0108980Y0083400D01*
X0109221Y0082813D02*
X0111310Y0085172D01*
X0111310Y0090611D01*
X0111610Y0090582D02*
X0117376Y0090582D01*
X0117376Y0090650D02*
X0117376Y0090050D01*
X0114579Y0090050D01*
X0114579Y0090311D01*
X0111610Y0090311D01*
X0111610Y0090911D01*
X0111010Y0090911D01*
X0111010Y0093879D01*
X0111002Y0093879D01*
X0111002Y0096158D01*
X0111602Y0096158D01*
X0111602Y0093190D01*
X0111610Y0093190D01*
X0111610Y0090911D01*
X0114407Y0090911D01*
X0114407Y0090650D01*
X0117376Y0090650D01*
X0117376Y0093619D01*
X0117372Y0093619D01*
X0117372Y0095896D01*
X0117972Y0095896D01*
X0117972Y0092928D01*
X0117976Y0092928D01*
X0117976Y0090650D01*
X0117376Y0090650D01*
X0117376Y0091181D02*
X0117976Y0091181D01*
X0117976Y0091779D02*
X0117376Y0091779D01*
X0117376Y0092378D02*
X0117976Y0092378D01*
X0117972Y0092976D02*
X0117376Y0092976D01*
X0117376Y0093575D02*
X0117972Y0093575D01*
X0117972Y0094173D02*
X0117372Y0094173D01*
X0117372Y0094772D02*
X0117972Y0094772D01*
X0117972Y0095370D02*
X0117372Y0095370D01*
X0117372Y0095897D02*
X0114571Y0095897D01*
X0114571Y0096159D01*
X0111602Y0096159D01*
X0111602Y0096758D01*
X0114404Y0096758D01*
X0114404Y0096497D01*
X0117372Y0096497D01*
X0117372Y0098757D01*
X0117402Y0098757D01*
X0117402Y0101726D01*
X0114571Y0101726D01*
X0114571Y0101959D01*
X0111602Y0101959D01*
X0111602Y0102558D01*
X0114434Y0102558D01*
X0114434Y0102326D01*
X0117402Y0102326D01*
X0117402Y0101726D01*
X0118002Y0101726D01*
X0118002Y0099465D01*
X0117972Y0099465D01*
X0117972Y0096497D01*
X0117372Y0096497D01*
X0117372Y0095897D01*
X0117372Y0095969D02*
X0114571Y0095969D01*
X0114404Y0096567D02*
X0111602Y0096567D01*
X0111602Y0096759D02*
X0111002Y0096759D01*
X0111002Y0099727D01*
X0111002Y0101958D01*
X0111602Y0101958D01*
X0111602Y0096759D01*
X0111602Y0097166D02*
X0111002Y0097166D01*
X0111002Y0097764D02*
X0111602Y0097764D01*
X0111602Y0098363D02*
X0111002Y0098363D01*
X0111002Y0098961D02*
X0111602Y0098961D01*
X0111602Y0099560D02*
X0111002Y0099560D01*
X0111002Y0100158D02*
X0111602Y0100158D01*
X0111602Y0100757D02*
X0111002Y0100757D01*
X0111002Y0101355D02*
X0111602Y0101355D01*
X0111602Y0101954D02*
X0111002Y0101954D01*
X0111302Y0102259D02*
X0111302Y0103966D01*
X0111002Y0103749D02*
X0111602Y0103749D01*
X0111602Y0103151D02*
X0111002Y0103151D01*
X0111602Y0102552D02*
X0114434Y0102552D01*
X0114571Y0101954D02*
X0117402Y0101954D01*
X0117702Y0102026D02*
X0116203Y0103525D01*
X0116203Y0105267D01*
X0117703Y0107067D01*
X0118002Y0104946D02*
X0117402Y0104946D01*
X0117402Y0104348D02*
X0118002Y0104348D01*
X0118002Y0103749D02*
X0117402Y0103749D01*
X0117402Y0103151D02*
X0118002Y0103151D01*
X0118002Y0102552D02*
X0117402Y0102552D01*
X0117402Y0101355D02*
X0118002Y0101355D01*
X0118002Y0100757D02*
X0117402Y0100757D01*
X0117402Y0100158D02*
X0118002Y0100158D01*
X0118002Y0099560D02*
X0117402Y0099560D01*
X0117402Y0098961D02*
X0117972Y0098961D01*
X0117972Y0098363D02*
X0117372Y0098363D01*
X0117372Y0097764D02*
X0117972Y0097764D01*
X0117972Y0097166D02*
X0117372Y0097166D01*
X0117372Y0096567D02*
X0117972Y0096567D01*
X0123971Y0096197D02*
X0123971Y0090354D01*
X0123975Y0090350D01*
X0123975Y0084529D01*
X0123985Y0084519D01*
X0117686Y0084519D02*
X0114397Y0084519D01*
X0112961Y0082813D01*
X0115144Y0081006D02*
X0117525Y0081006D01*
X0117638Y0080407D02*
X0115144Y0080407D01*
X0114958Y0079809D02*
X0118199Y0079809D01*
X0117686Y0083383D02*
X0117686Y0084519D01*
X0114133Y0079210D02*
X0129284Y0079210D01*
X0129303Y0078612D02*
X0113762Y0078612D01*
X0113391Y0078013D02*
X0129789Y0078013D01*
X0130188Y0077415D02*
X0113019Y0077415D01*
X0112648Y0076816D02*
X0130587Y0076816D01*
X0130986Y0076218D02*
X0111336Y0076218D01*
X0111297Y0076218D02*
X0108319Y0076218D01*
X0108295Y0076218D02*
X0102611Y0076218D01*
X0102611Y0076816D02*
X0106960Y0076816D01*
X0106580Y0077415D02*
X0099249Y0077415D01*
X0099249Y0077665D02*
X0098649Y0077665D01*
X0098649Y0078815D01*
X0098686Y0078815D01*
X0098686Y0081390D01*
X0099286Y0081390D01*
X0099286Y0080240D01*
X0099249Y0080240D01*
X0099249Y0077665D01*
X0099249Y0078013D02*
X0098649Y0078013D01*
X0098649Y0078612D02*
X0099249Y0078612D01*
X0099249Y0079210D02*
X0098686Y0079210D01*
X0098686Y0079809D02*
X0099249Y0079809D01*
X0099286Y0080407D02*
X0098686Y0080407D01*
X0098686Y0081006D02*
X0099286Y0081006D01*
X0099286Y0081604D02*
X0103298Y0081604D01*
X0103298Y0081006D02*
X0102648Y0081006D01*
X0102648Y0080407D02*
X0103298Y0080407D01*
X0103485Y0079809D02*
X0102612Y0079809D01*
X0102585Y0079210D02*
X0105441Y0079210D01*
X0105821Y0078612D02*
X0102611Y0078612D01*
X0102611Y0078013D02*
X0106201Y0078013D01*
X0107438Y0075619D02*
X0111004Y0075619D01*
X0110779Y0075021D02*
X0107664Y0075021D01*
X0107664Y0074422D02*
X0110779Y0074422D01*
X0110779Y0073824D02*
X0107664Y0073824D01*
X0107664Y0073225D02*
X0110779Y0073225D01*
X0110779Y0072627D02*
X0107664Y0072627D01*
X0107664Y0072028D02*
X0110779Y0072028D01*
X0110779Y0071430D02*
X0107664Y0071430D01*
X0107664Y0070831D02*
X0110779Y0070831D01*
X0110779Y0070233D02*
X0107664Y0070233D01*
X0107540Y0069634D02*
X0110903Y0069634D01*
X0111392Y0067240D02*
X0113963Y0067240D01*
X0113963Y0067839D02*
X0106993Y0067839D01*
X0106979Y0068437D02*
X0113963Y0068437D01*
X0113963Y0069036D02*
X0106965Y0069036D01*
X0108764Y0067240D02*
X0109364Y0067240D01*
X0109364Y0066642D02*
X0108764Y0066642D01*
X0108764Y0066043D02*
X0109364Y0066043D01*
X0109364Y0065445D02*
X0108764Y0065445D01*
X0108764Y0064846D02*
X0109364Y0064846D01*
X0109064Y0064022D02*
X0109064Y0058506D01*
X0109203Y0059267D01*
X0107403Y0056667D02*
X0111203Y0056667D01*
X0113403Y0059367D01*
X0131103Y0059367D01*
X0134303Y0062567D01*
X0134303Y0073767D01*
X0130703Y0079167D01*
X0130703Y0080367D01*
X0132303Y0082567D01*
X0132303Y0101967D01*
X0133703Y0103767D01*
X0133703Y0106967D01*
X0133603Y0109867D01*
X0135922Y0110931D02*
X0137401Y0110931D01*
X0137401Y0110333D02*
X0136153Y0110333D01*
X0136153Y0110374D02*
X0135765Y0111311D01*
X0135047Y0112028D01*
X0134110Y0112417D01*
X0133203Y0112417D01*
X0133203Y0131597D01*
X0133254Y0132104D01*
X0133203Y0132166D01*
X0133203Y0132247D01*
X0132842Y0132607D01*
X0132303Y0133266D01*
X0132303Y0133347D01*
X0131942Y0133707D01*
X0131619Y0134102D01*
X0131539Y0134110D01*
X0131530Y0134119D01*
X0131530Y0135390D01*
X0131642Y0135583D01*
X0131730Y0135914D01*
X0131730Y0136675D01*
X0128659Y0136675D01*
X0128659Y0136675D01*
X0131730Y0136675D01*
X0131730Y0137437D01*
X0131642Y0137768D01*
X0131530Y0137961D01*
X0131530Y0139456D01*
X0131740Y0139467D01*
X0132283Y0139467D01*
X0132313Y0139497D01*
X0132356Y0139499D01*
X0132719Y0139903D01*
X0133103Y0140287D01*
X0133103Y0140329D01*
X0134126Y0141467D01*
X0137401Y0141467D01*
X0137401Y0063507D01*
X0135703Y0063328D01*
X0135703Y0073628D01*
X0135789Y0074061D01*
X0135703Y0074191D01*
X0135703Y0074347D01*
X0135391Y0074659D01*
X0132103Y0079591D01*
X0132103Y0079911D01*
X0133370Y0081654D01*
X0133703Y0081987D01*
X0133703Y0082111D01*
X0133776Y0082212D01*
X0133703Y0082677D01*
X0133703Y0101486D01*
X0134754Y0102838D01*
X0135103Y0103187D01*
X0135103Y0103286D01*
X0135164Y0103365D01*
X0135103Y0103854D01*
X0135103Y0106415D01*
X0135122Y0106435D01*
X0135103Y0106991D01*
X0135103Y0107547D01*
X0135083Y0107566D01*
X0135077Y0107735D01*
X0135765Y0108422D01*
X0136153Y0109359D01*
X0136153Y0110374D01*
X0136153Y0109734D02*
X0137401Y0109734D01*
X0137401Y0109136D02*
X0136060Y0109136D01*
X0135812Y0108537D02*
X0137401Y0108537D01*
X0137401Y0107939D02*
X0135281Y0107939D01*
X0135103Y0107340D02*
X0137401Y0107340D01*
X0137401Y0106742D02*
X0135111Y0106742D01*
X0135103Y0106143D02*
X0137401Y0106143D01*
X0137401Y0105545D02*
X0135103Y0105545D01*
X0135103Y0104946D02*
X0137401Y0104946D01*
X0137401Y0104348D02*
X0135103Y0104348D01*
X0135116Y0103749D02*
X0137401Y0103749D01*
X0137401Y0103151D02*
X0135067Y0103151D01*
X0134532Y0102552D02*
X0137401Y0102552D01*
X0137401Y0101954D02*
X0134066Y0101954D01*
X0133703Y0101355D02*
X0137401Y0101355D01*
X0137401Y0100757D02*
X0133703Y0100757D01*
X0133703Y0100158D02*
X0137401Y0100158D01*
X0137401Y0099560D02*
X0133703Y0099560D01*
X0133703Y0098961D02*
X0137401Y0098961D01*
X0137401Y0098363D02*
X0133703Y0098363D01*
X0133703Y0097764D02*
X0137401Y0097764D01*
X0137401Y0097166D02*
X0133703Y0097166D01*
X0133703Y0096567D02*
X0137401Y0096567D01*
X0137401Y0095969D02*
X0133703Y0095969D01*
X0133703Y0095370D02*
X0137401Y0095370D01*
X0137401Y0094772D02*
X0133703Y0094772D01*
X0133703Y0094173D02*
X0137401Y0094173D01*
X0137401Y0093575D02*
X0133703Y0093575D01*
X0133703Y0092976D02*
X0137401Y0092976D01*
X0137401Y0092378D02*
X0133703Y0092378D01*
X0133703Y0091779D02*
X0137401Y0091779D01*
X0137401Y0091181D02*
X0133703Y0091181D01*
X0133703Y0090582D02*
X0137401Y0090582D01*
X0137401Y0089984D02*
X0133703Y0089984D01*
X0133703Y0089385D02*
X0137401Y0089385D01*
X0137401Y0088787D02*
X0133703Y0088787D01*
X0133703Y0088188D02*
X0137401Y0088188D01*
X0137401Y0087590D02*
X0133703Y0087590D01*
X0133703Y0086991D02*
X0137401Y0086991D01*
X0137401Y0086392D02*
X0133703Y0086392D01*
X0133703Y0085794D02*
X0137401Y0085794D01*
X0137401Y0085195D02*
X0133703Y0085195D01*
X0133703Y0084597D02*
X0137401Y0084597D01*
X0137401Y0083998D02*
X0133703Y0083998D01*
X0133703Y0083400D02*
X0137401Y0083400D01*
X0137401Y0082801D02*
X0133703Y0082801D01*
X0133769Y0082203D02*
X0137401Y0082203D01*
X0137401Y0081604D02*
X0133334Y0081604D01*
X0132899Y0081006D02*
X0137401Y0081006D01*
X0137401Y0080407D02*
X0132464Y0080407D01*
X0132103Y0079809D02*
X0137401Y0079809D01*
X0137401Y0079210D02*
X0132356Y0079210D01*
X0132755Y0078612D02*
X0137401Y0078612D01*
X0137401Y0078013D02*
X0133154Y0078013D01*
X0133553Y0077415D02*
X0137401Y0077415D01*
X0137401Y0076816D02*
X0133952Y0076816D01*
X0134351Y0076218D02*
X0137401Y0076218D01*
X0137401Y0075619D02*
X0134750Y0075619D01*
X0135149Y0075021D02*
X0137401Y0075021D01*
X0137401Y0074422D02*
X0135627Y0074422D01*
X0135742Y0073824D02*
X0137401Y0073824D01*
X0137401Y0073225D02*
X0135703Y0073225D01*
X0135703Y0072627D02*
X0137401Y0072627D01*
X0137401Y0072028D02*
X0135703Y0072028D01*
X0135703Y0071430D02*
X0137401Y0071430D01*
X0137401Y0070831D02*
X0135703Y0070831D01*
X0135703Y0070233D02*
X0137401Y0070233D01*
X0137401Y0069634D02*
X0135703Y0069634D01*
X0135703Y0069036D02*
X0137401Y0069036D01*
X0137401Y0068437D02*
X0135703Y0068437D01*
X0135703Y0067839D02*
X0137401Y0067839D01*
X0137401Y0067240D02*
X0135703Y0067240D01*
X0135703Y0066642D02*
X0137401Y0066642D01*
X0137401Y0066043D02*
X0135703Y0066043D01*
X0135703Y0065445D02*
X0137401Y0065445D01*
X0137401Y0064846D02*
X0135703Y0064846D01*
X0135703Y0064248D02*
X0137401Y0064248D01*
X0137401Y0063649D02*
X0135703Y0063649D01*
X0132903Y0063649D02*
X0118432Y0063649D01*
X0118432Y0063051D02*
X0132807Y0063051D01*
X0132208Y0062452D02*
X0118432Y0062452D01*
X0118432Y0061854D02*
X0131610Y0061854D01*
X0131011Y0061255D02*
X0118089Y0061255D01*
X0118432Y0064248D02*
X0132903Y0064248D01*
X0132903Y0064846D02*
X0118432Y0064846D01*
X0118432Y0065445D02*
X0132903Y0065445D01*
X0132903Y0066043D02*
X0118432Y0066043D01*
X0118236Y0066642D02*
X0132903Y0066642D01*
X0132903Y0067240D02*
X0116763Y0067240D01*
X0116763Y0067839D02*
X0132903Y0067839D01*
X0132903Y0068437D02*
X0116763Y0068437D01*
X0116763Y0069036D02*
X0132903Y0069036D01*
X0132903Y0069634D02*
X0116763Y0069634D01*
X0116763Y0070233D02*
X0132903Y0070233D01*
X0132903Y0070831D02*
X0116844Y0070831D01*
X0116763Y0071430D02*
X0132903Y0071430D01*
X0132903Y0072028D02*
X0116424Y0072028D01*
X0115486Y0072627D02*
X0132903Y0072627D01*
X0132903Y0073225D02*
X0115144Y0073225D01*
X0115144Y0073824D02*
X0132582Y0073824D01*
X0132183Y0074422D02*
X0115144Y0074422D01*
X0115144Y0075021D02*
X0131784Y0075021D01*
X0131385Y0075619D02*
X0114919Y0075619D01*
X0112961Y0072576D02*
X0115363Y0071044D01*
X0115363Y0064022D01*
X0112490Y0066642D02*
X0112158Y0066642D01*
X0105781Y0059788D02*
X0107403Y0056667D01*
X0105781Y0059788D02*
X0105481Y0072576D01*
X0102914Y0070278D01*
X0098949Y0070278D01*
X0096983Y0067240D02*
X0104206Y0067240D01*
X0104220Y0066642D02*
X0096983Y0066642D01*
X0096983Y0066043D02*
X0104234Y0066043D01*
X0104248Y0065445D02*
X0096983Y0065445D01*
X0096983Y0064846D02*
X0104262Y0064846D01*
X0104276Y0064248D02*
X0096983Y0064248D01*
X0096983Y0063649D02*
X0104290Y0063649D01*
X0104304Y0063051D02*
X0096983Y0063051D01*
X0096983Y0062452D02*
X0104318Y0062452D01*
X0104332Y0061854D02*
X0096983Y0061854D01*
X0096983Y0061255D02*
X0104346Y0061255D01*
X0104192Y0067839D02*
X0102002Y0067839D01*
X0102411Y0068437D02*
X0104178Y0068437D01*
X0104164Y0069036D02*
X0103651Y0069036D01*
X0102770Y0072028D02*
X0102411Y0072028D01*
X0102093Y0072627D02*
X0103298Y0072627D01*
X0103298Y0073225D02*
X0094614Y0073225D01*
X0094614Y0072627D02*
X0095805Y0072627D01*
X0095487Y0072028D02*
X0094614Y0072028D01*
X0094614Y0071430D02*
X0095487Y0071430D01*
X0095487Y0070831D02*
X0094545Y0070831D01*
X0094125Y0070233D02*
X0095487Y0070233D01*
X0095487Y0069634D02*
X0069670Y0069634D01*
X0070138Y0070233D02*
X0082550Y0070233D01*
X0081978Y0070831D02*
X0070458Y0070831D01*
X0070666Y0071430D02*
X0081978Y0071430D01*
X0081978Y0072028D02*
X0070781Y0072028D01*
X0070759Y0073225D02*
X0081978Y0073225D01*
X0081978Y0072627D02*
X0063812Y0072627D01*
X0063811Y0073225D02*
X0063211Y0073225D01*
X0063211Y0073824D02*
X0063811Y0073824D01*
X0063811Y0074422D02*
X0063211Y0074422D01*
X0063211Y0075021D02*
X0063811Y0075021D01*
X0063811Y0075619D02*
X0063211Y0075619D01*
X0063211Y0076218D02*
X0063811Y0076218D01*
X0063811Y0076816D02*
X0063211Y0076816D01*
X0061005Y0077415D02*
X0083364Y0077415D01*
X0083402Y0078013D02*
X0061005Y0078013D01*
X0063211Y0072028D02*
X0063811Y0072028D01*
X0063811Y0071430D02*
X0063211Y0071430D01*
X0063211Y0070831D02*
X0063811Y0070831D01*
X0063811Y0070233D02*
X0063211Y0070233D01*
X0063211Y0069634D02*
X0063811Y0069634D01*
X0063811Y0069036D02*
X0063211Y0069036D01*
X0063211Y0068437D02*
X0063811Y0068437D01*
X0061005Y0067839D02*
X0095896Y0067839D01*
X0095487Y0068437D02*
X0067747Y0068437D01*
X0068980Y0069036D02*
X0095487Y0069036D01*
X0092039Y0070233D02*
X0091439Y0070233D01*
X0091439Y0070831D02*
X0092039Y0070831D01*
X0092039Y0071430D02*
X0091439Y0071430D01*
X0091439Y0072028D02*
X0092039Y0072028D01*
X0092039Y0072627D02*
X0091439Y0072627D01*
X0091439Y0073225D02*
X0092039Y0073225D01*
X0091739Y0073623D02*
X0091559Y0073803D01*
X0091559Y0078725D01*
X0089594Y0079781D01*
X0089835Y0080023D02*
X0089352Y0080023D01*
X0089352Y0083443D01*
X0088340Y0083443D01*
X0088009Y0083355D01*
X0087713Y0083184D01*
X0087582Y0083053D01*
X0087476Y0083160D01*
X0087783Y0083467D01*
X0091754Y0083467D01*
X0091934Y0083287D01*
X0091934Y0083243D01*
X0091796Y0083243D01*
X0091605Y0083053D01*
X0091475Y0083184D01*
X0091178Y0083355D01*
X0090848Y0083443D01*
X0089835Y0083443D01*
X0089835Y0080023D01*
X0089835Y0080407D02*
X0089352Y0080407D01*
X0089352Y0081006D02*
X0089835Y0081006D01*
X0089835Y0081604D02*
X0089352Y0081604D01*
X0089352Y0082203D02*
X0089835Y0082203D01*
X0089835Y0082801D02*
X0089352Y0082801D01*
X0089352Y0083400D02*
X0089835Y0083400D01*
X0091009Y0083400D02*
X0091821Y0083400D01*
X0092334Y0084867D02*
X0093334Y0083867D01*
X0093334Y0084998D01*
X0095453Y0087117D01*
X0095453Y0091117D01*
X0096703Y0092367D01*
X0098303Y0092367D01*
X0098703Y0092767D01*
X0098703Y0103267D01*
X0096898Y0106742D02*
X0092170Y0106742D01*
X0091802Y0106143D02*
X0096300Y0106143D01*
X0095701Y0105545D02*
X0091433Y0105545D01*
X0091144Y0104946D02*
X0095103Y0104946D01*
X0094504Y0104348D02*
X0090697Y0104348D01*
X0091196Y0101355D02*
X0088671Y0101355D01*
X0088671Y0100757D02*
X0091196Y0100757D01*
X0091196Y0100158D02*
X0088671Y0100158D01*
X0088671Y0099560D02*
X0091196Y0099560D01*
X0091196Y0098961D02*
X0088671Y0098961D01*
X0088671Y0098363D02*
X0091196Y0098363D01*
X0091196Y0097764D02*
X0088671Y0097764D01*
X0088671Y0097166D02*
X0091196Y0097166D01*
X0091196Y0096567D02*
X0088671Y0096567D01*
X0088671Y0095969D02*
X0091196Y0095969D01*
X0091196Y0095370D02*
X0088671Y0095370D01*
X0088671Y0094772D02*
X0091196Y0094772D01*
X0091196Y0094173D02*
X0088671Y0094173D01*
X0088671Y0093575D02*
X0091196Y0093575D01*
X0091291Y0092976D02*
X0088316Y0092976D01*
X0088036Y0092378D02*
X0091151Y0092378D01*
X0091151Y0091779D02*
X0088036Y0091779D01*
X0088036Y0091181D02*
X0091151Y0091181D01*
X0091151Y0090582D02*
X0088036Y0090582D01*
X0088036Y0089984D02*
X0091151Y0089984D01*
X0091151Y0089385D02*
X0088036Y0089385D01*
X0088036Y0088787D02*
X0091151Y0088787D01*
X0091151Y0088188D02*
X0088036Y0088188D01*
X0088036Y0087590D02*
X0091151Y0087590D01*
X0091360Y0086991D02*
X0087827Y0086991D01*
X0086150Y0085794D02*
X0069073Y0085794D01*
X0069671Y0085195D02*
X0085552Y0085195D01*
X0084953Y0084597D02*
X0070104Y0084597D01*
X0070352Y0083998D02*
X0084454Y0083998D01*
X0084454Y0083400D02*
X0070600Y0083400D01*
X0070611Y0082801D02*
X0083873Y0082801D01*
X0083671Y0082203D02*
X0070611Y0082203D01*
X0070555Y0081604D02*
X0083671Y0081604D01*
X0083671Y0081006D02*
X0070307Y0081006D01*
X0070059Y0080407D02*
X0083671Y0080407D01*
X0083671Y0079809D02*
X0069562Y0079809D01*
X0068963Y0079210D02*
X0083454Y0079210D01*
X0083440Y0078612D02*
X0067701Y0078612D01*
X0067107Y0076816D02*
X0082354Y0076816D01*
X0081978Y0076218D02*
X0068788Y0076218D01*
X0069530Y0075619D02*
X0081978Y0075619D01*
X0081978Y0075021D02*
X0070037Y0075021D01*
X0070387Y0074422D02*
X0081978Y0074422D01*
X0081978Y0073824D02*
X0070621Y0073824D01*
X0067966Y0086392D02*
X0092749Y0086392D01*
X0092334Y0084867D02*
X0087203Y0084867D01*
X0085854Y0083517D01*
X0085854Y0079781D01*
X0084854Y0078781D01*
X0084644Y0075462D01*
X0084653Y0073623D01*
X0087328Y0073824D02*
X0091439Y0073824D01*
X0091739Y0073623D02*
X0095388Y0073623D01*
X0095444Y0073567D01*
X0095673Y0073777D01*
X0098949Y0076613D01*
X0098949Y0077365D01*
X0099249Y0077065D02*
X0099249Y0074490D01*
X0101482Y0074490D01*
X0101813Y0074579D01*
X0102109Y0074750D01*
X0102351Y0074992D01*
X0102523Y0075288D01*
X0102611Y0075619D01*
X0102611Y0077065D01*
X0099249Y0077065D01*
X0099249Y0076816D02*
X0098649Y0076816D01*
X0098649Y0076218D02*
X0099249Y0076218D01*
X0099249Y0075619D02*
X0098649Y0075619D01*
X0098649Y0075021D02*
X0099249Y0075021D01*
X0102368Y0075021D02*
X0103298Y0075021D01*
X0103298Y0074422D02*
X0094614Y0074422D01*
X0094614Y0075021D02*
X0095530Y0075021D01*
X0095287Y0075619D02*
X0094614Y0075619D01*
X0094598Y0076218D02*
X0095287Y0076218D01*
X0093334Y0079781D02*
X0093334Y0083867D01*
X0094734Y0083998D02*
X0095546Y0083998D01*
X0095324Y0083400D02*
X0094734Y0083400D01*
X0095314Y0082801D02*
X0095324Y0082801D01*
X0094913Y0084597D02*
X0103298Y0084597D01*
X0103298Y0085195D02*
X0095512Y0085195D01*
X0096110Y0085794D02*
X0103462Y0085794D01*
X0104233Y0086392D02*
X0102094Y0086392D01*
X0102448Y0086991D02*
X0104258Y0086991D01*
X0103177Y0088777D02*
X0105011Y0090611D01*
X0103177Y0088777D02*
X0098986Y0088777D01*
X0098686Y0083998D02*
X0099286Y0083998D01*
X0099286Y0083400D02*
X0098686Y0083400D01*
X0098686Y0082801D02*
X0099286Y0082801D01*
X0099286Y0082203D02*
X0098686Y0082203D01*
X0102648Y0082203D02*
X0103298Y0082203D01*
X0103298Y0082801D02*
X0102648Y0082801D01*
X0102648Y0083400D02*
X0103298Y0083400D01*
X0103298Y0083998D02*
X0102425Y0083998D01*
X0108980Y0082572D02*
X0108980Y0079151D01*
X0108795Y0079151D01*
X0108823Y0079107D01*
X0110774Y0079107D01*
X0110884Y0079285D01*
X0110806Y0079239D01*
X0110475Y0079151D01*
X0109463Y0079151D01*
X0109463Y0082572D01*
X0108980Y0082572D01*
X0108980Y0082203D02*
X0109463Y0082203D01*
X0109463Y0081604D02*
X0108980Y0081604D01*
X0108980Y0081006D02*
X0109463Y0081006D01*
X0109463Y0080407D02*
X0108980Y0080407D01*
X0108980Y0079809D02*
X0109463Y0079809D01*
X0109463Y0079210D02*
X0108980Y0079210D01*
X0110697Y0079210D02*
X0110838Y0079210D01*
X0110784Y0086392D02*
X0111803Y0086392D01*
X0111610Y0087590D02*
X0111010Y0087590D01*
X0111010Y0088188D02*
X0111610Y0088188D01*
X0111610Y0088787D02*
X0111010Y0088787D01*
X0111010Y0089385D02*
X0111610Y0089385D01*
X0111610Y0089984D02*
X0111010Y0089984D01*
X0111010Y0091181D02*
X0111610Y0091181D01*
X0111610Y0091779D02*
X0111010Y0091779D01*
X0111010Y0092378D02*
X0111610Y0092378D01*
X0111610Y0092976D02*
X0111010Y0092976D01*
X0111010Y0093575D02*
X0111602Y0093575D01*
X0111602Y0094173D02*
X0111002Y0094173D01*
X0111002Y0094772D02*
X0111602Y0094772D01*
X0111602Y0095370D02*
X0111002Y0095370D01*
X0111002Y0095969D02*
X0111602Y0095969D01*
X0111602Y0104348D02*
X0111002Y0104348D01*
X0111002Y0104946D02*
X0111602Y0104946D01*
X0108248Y0104946D02*
X0107808Y0104946D01*
X0114356Y0104946D02*
X0114848Y0104946D01*
X0120557Y0104946D02*
X0121430Y0104946D01*
X0120933Y0104348D02*
X0120922Y0104348D01*
X0123971Y0096197D02*
X0128103Y0096367D01*
X0129873Y0099097D01*
X0129903Y0104667D01*
X0129803Y0110867D02*
X0131803Y0112867D01*
X0131803Y0131667D01*
X0130903Y0132767D01*
X0128830Y0132767D01*
X0128659Y0132738D01*
X0128659Y0134707D01*
X0128967Y0136367D02*
X0128659Y0136675D01*
X0128967Y0136367D02*
X0132703Y0136367D01*
X0132803Y0136467D01*
X0131730Y0136667D02*
X0137401Y0136667D01*
X0137401Y0136069D02*
X0131730Y0136069D01*
X0131577Y0135470D02*
X0137401Y0135470D01*
X0137401Y0134872D02*
X0131530Y0134872D01*
X0131530Y0134273D02*
X0137401Y0134273D01*
X0137401Y0133675D02*
X0131975Y0133675D01*
X0132458Y0133076D02*
X0137401Y0133076D01*
X0137401Y0132478D02*
X0132972Y0132478D01*
X0133231Y0131879D02*
X0137401Y0131879D01*
X0137401Y0131281D02*
X0133203Y0131281D01*
X0133203Y0130682D02*
X0137401Y0130682D01*
X0137401Y0130084D02*
X0133203Y0130084D01*
X0133203Y0129485D02*
X0137401Y0129485D01*
X0137401Y0128887D02*
X0133203Y0128887D01*
X0133203Y0128288D02*
X0137401Y0128288D01*
X0137401Y0127690D02*
X0133203Y0127690D01*
X0133203Y0127091D02*
X0137401Y0127091D01*
X0137401Y0126493D02*
X0133203Y0126493D01*
X0133203Y0125894D02*
X0137401Y0125894D01*
X0137401Y0125296D02*
X0133203Y0125296D01*
X0133203Y0124697D02*
X0137401Y0124697D01*
X0137401Y0124099D02*
X0133203Y0124099D01*
X0133203Y0123500D02*
X0137401Y0123500D01*
X0137401Y0122902D02*
X0133203Y0122902D01*
X0133203Y0122303D02*
X0137401Y0122303D01*
X0137401Y0121705D02*
X0133203Y0121705D01*
X0133203Y0121106D02*
X0137401Y0121106D01*
X0137401Y0120508D02*
X0133203Y0120508D01*
X0133203Y0119909D02*
X0137401Y0119909D01*
X0137401Y0119311D02*
X0133203Y0119311D01*
X0133203Y0118712D02*
X0137401Y0118712D01*
X0137401Y0118114D02*
X0133203Y0118114D01*
X0133203Y0117515D02*
X0137401Y0117515D01*
X0137401Y0116917D02*
X0133203Y0116917D01*
X0133203Y0116318D02*
X0137401Y0116318D01*
X0137401Y0115720D02*
X0133203Y0115720D01*
X0133203Y0115121D02*
X0137401Y0115121D01*
X0137401Y0114523D02*
X0133203Y0114523D01*
X0133203Y0113924D02*
X0137401Y0113924D01*
X0137401Y0113325D02*
X0133203Y0113325D01*
X0133203Y0112727D02*
X0137401Y0112727D01*
X0137401Y0112128D02*
X0134806Y0112128D01*
X0135546Y0111530D02*
X0137401Y0111530D01*
X0130403Y0113924D02*
X0122625Y0113924D01*
X0122027Y0114523D02*
X0130403Y0114523D01*
X0130403Y0115121D02*
X0122999Y0115121D01*
X0123631Y0115720D02*
X0130403Y0115720D01*
X0130403Y0116318D02*
X0123777Y0116318D01*
X0123777Y0116917D02*
X0130403Y0116917D01*
X0130403Y0117515D02*
X0123777Y0117515D01*
X0123777Y0118093D02*
X0121887Y0118093D01*
X0123777Y0118093D01*
X0123777Y0118114D02*
X0130403Y0118114D01*
X0130403Y0118712D02*
X0123777Y0118712D01*
X0123777Y0119311D02*
X0130403Y0119311D01*
X0130403Y0119909D02*
X0123777Y0119909D01*
X0121961Y0118167D02*
X0121887Y0118093D01*
X0121887Y0118093D01*
X0121887Y0117983D01*
X0121887Y0118092D02*
X0121887Y0115021D01*
X0121887Y0118092D01*
X0121887Y0118092D01*
X0121887Y0118114D02*
X0121887Y0118114D01*
X0121887Y0117515D02*
X0121887Y0117515D01*
X0121887Y0116917D02*
X0121887Y0116917D01*
X0121887Y0116318D02*
X0121887Y0116318D01*
X0121887Y0115720D02*
X0121887Y0115720D01*
X0121887Y0115121D02*
X0121887Y0115121D01*
X0123224Y0113325D02*
X0129076Y0113325D01*
X0128057Y0112727D02*
X0123822Y0112727D01*
X0118203Y0118346D02*
X0117950Y0118093D01*
X0119603Y0121106D02*
X0120908Y0121106D01*
X0119603Y0121705D02*
X0130403Y0121705D01*
X0130403Y0122303D02*
X0119603Y0122303D01*
X0119603Y0122902D02*
X0130403Y0122902D01*
X0131730Y0137266D02*
X0137401Y0137266D01*
X0137401Y0137864D02*
X0131586Y0137864D01*
X0131530Y0138463D02*
X0137401Y0138463D01*
X0137401Y0139061D02*
X0131530Y0139061D01*
X0132500Y0139660D02*
X0137401Y0139660D01*
X0137401Y0140259D02*
X0133075Y0140259D01*
X0133578Y0140857D02*
X0137401Y0140857D01*
X0137401Y0141456D02*
X0134116Y0141456D01*
X0133503Y0142867D02*
X0131703Y0140867D01*
X0128913Y0140867D01*
X0128659Y0140612D01*
X0128659Y0142581D02*
X0128944Y0142867D01*
X0131703Y0142867D01*
X0133303Y0143867D01*
X0139303Y0143867D01*
X0140203Y0145367D01*
X0140203Y0172867D01*
X0128503Y0184967D01*
X0126503Y0184967D01*
X0125858Y0187384D01*
X0124903Y0185167D02*
X0126203Y0183867D01*
X0128203Y0183867D01*
X0129003Y0183067D01*
X0139203Y0172367D01*
X0139203Y0146067D01*
X0138403Y0144867D01*
X0128976Y0144867D01*
X0128659Y0144549D01*
X0128659Y0146518D02*
X0129007Y0146867D01*
X0134203Y0146867D01*
X0135953Y0148117D01*
X0133323Y0148486D02*
X0137703Y0152867D01*
X0137703Y0169367D01*
X0136703Y0171667D01*
X0136203Y0169367D02*
X0134103Y0170767D01*
X0134103Y0172767D01*
X0134703Y0173367D01*
X0134903Y0175467D01*
X0127903Y0182867D01*
X0127803Y0182967D01*
X0126103Y0182967D01*
X0124703Y0181367D01*
X0122103Y0181367D01*
X0121103Y0182367D01*
X0121103Y0184567D01*
X0119303Y0186767D01*
X0119303Y0203367D01*
X0116103Y0205167D01*
X0098603Y0205167D01*
X0095703Y0209867D01*
X0095703Y0213100D01*
X0094998Y0214715D01*
X0094088Y0215210D01*
X0100366Y0221487D01*
X0099474Y0218616D02*
X0102790Y0218616D01*
X0103434Y0219260D01*
X0103434Y0223715D01*
X0102790Y0224359D01*
X0097941Y0224359D01*
X0097664Y0224081D01*
X0097469Y0224194D01*
X0097138Y0224282D01*
X0095298Y0224282D01*
X0095298Y0221314D01*
X0094698Y0221314D01*
X0094698Y0220714D01*
X0091730Y0220714D01*
X0091730Y0218874D01*
X0091818Y0218544D01*
X0091990Y0218247D01*
X0092232Y0218005D01*
X0092528Y0217834D01*
X0092718Y0217783D01*
X0092574Y0217783D01*
X0091930Y0217139D01*
X0091930Y0212291D01*
X0092574Y0211646D01*
X0094303Y0211646D01*
X0094303Y0210030D01*
X0094207Y0209625D01*
X0094303Y0209469D01*
X0094303Y0209287D01*
X0094597Y0208992D01*
X0097203Y0204770D01*
X0097203Y0204587D01*
X0097497Y0204292D01*
X0097716Y0203938D01*
X0097894Y0203896D01*
X0098023Y0203767D01*
X0098439Y0203767D01*
X0098845Y0203671D01*
X0099000Y0203767D01*
X0115736Y0203767D01*
X0117903Y0202548D01*
X0117903Y0186836D01*
X0117852Y0186329D01*
X0117903Y0186267D01*
X0117903Y0186192D01*
X0117443Y0186001D01*
X0116768Y0185326D01*
X0116403Y0184444D01*
X0116403Y0183489D01*
X0116768Y0182607D01*
X0117443Y0181932D01*
X0117879Y0181752D01*
X0117115Y0181752D01*
X0116874Y0181975D01*
X0115303Y0183547D01*
X0115303Y0183673D01*
X0115937Y0184307D01*
X0116303Y0185189D01*
X0116303Y0186144D01*
X0115937Y0187026D01*
X0115669Y0187295D01*
X0116107Y0187733D01*
X0116107Y0191400D01*
X0115462Y0192044D01*
X0112779Y0192044D01*
X0112546Y0191811D01*
X0112313Y0192044D01*
X0109630Y0192044D01*
X0109396Y0191811D01*
X0109163Y0192044D01*
X0106480Y0192044D01*
X0106247Y0191811D01*
X0106014Y0192044D01*
X0103331Y0192044D01*
X0102686Y0191400D01*
X0102686Y0190966D01*
X0101133Y0190966D01*
X0101133Y0192748D01*
X0100488Y0193392D01*
X0100345Y0193392D01*
X0100535Y0193443D01*
X0100831Y0193614D01*
X0101073Y0193856D01*
X0101244Y0194153D01*
X0101275Y0194269D01*
X0102686Y0194269D01*
X0102686Y0193835D01*
X0103331Y0193191D01*
X0106014Y0193191D01*
X0106105Y0193283D01*
X0106138Y0193250D01*
X0106434Y0193079D01*
X0106765Y0192991D01*
X0107679Y0192991D01*
X0107679Y0195526D01*
X0107965Y0195526D01*
X0107965Y0192991D01*
X0108879Y0192991D01*
X0109209Y0193079D01*
X0109506Y0193250D01*
X0109538Y0193283D01*
X0109630Y0193191D01*
X0112313Y0193191D01*
X0112546Y0193424D01*
X0112779Y0193191D01*
X0115462Y0193191D01*
X0116107Y0193835D01*
X0116107Y0197502D01*
X0115462Y0198147D01*
X0112779Y0198147D01*
X0112546Y0197913D01*
X0112313Y0198147D01*
X0109630Y0198147D01*
X0109538Y0198055D01*
X0109506Y0198087D01*
X0109209Y0198258D01*
X0108879Y0198347D01*
X0107965Y0198347D01*
X0107965Y0195812D01*
X0107679Y0195812D01*
X0107679Y0198347D01*
X0107077Y0198347D01*
X0107237Y0198507D01*
X0107603Y0199389D01*
X0107603Y0200344D01*
X0107237Y0201226D01*
X0106562Y0201901D01*
X0105680Y0202267D01*
X0104725Y0202267D01*
X0103843Y0201901D01*
X0103168Y0201226D01*
X0102803Y0200344D01*
X0102803Y0199389D01*
X0103168Y0198507D01*
X0103272Y0198403D01*
X0103272Y0198088D01*
X0102686Y0197502D01*
X0102686Y0197069D01*
X0101333Y0197069D01*
X0101333Y0198763D01*
X0101244Y0199093D01*
X0101073Y0199390D01*
X0100831Y0199632D01*
X0100535Y0199803D01*
X0100204Y0199892D01*
X0098364Y0199892D01*
X0098364Y0197069D01*
X0097764Y0197069D01*
X0097764Y0199892D01*
X0095925Y0199892D01*
X0095594Y0199803D01*
X0095298Y0199632D01*
X0095055Y0199390D01*
X0094884Y0199093D01*
X0094796Y0198763D01*
X0094796Y0197069D01*
X0094661Y0197069D01*
X0094118Y0197074D01*
X0094118Y0197525D01*
X0093473Y0198169D01*
X0093103Y0198169D01*
X0093103Y0206414D01*
X0093143Y0206939D01*
X0093103Y0206986D01*
X0093103Y0207047D01*
X0092730Y0207419D01*
X0088556Y0212276D01*
X0088603Y0212389D01*
X0088603Y0213344D01*
X0088237Y0214226D01*
X0087562Y0214901D01*
X0086680Y0215267D01*
X0085851Y0215267D01*
X0085193Y0215958D01*
X0084980Y0221983D01*
X0087048Y0221983D01*
X0087692Y0222627D01*
X0087692Y0229050D01*
X0087048Y0229694D01*
X0079837Y0229694D01*
X0079193Y0229050D01*
X0079193Y0222627D01*
X0079837Y0221983D01*
X0082178Y0221983D01*
X0082412Y0215370D01*
X0082398Y0214832D01*
X0082432Y0214797D01*
X0082434Y0214748D01*
X0082827Y0214382D01*
X0083807Y0213353D01*
X0083803Y0213344D01*
X0083803Y0212389D01*
X0084168Y0211507D01*
X0084765Y0210910D01*
X0084743Y0210901D01*
X0084068Y0210226D01*
X0083703Y0209344D01*
X0083703Y0208389D01*
X0083730Y0208323D01*
X0083321Y0207467D01*
X0073777Y0207467D01*
X0076055Y0209867D01*
X0076880Y0209867D01*
X0077762Y0210232D01*
X0078437Y0210907D01*
X0078803Y0211789D01*
X0078803Y0212744D01*
X0078437Y0213626D01*
X0077762Y0214301D01*
X0076880Y0214667D01*
X0075925Y0214667D01*
X0075043Y0214301D01*
X0074368Y0213626D01*
X0074003Y0212744D01*
X0074003Y0211789D01*
X0074008Y0211777D01*
X0069794Y0207337D01*
X0062107Y0199450D01*
X0061703Y0199047D01*
X0061703Y0199036D01*
X0061696Y0199029D01*
X0061703Y0198458D01*
X0061703Y0195580D01*
X0061692Y0195014D01*
X0061703Y0195003D01*
X0061703Y0194987D01*
X0062103Y0194586D01*
X0063203Y0193443D01*
X0063203Y0192489D01*
X0063568Y0191607D01*
X0064243Y0190932D01*
X0064757Y0190719D01*
X0064606Y0190550D01*
X0064225Y0190169D01*
X0064225Y0190121D01*
X0063806Y0189650D01*
X0061703Y0187547D01*
X0061703Y0177816D01*
X0061005Y0177065D01*
X0061005Y0244978D01*
X0063560Y0244710D01*
X0066804Y0245764D01*
X0069338Y0248046D01*
X0070726Y0251161D01*
X0070726Y0254065D01*
X0091497Y0254065D01*
X0091497Y0249815D01*
X0083623Y0249815D01*
X0082043Y0249160D01*
X0080833Y0247951D01*
X0080178Y0246370D01*
X0080178Y0244660D01*
X0080833Y0243079D01*
X0082043Y0241870D01*
X0083623Y0241215D01*
X0096022Y0241215D01*
X0097610Y0241873D01*
X0097613Y0241870D01*
X0098380Y0241552D01*
X0099141Y0241226D01*
X0099169Y0241225D01*
X0099194Y0241215D01*
X0100023Y0241215D01*
X0100852Y0241205D01*
X0100877Y0241215D01*
X0107753Y0241215D01*
X0107753Y0241109D01*
X0108141Y0240172D01*
X0108858Y0239455D01*
X0109796Y0239067D01*
X0110810Y0239067D01*
X0111747Y0239455D01*
X0112459Y0240167D01*
X0113033Y0240167D01*
X0113033Y0239463D01*
X0113733Y0237773D01*
X0115027Y0236479D01*
X0116718Y0235778D01*
X0118548Y0235778D01*
X0120238Y0236479D01*
X0121532Y0237773D01*
X0122233Y0239463D01*
X0122233Y0240157D01*
X0122916Y0239473D01*
X0122951Y0239254D01*
X0123184Y0238536D01*
X0123527Y0237863D01*
X0123972Y0237251D01*
X0124506Y0236717D01*
X0125117Y0236273D01*
X0125790Y0235930D01*
X0126509Y0235697D01*
X0126728Y0235662D01*
X0127103Y0235287D01*
X0127103Y0229047D01*
X0127058Y0229028D01*
X0126341Y0228311D01*
X0125953Y0227374D01*
X0125953Y0226359D01*
X0126341Y0225422D01*
X0127058Y0224705D01*
X0127996Y0224317D01*
X0129010Y0224317D01*
X0129947Y0224705D01*
X0130665Y0225422D01*
X0131053Y0226359D01*
X0131053Y0227374D01*
X0130665Y0228311D01*
X0129947Y0229028D01*
X0129903Y0229047D01*
X0129903Y0236148D01*
X0130148Y0236273D01*
X0130760Y0236717D01*
X0131294Y0237251D01*
X0131738Y0237863D01*
X0132081Y0238536D01*
X0132315Y0239254D01*
X0132433Y0240001D01*
X0132433Y0240078D01*
X0127933Y0240078D01*
X0127933Y0240678D01*
X0132433Y0240678D01*
X0132433Y0240756D01*
X0132360Y0241215D01*
X0137401Y0241215D01*
X0137401Y0215767D01*
X0118219Y0215767D01*
X0118219Y0217207D01*
X0117575Y0217851D01*
X0117431Y0217851D01*
X0117621Y0217902D01*
X0117918Y0218073D01*
X0118160Y0218315D01*
X0118331Y0218611D01*
X0118419Y0218942D01*
X0118419Y0220782D01*
X0115451Y0220782D01*
X0115451Y0221382D01*
X0114851Y0221382D01*
X0114851Y0224350D01*
X0113011Y0224350D01*
X0112681Y0224261D01*
X0112384Y0224090D01*
X0112142Y0223848D01*
X0111971Y0223552D01*
X0111882Y0223221D01*
X0111882Y0221382D01*
X0114851Y0221382D01*
X0114851Y0220782D01*
X0111882Y0220782D01*
X0111882Y0218942D01*
X0111971Y0218611D01*
X0112142Y0218315D01*
X0112384Y0218073D01*
X0112681Y0217902D01*
X0112870Y0217851D01*
X0112727Y0217851D01*
X0112082Y0217207D01*
X0112082Y0216182D01*
X0110718Y0216182D01*
X0110718Y0217612D01*
X0110073Y0218257D01*
X0106398Y0218257D01*
X0106757Y0218616D01*
X0110073Y0218616D01*
X0110718Y0219260D01*
X0110718Y0223715D01*
X0110073Y0224359D01*
X0105225Y0224359D01*
X0104581Y0223715D01*
X0104581Y0220399D01*
X0102438Y0218257D01*
X0099115Y0218257D01*
X0099474Y0218616D01*
X0100366Y0215385D02*
X0101547Y0215385D01*
X0107649Y0221487D01*
X0104581Y0221656D02*
X0103434Y0221656D01*
X0103434Y0221058D02*
X0104581Y0221058D01*
X0104581Y0220459D02*
X0103434Y0220459D01*
X0103434Y0219861D02*
X0104042Y0219861D01*
X0103444Y0219262D02*
X0103434Y0219262D01*
X0102845Y0218663D02*
X0102838Y0218663D01*
X0103434Y0222255D02*
X0104581Y0222255D01*
X0104581Y0222853D02*
X0103434Y0222853D01*
X0103434Y0223452D02*
X0104581Y0223452D01*
X0104916Y0224050D02*
X0103099Y0224050D01*
X0102534Y0225247D02*
X0126516Y0225247D01*
X0126166Y0225846D02*
X0103638Y0225846D01*
X0103397Y0225605D02*
X0104115Y0226322D01*
X0104503Y0227259D01*
X0104503Y0228274D01*
X0104115Y0229211D01*
X0103397Y0229928D01*
X0102460Y0230317D01*
X0101446Y0230317D01*
X0100508Y0229928D01*
X0099791Y0229211D01*
X0099788Y0229204D01*
X0096882Y0229255D01*
X0093973Y0232861D01*
X0093973Y0232947D01*
X0093616Y0233304D01*
X0093298Y0233697D01*
X0093213Y0233706D01*
X0093153Y0233767D01*
X0092648Y0233767D01*
X0092145Y0233820D01*
X0092079Y0233767D01*
X0087847Y0233767D01*
X0087892Y0233935D01*
X0087892Y0236562D01*
X0083742Y0236562D01*
X0083742Y0237162D01*
X0083142Y0237162D01*
X0083142Y0236562D01*
X0078993Y0236562D01*
X0078993Y0233935D01*
X0079038Y0233767D01*
X0078993Y0233767D01*
X0078665Y0233438D01*
X0075793Y0231386D01*
X0075380Y0231557D01*
X0074366Y0231557D01*
X0073428Y0231168D01*
X0072711Y0230451D01*
X0072323Y0229514D01*
X0072323Y0228499D01*
X0072711Y0227562D01*
X0073428Y0226845D01*
X0074366Y0226457D01*
X0075380Y0226457D01*
X0076317Y0226845D01*
X0077035Y0227562D01*
X0077423Y0228499D01*
X0077423Y0229109D01*
X0080022Y0230967D01*
X0091904Y0230967D01*
X0094794Y0227383D01*
X0094793Y0227311D01*
X0095152Y0226939D01*
X0095477Y0226536D01*
X0095549Y0226529D01*
X0095599Y0226477D01*
X0096116Y0226468D01*
X0096631Y0226413D01*
X0096686Y0226458D01*
X0099757Y0226405D01*
X0099791Y0226322D01*
X0100508Y0225605D01*
X0101446Y0225217D01*
X0102460Y0225217D01*
X0103397Y0225605D01*
X0104165Y0226444D02*
X0125953Y0226444D01*
X0125953Y0227043D02*
X0104413Y0227043D01*
X0104503Y0227641D02*
X0126064Y0227641D01*
X0126312Y0228240D02*
X0104503Y0228240D01*
X0104269Y0228838D02*
X0126868Y0228838D01*
X0127103Y0229437D02*
X0103889Y0229437D01*
X0103140Y0230035D02*
X0127103Y0230035D01*
X0127103Y0230634D02*
X0095769Y0230634D01*
X0095287Y0231232D02*
X0127103Y0231232D01*
X0127103Y0231831D02*
X0094804Y0231831D01*
X0094321Y0232429D02*
X0127103Y0232429D01*
X0127103Y0233028D02*
X0093892Y0233028D01*
X0093356Y0233626D02*
X0127103Y0233626D01*
X0127103Y0234225D02*
X0087892Y0234225D01*
X0087892Y0234823D02*
X0127103Y0234823D01*
X0126968Y0235422D02*
X0087892Y0235422D01*
X0087892Y0236020D02*
X0116134Y0236020D01*
X0114887Y0236619D02*
X0083742Y0236619D01*
X0083442Y0236862D02*
X0086357Y0237942D01*
X0089537Y0237942D01*
X0091103Y0236377D01*
X0092573Y0232367D02*
X0079573Y0232367D01*
X0074873Y0229007D01*
X0072539Y0230035D02*
X0061005Y0230035D01*
X0061005Y0229437D02*
X0072323Y0229437D01*
X0072323Y0228838D02*
X0061005Y0228838D01*
X0061005Y0228240D02*
X0072430Y0228240D01*
X0072678Y0227641D02*
X0061005Y0227641D01*
X0061005Y0227043D02*
X0073231Y0227043D01*
X0072894Y0230634D02*
X0061005Y0230634D01*
X0061005Y0231232D02*
X0073582Y0231232D01*
X0076416Y0231831D02*
X0061005Y0231831D01*
X0061005Y0232429D02*
X0077253Y0232429D01*
X0078090Y0233028D02*
X0061005Y0233028D01*
X0061005Y0233626D02*
X0078853Y0233626D01*
X0078993Y0234225D02*
X0061005Y0234225D01*
X0061005Y0234823D02*
X0078993Y0234823D01*
X0078993Y0235422D02*
X0061005Y0235422D01*
X0061005Y0236020D02*
X0078993Y0236020D01*
X0078993Y0237162D02*
X0083142Y0237162D01*
X0083142Y0240918D01*
X0080122Y0240918D01*
X0079791Y0240829D01*
X0079494Y0240658D01*
X0079252Y0240416D01*
X0079081Y0240120D01*
X0078993Y0239789D01*
X0078993Y0237162D01*
X0078993Y0237217D02*
X0061005Y0237217D01*
X0061005Y0236619D02*
X0083142Y0236619D01*
X0083442Y0236862D02*
X0083187Y0246337D01*
X0085497Y0248661D01*
X0087203Y0250367D01*
X0093603Y0250367D01*
X0091497Y0250385D02*
X0070380Y0250385D01*
X0070646Y0250983D02*
X0091497Y0250983D01*
X0091497Y0251582D02*
X0070726Y0251582D01*
X0070726Y0252180D02*
X0091497Y0252180D01*
X0091497Y0252779D02*
X0070726Y0252779D01*
X0070726Y0253377D02*
X0091497Y0253377D01*
X0091497Y0253976D02*
X0070726Y0253976D01*
X0070113Y0249786D02*
X0083553Y0249786D01*
X0082108Y0249188D02*
X0069847Y0249188D01*
X0069580Y0248589D02*
X0081471Y0248589D01*
X0080873Y0247991D02*
X0069277Y0247991D01*
X0068612Y0247392D02*
X0080602Y0247392D01*
X0080354Y0246794D02*
X0067948Y0246794D01*
X0067283Y0246195D02*
X0080178Y0246195D01*
X0080178Y0245596D02*
X0066290Y0245596D01*
X0064448Y0244998D02*
X0080178Y0244998D01*
X0080286Y0244399D02*
X0061005Y0244399D01*
X0061005Y0243801D02*
X0080534Y0243801D01*
X0080782Y0243202D02*
X0061005Y0243202D01*
X0061005Y0242604D02*
X0081308Y0242604D01*
X0081907Y0242005D02*
X0061005Y0242005D01*
X0061005Y0241407D02*
X0083159Y0241407D01*
X0083142Y0240808D02*
X0083742Y0240808D01*
X0083742Y0240918D02*
X0083742Y0237162D01*
X0087892Y0237162D01*
X0087892Y0239789D01*
X0087803Y0240120D01*
X0087632Y0240416D01*
X0087390Y0240658D01*
X0087094Y0240829D01*
X0086763Y0240918D01*
X0083742Y0240918D01*
X0083742Y0240210D02*
X0083142Y0240210D01*
X0083142Y0239611D02*
X0083742Y0239611D01*
X0083742Y0239013D02*
X0083142Y0239013D01*
X0083142Y0238414D02*
X0083742Y0238414D01*
X0083742Y0237816D02*
X0083142Y0237816D01*
X0083142Y0237217D02*
X0083742Y0237217D01*
X0087892Y0237217D02*
X0114288Y0237217D01*
X0113715Y0237816D02*
X0087892Y0237816D01*
X0087892Y0238414D02*
X0113467Y0238414D01*
X0113219Y0239013D02*
X0087892Y0239013D01*
X0087892Y0239611D02*
X0108702Y0239611D01*
X0108125Y0240210D02*
X0087751Y0240210D01*
X0087130Y0240808D02*
X0107878Y0240808D01*
X0110303Y0241567D02*
X0122803Y0241567D01*
X0128503Y0235867D01*
X0128503Y0226867D01*
X0130138Y0228838D02*
X0137401Y0228838D01*
X0137401Y0228240D02*
X0130694Y0228240D01*
X0130942Y0227641D02*
X0137401Y0227641D01*
X0137401Y0227043D02*
X0131053Y0227043D01*
X0131053Y0226444D02*
X0137401Y0226444D01*
X0137401Y0225846D02*
X0130840Y0225846D01*
X0130490Y0225247D02*
X0137401Y0225247D01*
X0137401Y0224649D02*
X0129811Y0224649D01*
X0127194Y0224649D02*
X0087692Y0224649D01*
X0087692Y0225247D02*
X0101372Y0225247D01*
X0100268Y0225846D02*
X0087692Y0225846D01*
X0087692Y0226444D02*
X0096339Y0226444D01*
X0096669Y0226444D02*
X0097487Y0226444D01*
X0096203Y0227867D02*
X0092573Y0232367D01*
X0092172Y0230634D02*
X0079556Y0230634D01*
X0078719Y0230035D02*
X0092655Y0230035D01*
X0093138Y0229437D02*
X0087305Y0229437D01*
X0087692Y0228838D02*
X0093620Y0228838D01*
X0094103Y0228240D02*
X0087692Y0228240D01*
X0087692Y0227641D02*
X0094586Y0227641D01*
X0095052Y0227043D02*
X0087692Y0227043D01*
X0087692Y0224050D02*
X0092279Y0224050D01*
X0092232Y0224023D02*
X0091990Y0223781D01*
X0091818Y0223484D01*
X0091730Y0223154D01*
X0091730Y0221314D01*
X0094698Y0221314D01*
X0094698Y0224282D01*
X0092859Y0224282D01*
X0092528Y0224194D01*
X0092232Y0224023D01*
X0091810Y0223452D02*
X0087692Y0223452D01*
X0087692Y0222853D02*
X0091730Y0222853D01*
X0091730Y0222255D02*
X0087320Y0222255D01*
X0084991Y0221656D02*
X0091730Y0221656D01*
X0091730Y0220459D02*
X0085033Y0220459D01*
X0085012Y0221058D02*
X0094698Y0221058D01*
X0094698Y0221656D02*
X0095298Y0221656D01*
X0095298Y0222255D02*
X0094698Y0222255D01*
X0094698Y0222853D02*
X0095298Y0222853D01*
X0095298Y0223452D02*
X0094698Y0223452D01*
X0094698Y0224050D02*
X0095298Y0224050D01*
X0096203Y0227867D02*
X0101953Y0227767D01*
X0100017Y0229437D02*
X0096735Y0229437D01*
X0096252Y0230035D02*
X0100766Y0230035D01*
X0098719Y0241407D02*
X0096485Y0241407D01*
X0083442Y0225838D02*
X0083812Y0215377D01*
X0086203Y0212867D01*
X0091703Y0206467D01*
X0091703Y0195971D01*
X0088982Y0195691D01*
X0091203Y0195412D01*
X0091203Y0193867D01*
X0090203Y0192867D01*
X0086203Y0192867D01*
X0084683Y0192887D01*
X0082683Y0195691D01*
X0080697Y0195920D02*
X0067533Y0195920D01*
X0067603Y0196089D02*
X0067603Y0197044D01*
X0067237Y0197926D01*
X0066995Y0198168D01*
X0073177Y0204267D01*
X0073183Y0204267D01*
X0073583Y0204667D01*
X0083885Y0204667D01*
X0084122Y0204553D01*
X0084443Y0204667D01*
X0084783Y0204667D01*
X0084968Y0204852D01*
X0085216Y0204939D01*
X0085362Y0205246D01*
X0085603Y0205487D01*
X0085603Y0205749D01*
X0085946Y0206467D01*
X0086580Y0206467D01*
X0087462Y0206832D01*
X0088137Y0207507D01*
X0088406Y0208155D01*
X0090303Y0205948D01*
X0090303Y0198169D01*
X0087641Y0198169D01*
X0087549Y0198077D01*
X0087517Y0198110D01*
X0087220Y0198281D01*
X0086890Y0198369D01*
X0085975Y0198369D01*
X0085975Y0195834D01*
X0085690Y0195834D01*
X0085690Y0198369D01*
X0084776Y0198369D01*
X0084445Y0198281D01*
X0084148Y0198110D01*
X0084116Y0198077D01*
X0084024Y0198169D01*
X0081341Y0198169D01*
X0080697Y0197525D01*
X0080697Y0193858D01*
X0081341Y0193213D01*
X0082730Y0193213D01*
X0083277Y0192447D01*
X0083275Y0192325D01*
X0083527Y0192067D01*
X0081341Y0192067D01*
X0080697Y0191423D01*
X0080697Y0190989D01*
X0067019Y0190989D01*
X0067637Y0191607D01*
X0068003Y0192489D01*
X0068003Y0193444D01*
X0067637Y0194326D01*
X0066997Y0194967D01*
X0067237Y0195207D01*
X0067603Y0196089D01*
X0067603Y0196519D02*
X0080697Y0196519D01*
X0080697Y0197117D02*
X0067573Y0197117D01*
X0067325Y0197716D02*
X0080888Y0197716D01*
X0080697Y0195322D02*
X0067285Y0195322D01*
X0067241Y0194723D02*
X0080697Y0194723D01*
X0080697Y0194125D02*
X0067721Y0194125D01*
X0067969Y0193526D02*
X0081029Y0193526D01*
X0081005Y0191730D02*
X0067689Y0191730D01*
X0067936Y0192329D02*
X0083275Y0192329D01*
X0082934Y0192927D02*
X0068003Y0192927D01*
X0067162Y0191132D02*
X0080697Y0191132D01*
X0082683Y0189589D02*
X0085183Y0189387D01*
X0085203Y0189367D01*
X0085203Y0186367D01*
X0085903Y0184667D01*
X0083503Y0184548D02*
X0070520Y0184548D01*
X0070520Y0183950D02*
X0083602Y0183950D01*
X0083503Y0184189D02*
X0083868Y0183307D01*
X0084543Y0182632D01*
X0085425Y0182267D01*
X0086380Y0182267D01*
X0087262Y0182632D01*
X0087937Y0183307D01*
X0088303Y0184189D01*
X0088303Y0184377D01*
X0091210Y0181752D01*
X0073597Y0181752D01*
X0072952Y0181107D01*
X0072952Y0176653D01*
X0073597Y0176008D01*
X0075211Y0176008D01*
X0075211Y0175769D01*
X0074668Y0175226D01*
X0074303Y0174344D01*
X0074303Y0173389D01*
X0074668Y0172507D01*
X0075343Y0171832D01*
X0076225Y0171467D01*
X0077180Y0171467D01*
X0078062Y0171832D01*
X0078737Y0172507D01*
X0079103Y0173389D01*
X0079103Y0174344D01*
X0078737Y0175226D01*
X0078062Y0175901D01*
X0078011Y0175922D01*
X0078011Y0176008D01*
X0088602Y0176008D01*
X0088343Y0175901D01*
X0087668Y0175226D01*
X0087434Y0174661D01*
X0082177Y0174571D01*
X0081917Y0174682D01*
X0081620Y0174562D01*
X0081299Y0174557D01*
X0081103Y0174354D01*
X0080842Y0174248D01*
X0080716Y0173953D01*
X0080493Y0173723D01*
X0080498Y0173441D01*
X0079282Y0170582D01*
X0079162Y0170701D01*
X0078280Y0171067D01*
X0077325Y0171067D01*
X0076443Y0170701D01*
X0075768Y0170026D01*
X0075403Y0169144D01*
X0075403Y0168189D01*
X0075768Y0167307D01*
X0076443Y0166632D01*
X0077325Y0166267D01*
X0078280Y0166267D01*
X0078865Y0166509D01*
X0078803Y0166447D01*
X0078803Y0166172D01*
X0078689Y0165923D01*
X0078803Y0165615D01*
X0078803Y0162250D01*
X0078280Y0162467D01*
X0077325Y0162467D01*
X0076443Y0162101D01*
X0075768Y0161426D01*
X0075403Y0160544D01*
X0075403Y0159589D01*
X0075768Y0158707D01*
X0076433Y0158042D01*
X0076439Y0157659D01*
X0076180Y0157767D01*
X0075225Y0157767D01*
X0074912Y0157637D01*
X0074789Y0157760D01*
X0074632Y0157760D01*
X0074502Y0157847D01*
X0074070Y0157760D01*
X0070743Y0157760D01*
X0070743Y0168855D01*
X0070854Y0169048D01*
X0070943Y0169378D01*
X0070943Y0170140D01*
X0070943Y0170902D01*
X0070854Y0171232D01*
X0070743Y0171425D01*
X0070743Y0173155D01*
X0070098Y0173799D01*
X0065644Y0173799D01*
X0065379Y0173534D01*
X0064967Y0173947D01*
X0064981Y0173939D01*
X0065312Y0173850D01*
X0067152Y0173850D01*
X0067152Y0176818D01*
X0067751Y0176818D01*
X0067751Y0173850D01*
X0069591Y0173850D01*
X0069922Y0173939D01*
X0070218Y0174110D01*
X0070460Y0174352D01*
X0070631Y0174648D01*
X0070720Y0174979D01*
X0070720Y0176818D01*
X0067752Y0176818D01*
X0067752Y0177418D01*
X0070720Y0177418D01*
X0070720Y0179258D01*
X0070631Y0179589D01*
X0070460Y0179885D01*
X0070218Y0180127D01*
X0069922Y0180298D01*
X0069732Y0180349D01*
X0069876Y0180349D01*
X0070520Y0180993D01*
X0070520Y0185842D01*
X0069876Y0186486D01*
X0065027Y0186486D01*
X0064503Y0185962D01*
X0064503Y0186387D01*
X0065439Y0187323D01*
X0065486Y0187326D01*
X0065844Y0187728D01*
X0066225Y0188109D01*
X0066225Y0188157D01*
X0066254Y0188189D01*
X0080697Y0188189D01*
X0080697Y0187755D01*
X0081341Y0187111D01*
X0083803Y0187111D01*
X0083803Y0186647D01*
X0083688Y0186370D01*
X0083803Y0186090D01*
X0083803Y0185868D01*
X0083503Y0185144D01*
X0083503Y0184189D01*
X0083850Y0183351D02*
X0070520Y0183351D01*
X0070520Y0182753D02*
X0084423Y0182753D01*
X0083504Y0185147D02*
X0070520Y0185147D01*
X0070520Y0185745D02*
X0083752Y0185745D01*
X0083698Y0186344D02*
X0070018Y0186344D01*
X0071603Y0184667D02*
X0073603Y0186667D01*
X0076703Y0186667D01*
X0080697Y0188139D02*
X0066225Y0188139D01*
X0065678Y0187541D02*
X0080912Y0187541D01*
X0082683Y0189589D02*
X0065625Y0189589D01*
X0064825Y0188689D01*
X0063103Y0186967D01*
X0063103Y0177267D01*
X0060503Y0174467D01*
X0060503Y0169367D01*
X0064803Y0167567D01*
X0064803Y0161467D01*
X0066303Y0160167D01*
X0067802Y0160367D01*
X0067871Y0160297D01*
X0067871Y0156360D02*
X0074209Y0156360D01*
X0075703Y0155367D01*
X0076262Y0158214D02*
X0070743Y0158214D01*
X0070743Y0158812D02*
X0075725Y0158812D01*
X0075477Y0159411D02*
X0070743Y0159411D01*
X0070743Y0160009D02*
X0075403Y0160009D01*
X0075429Y0160608D02*
X0070743Y0160608D01*
X0070743Y0161206D02*
X0075677Y0161206D01*
X0076147Y0161805D02*
X0070743Y0161805D01*
X0070743Y0162403D02*
X0077173Y0162403D01*
X0078433Y0162403D02*
X0078803Y0162403D01*
X0078803Y0163002D02*
X0070743Y0163002D01*
X0070743Y0163600D02*
X0078803Y0163600D01*
X0078803Y0164199D02*
X0070743Y0164199D01*
X0070743Y0164797D02*
X0078803Y0164797D01*
X0078803Y0165396D02*
X0070743Y0165396D01*
X0070743Y0165994D02*
X0078721Y0165994D01*
X0080203Y0165867D02*
X0080203Y0133367D01*
X0066703Y0119367D01*
X0063203Y0119367D01*
X0060203Y0116367D01*
X0060203Y0101867D01*
X0063203Y0098867D01*
X0068103Y0098867D01*
X0069796Y0097166D02*
X0072202Y0097166D01*
X0071919Y0097764D02*
X0070244Y0097764D01*
X0070492Y0098363D02*
X0071899Y0098363D01*
X0071899Y0098961D02*
X0070503Y0098961D01*
X0070414Y0099560D02*
X0071899Y0099560D01*
X0071899Y0100472D02*
X0074868Y0100472D01*
X0074868Y0103638D01*
X0073028Y0103638D01*
X0072698Y0103549D01*
X0072401Y0103378D01*
X0072159Y0103136D01*
X0071988Y0102839D01*
X0071899Y0102509D01*
X0071899Y0100472D01*
X0071899Y0100757D02*
X0069607Y0100757D01*
X0070166Y0100158D02*
X0074868Y0100158D01*
X0074868Y0100757D02*
X0075468Y0100757D01*
X0075468Y0101355D02*
X0074868Y0101355D01*
X0074868Y0101954D02*
X0075468Y0101954D01*
X0075468Y0102552D02*
X0074868Y0102552D01*
X0074868Y0103151D02*
X0075468Y0103151D01*
X0074852Y0104228D02*
X0076297Y0104228D01*
X0076628Y0104316D01*
X0076925Y0104487D01*
X0077167Y0104729D01*
X0077338Y0105026D01*
X0077426Y0105356D01*
X0077426Y0107590D01*
X0074852Y0107590D01*
X0074852Y0104228D01*
X0074852Y0104348D02*
X0074252Y0104348D01*
X0074252Y0104946D02*
X0074852Y0104946D01*
X0074852Y0105545D02*
X0074252Y0105545D01*
X0074203Y0105867D02*
X0073703Y0105867D01*
X0074180Y0105890D02*
X0074203Y0105867D01*
X0074180Y0105890D02*
X0074552Y0107890D01*
X0070630Y0105890D01*
X0070703Y0105816D01*
X0070703Y0103867D01*
X0069703Y0102867D01*
X0071911Y0102552D02*
X0061603Y0102552D01*
X0061603Y0103151D02*
X0072174Y0103151D01*
X0072420Y0104348D02*
X0061603Y0104348D01*
X0061603Y0104946D02*
X0062783Y0104946D01*
X0062854Y0104905D02*
X0063185Y0104816D01*
X0065025Y0104816D01*
X0065025Y0107785D01*
X0062056Y0107785D01*
X0062056Y0105945D01*
X0062145Y0105615D01*
X0062316Y0105318D01*
X0062558Y0105076D01*
X0062854Y0104905D01*
X0062185Y0105545D02*
X0061603Y0105545D01*
X0061603Y0106143D02*
X0062056Y0106143D01*
X0062056Y0106742D02*
X0061603Y0106742D01*
X0061603Y0107340D02*
X0062056Y0107340D01*
X0061603Y0103749D02*
X0079714Y0103749D01*
X0079714Y0104348D02*
X0076683Y0104348D01*
X0077292Y0104946D02*
X0079089Y0104946D01*
X0078963Y0105545D02*
X0077426Y0105545D01*
X0077426Y0106143D02*
X0078963Y0106143D01*
X0078963Y0106742D02*
X0077426Y0106742D01*
X0077426Y0107340D02*
X0078963Y0107340D01*
X0078963Y0107939D02*
X0074852Y0107939D01*
X0074552Y0107890D02*
X0074203Y0106041D01*
X0074203Y0108867D01*
X0077203Y0111867D01*
X0077203Y0113867D01*
X0076611Y0114458D01*
X0076611Y0118093D01*
X0076611Y0121164D01*
X0076043Y0121164D01*
X0076043Y0122207D01*
X0076396Y0122544D01*
X0076618Y0122007D01*
X0077253Y0121373D01*
X0077253Y0121164D01*
X0076611Y0121164D01*
X0076611Y0118093D01*
X0076611Y0118093D01*
X0076611Y0118114D02*
X0076611Y0118114D01*
X0076611Y0118712D02*
X0076611Y0118712D01*
X0076611Y0119311D02*
X0076611Y0119311D01*
X0076611Y0119909D02*
X0076611Y0119909D01*
X0076611Y0120508D02*
X0076611Y0120508D01*
X0076611Y0121106D02*
X0076611Y0121106D01*
X0076921Y0121705D02*
X0076043Y0121705D01*
X0076143Y0122303D02*
X0076496Y0122303D01*
X0074643Y0122807D02*
X0074643Y0118093D01*
X0074203Y0117653D01*
X0074203Y0113867D01*
X0074703Y0113367D01*
X0077103Y0113325D02*
X0082337Y0113325D01*
X0082585Y0113924D02*
X0077070Y0113924D01*
X0076822Y0114523D02*
X0083065Y0114523D01*
X0084115Y0115121D02*
X0077724Y0115121D01*
X0076611Y0115121D02*
X0076611Y0115121D01*
X0076611Y0115720D02*
X0076611Y0115720D01*
X0076611Y0116318D02*
X0076611Y0116318D01*
X0076611Y0116917D02*
X0076611Y0116917D01*
X0076611Y0117515D02*
X0076611Y0117515D01*
X0078580Y0118093D02*
X0078653Y0118166D01*
X0078653Y0123367D01*
X0079578Y0125581D02*
X0080719Y0126669D01*
X0080725Y0126667D01*
X0081680Y0126667D01*
X0082562Y0127032D01*
X0083237Y0127707D01*
X0083524Y0128398D01*
X0085996Y0124310D01*
X0085803Y0123844D01*
X0085803Y0122889D01*
X0086168Y0122007D01*
X0086843Y0121332D01*
X0087725Y0120967D01*
X0088680Y0120967D01*
X0089562Y0121332D01*
X0090237Y0122007D01*
X0090603Y0122889D01*
X0090603Y0123844D01*
X0090237Y0124726D01*
X0089562Y0125401D01*
X0088680Y0125767D01*
X0088388Y0125767D01*
X0083195Y0134352D01*
X0083104Y0165568D01*
X0084858Y0169467D01*
X0092303Y0169467D01*
X0092303Y0168889D01*
X0092668Y0168007D01*
X0092809Y0167867D01*
X0092223Y0167867D01*
X0091403Y0167047D01*
X0091403Y0167047D01*
X0088303Y0163947D01*
X0088303Y0162787D01*
X0088303Y0145187D01*
X0089123Y0144367D01*
X0090523Y0142967D01*
X0093625Y0142967D01*
X0094125Y0142911D01*
X0094194Y0142967D01*
X0094283Y0142967D01*
X0094638Y0143322D01*
X0095540Y0144043D01*
X0095725Y0143967D01*
X0096680Y0143967D01*
X0097562Y0144332D01*
X0098237Y0145007D01*
X0098603Y0145889D01*
X0098603Y0146844D01*
X0098237Y0147726D01*
X0097562Y0148401D01*
X0096680Y0148767D01*
X0095997Y0148767D01*
X0096197Y0148967D01*
X0108523Y0148967D01*
X0112303Y0145187D01*
X0112303Y0130926D01*
X0112289Y0130911D01*
X0112303Y0130349D01*
X0112303Y0129787D01*
X0112317Y0129772D01*
X0112540Y0120964D01*
X0080053Y0120964D01*
X0080053Y0121373D01*
X0080687Y0122007D01*
X0081053Y0122889D01*
X0081053Y0123844D01*
X0080687Y0124726D01*
X0080012Y0125401D01*
X0079578Y0125581D01*
X0079906Y0125894D02*
X0085038Y0125894D01*
X0085400Y0125296D02*
X0080118Y0125296D01*
X0080699Y0124697D02*
X0085762Y0124697D01*
X0085908Y0124099D02*
X0080947Y0124099D01*
X0081053Y0123500D02*
X0085803Y0123500D01*
X0085803Y0122902D02*
X0081053Y0122902D01*
X0080810Y0122303D02*
X0086046Y0122303D01*
X0086471Y0121705D02*
X0080385Y0121705D01*
X0080053Y0121106D02*
X0087389Y0121106D01*
X0089017Y0121106D02*
X0112536Y0121106D01*
X0112521Y0121705D02*
X0089935Y0121705D01*
X0090360Y0122303D02*
X0112506Y0122303D01*
X0112491Y0122902D02*
X0090603Y0122902D01*
X0090603Y0123500D02*
X0112476Y0123500D01*
X0112461Y0124099D02*
X0090497Y0124099D01*
X0090249Y0124697D02*
X0112446Y0124697D01*
X0112430Y0125296D02*
X0089668Y0125296D01*
X0088310Y0125894D02*
X0112415Y0125894D01*
X0112400Y0126493D02*
X0087948Y0126493D01*
X0087586Y0127091D02*
X0112385Y0127091D01*
X0112370Y0127690D02*
X0087225Y0127690D01*
X0086863Y0128288D02*
X0112355Y0128288D01*
X0112340Y0128887D02*
X0086501Y0128887D01*
X0086139Y0129485D02*
X0112325Y0129485D01*
X0112303Y0130084D02*
X0085777Y0130084D01*
X0085415Y0130682D02*
X0112294Y0130682D01*
X0112303Y0131281D02*
X0085053Y0131281D01*
X0084691Y0131879D02*
X0112303Y0131879D01*
X0112303Y0132478D02*
X0084329Y0132478D01*
X0083967Y0133076D02*
X0112303Y0133076D01*
X0112303Y0133675D02*
X0083605Y0133675D01*
X0083243Y0134273D02*
X0112303Y0134273D01*
X0112303Y0134872D02*
X0083194Y0134872D01*
X0083192Y0135470D02*
X0112303Y0135470D01*
X0112303Y0136069D02*
X0083190Y0136069D01*
X0083188Y0136667D02*
X0112303Y0136667D01*
X0112303Y0137266D02*
X0083187Y0137266D01*
X0083185Y0137864D02*
X0112303Y0137864D01*
X0112303Y0138463D02*
X0083183Y0138463D01*
X0083181Y0139061D02*
X0112303Y0139061D01*
X0112303Y0139660D02*
X0083180Y0139660D01*
X0083178Y0140259D02*
X0112303Y0140259D01*
X0112303Y0140857D02*
X0083176Y0140857D01*
X0083174Y0141456D02*
X0112303Y0141456D01*
X0112303Y0142054D02*
X0083173Y0142054D01*
X0083171Y0142653D02*
X0112303Y0142653D01*
X0112303Y0143251D02*
X0094567Y0143251D01*
X0095298Y0143850D02*
X0112303Y0143850D01*
X0112303Y0144448D02*
X0097678Y0144448D01*
X0098254Y0145047D02*
X0112303Y0145047D01*
X0111845Y0145645D02*
X0098502Y0145645D01*
X0098603Y0146244D02*
X0111246Y0146244D01*
X0110648Y0146842D02*
X0098603Y0146842D01*
X0098356Y0147441D02*
X0110049Y0147441D01*
X0109450Y0148039D02*
X0097924Y0148039D01*
X0097703Y0148367D02*
X0092703Y0148367D01*
X0091603Y0149967D01*
X0091603Y0152467D01*
X0092803Y0153267D01*
X0096203Y0153367D01*
X0097303Y0154467D01*
X0097320Y0154469D01*
X0097337Y0154473D01*
X0097353Y0154480D01*
X0097367Y0154490D01*
X0097380Y0154503D01*
X0097390Y0154517D01*
X0097397Y0154533D01*
X0097401Y0154550D01*
X0097403Y0154567D01*
X0097403Y0156867D01*
X0099703Y0156867D01*
X0097403Y0156867D02*
X0094703Y0156867D01*
X0091103Y0157017D02*
X0114803Y0157017D01*
X0114803Y0157615D02*
X0091103Y0157615D01*
X0091103Y0158214D02*
X0114803Y0158214D01*
X0114803Y0158812D02*
X0091103Y0158812D01*
X0091103Y0159411D02*
X0114803Y0159411D01*
X0114803Y0160009D02*
X0091103Y0160009D01*
X0091103Y0160608D02*
X0114803Y0160608D01*
X0114803Y0161206D02*
X0091103Y0161206D01*
X0091103Y0161805D02*
X0114803Y0161805D01*
X0114803Y0162403D02*
X0091103Y0162403D01*
X0091318Y0163002D02*
X0114803Y0163002D01*
X0114803Y0163600D02*
X0091917Y0163600D01*
X0092515Y0164199D02*
X0114803Y0164199D01*
X0114803Y0164797D02*
X0093114Y0164797D01*
X0092803Y0166467D02*
X0089703Y0163367D01*
X0089703Y0145767D01*
X0091103Y0144367D01*
X0093703Y0144367D01*
X0096203Y0146367D01*
X0093803Y0146244D02*
X0091206Y0146244D01*
X0091103Y0146842D02*
X0093803Y0146842D01*
X0094050Y0147441D02*
X0091103Y0147441D01*
X0091103Y0148039D02*
X0093550Y0148039D01*
X0092538Y0148638D02*
X0091103Y0148638D01*
X0091103Y0149236D02*
X0092073Y0149236D01*
X0091825Y0149835D02*
X0091103Y0149835D01*
X0091103Y0150433D02*
X0091803Y0150433D01*
X0091881Y0151032D02*
X0091103Y0151032D01*
X0091103Y0151630D02*
X0092129Y0151630D01*
X0092671Y0152229D02*
X0091103Y0152229D01*
X0091103Y0152827D02*
X0114769Y0152827D01*
X0114803Y0153426D02*
X0091103Y0153426D01*
X0091103Y0154024D02*
X0114803Y0154024D01*
X0114803Y0154623D02*
X0091103Y0154623D01*
X0091103Y0155221D02*
X0114803Y0155221D01*
X0114803Y0155820D02*
X0091103Y0155820D01*
X0091103Y0156418D02*
X0114803Y0156418D01*
X0114171Y0152229D02*
X0095735Y0152229D01*
X0094203Y0150367D02*
X0109103Y0150367D01*
X0113703Y0145767D01*
X0113703Y0130367D01*
X0114013Y0118093D01*
X0119426Y0138463D02*
X0125787Y0138463D01*
X0125787Y0139061D02*
X0119603Y0139061D01*
X0119603Y0139660D02*
X0125787Y0139660D01*
X0125787Y0140259D02*
X0123289Y0140259D01*
X0123858Y0140857D02*
X0125787Y0140857D01*
X0125787Y0141456D02*
X0124106Y0141456D01*
X0124203Y0142054D02*
X0125787Y0142054D01*
X0125787Y0142653D02*
X0124199Y0142653D01*
X0123951Y0143251D02*
X0125787Y0143251D01*
X0125787Y0143850D02*
X0123514Y0143850D01*
X0123313Y0144448D02*
X0125787Y0144448D01*
X0125787Y0145047D02*
X0123342Y0145047D01*
X0123370Y0145645D02*
X0125787Y0145645D01*
X0125787Y0146244D02*
X0123477Y0146244D01*
X0123427Y0146842D02*
X0125787Y0146842D01*
X0125787Y0147441D02*
X0122934Y0147441D01*
X0121936Y0148039D02*
X0125787Y0148039D01*
X0125787Y0148638D02*
X0120939Y0148638D01*
X0120903Y0149236D02*
X0125787Y0149236D01*
X0125787Y0149835D02*
X0120903Y0149835D01*
X0119503Y0147867D02*
X0122003Y0146367D01*
X0121803Y0142167D01*
X0120092Y0143850D02*
X0119880Y0143850D01*
X0119654Y0143251D02*
X0118884Y0143251D01*
X0119406Y0142653D02*
X0115103Y0142653D01*
X0115103Y0143251D02*
X0117522Y0143251D01*
X0116526Y0143850D02*
X0115103Y0143850D01*
X0115103Y0144448D02*
X0116068Y0144448D01*
X0115821Y0145047D02*
X0115103Y0145047D01*
X0115103Y0145645D02*
X0115803Y0145645D01*
X0115886Y0146244D02*
X0115103Y0146244D01*
X0114607Y0146842D02*
X0116133Y0146842D01*
X0116683Y0147441D02*
X0114009Y0147441D01*
X0113410Y0148039D02*
X0117103Y0148039D01*
X0117093Y0148638D02*
X0117103Y0148638D01*
X0115313Y0148638D02*
X0112812Y0148638D01*
X0112213Y0149236D02*
X0114439Y0149236D01*
X0114033Y0149835D02*
X0111615Y0149835D01*
X0111016Y0150433D02*
X0113803Y0150433D01*
X0113803Y0151032D02*
X0110418Y0151032D01*
X0109819Y0151630D02*
X0113921Y0151630D01*
X0116203Y0150867D02*
X0116203Y0168367D01*
X0115503Y0169467D01*
X0115703Y0168867D01*
X0114724Y0167192D02*
X0113023Y0167192D01*
X0114803Y0166593D02*
X0105203Y0166593D01*
X0104611Y0165994D02*
X0114803Y0165994D01*
X0114803Y0165396D02*
X0104012Y0165396D01*
X0103103Y0166467D02*
X0103803Y0167167D01*
X0103803Y0170267D01*
X0100203Y0173867D01*
X0102202Y0174368D02*
X0104703Y0171467D01*
X0116703Y0171467D01*
X0118503Y0169867D01*
X0118503Y0145867D01*
X0118203Y0145567D01*
X0120337Y0144448D02*
X0120510Y0144448D01*
X0119403Y0142054D02*
X0115103Y0142054D01*
X0115103Y0141456D02*
X0115974Y0141456D01*
X0115299Y0140857D02*
X0115103Y0140857D01*
X0118431Y0141456D02*
X0119500Y0141456D01*
X0119748Y0140857D02*
X0119107Y0140857D01*
X0119431Y0140259D02*
X0120317Y0140259D01*
X0119503Y0147867D02*
X0119503Y0154467D01*
X0124503Y0160667D01*
X0124503Y0163667D01*
X0126071Y0164234D01*
X0128659Y0164234D01*
X0128322Y0165867D02*
X0128659Y0166203D01*
X0128322Y0165867D02*
X0124703Y0165867D01*
X0122603Y0164367D01*
X0122603Y0162867D01*
X0124806Y0158812D02*
X0125787Y0158812D01*
X0125787Y0158214D02*
X0124323Y0158214D01*
X0123841Y0157615D02*
X0125787Y0157615D01*
X0125787Y0157017D02*
X0123358Y0157017D01*
X0122875Y0156418D02*
X0125787Y0156418D01*
X0125787Y0155820D02*
X0122393Y0155820D01*
X0121910Y0155221D02*
X0125605Y0155221D01*
X0125587Y0155154D02*
X0125587Y0154392D01*
X0128658Y0154392D01*
X0128658Y0154392D01*
X0125587Y0154392D01*
X0125587Y0153823D01*
X0123939Y0153823D01*
X0123937Y0153826D01*
X0123262Y0154501D01*
X0122380Y0154867D01*
X0121624Y0154867D01*
X0125546Y0159730D01*
X0125787Y0159971D01*
X0125787Y0155677D01*
X0125675Y0155484D01*
X0125587Y0155154D01*
X0125587Y0154623D02*
X0122969Y0154623D01*
X0123739Y0154024D02*
X0125587Y0154024D01*
X0128659Y0154392D02*
X0132678Y0154392D01*
X0132703Y0154367D01*
X0133123Y0153767D02*
X0131730Y0153767D01*
X0131730Y0154392D01*
X0131730Y0155154D01*
X0131642Y0155484D01*
X0131530Y0155677D01*
X0131530Y0160866D01*
X0131984Y0160866D01*
X0133803Y0159988D01*
X0133803Y0154447D01*
X0133123Y0153767D01*
X0133381Y0154024D02*
X0131730Y0154024D01*
X0131730Y0154392D02*
X0128659Y0154392D01*
X0131730Y0154392D01*
X0131730Y0154623D02*
X0133803Y0154623D01*
X0133803Y0155221D02*
X0131712Y0155221D01*
X0131530Y0155820D02*
X0133803Y0155820D01*
X0133803Y0156418D02*
X0131530Y0156418D01*
X0131530Y0157017D02*
X0133803Y0157017D01*
X0133803Y0157615D02*
X0131530Y0157615D01*
X0131530Y0158214D02*
X0133803Y0158214D01*
X0133803Y0158812D02*
X0131530Y0158812D01*
X0131530Y0159411D02*
X0133803Y0159411D01*
X0133758Y0160009D02*
X0131530Y0160009D01*
X0131530Y0160608D02*
X0132518Y0160608D01*
X0132304Y0162266D02*
X0135203Y0160867D01*
X0135203Y0153867D01*
X0133703Y0152367D01*
X0128715Y0152367D01*
X0128659Y0152423D01*
X0121946Y0152423D01*
X0121903Y0152467D01*
X0123264Y0150433D02*
X0125787Y0150433D01*
X0128659Y0150455D02*
X0133291Y0150455D01*
X0136203Y0153367D01*
X0136203Y0169367D01*
X0132703Y0164367D02*
X0132703Y0174867D01*
X0127703Y0179867D01*
X0122874Y0179867D01*
X0121887Y0178880D01*
X0121703Y0180367D01*
X0118803Y0183967D01*
X0116403Y0183950D02*
X0115580Y0183950D01*
X0115498Y0183351D02*
X0116460Y0183351D01*
X0116103Y0183467D02*
X0116203Y0196367D01*
X0113703Y0199367D01*
X0109703Y0199367D01*
X0107822Y0197485D01*
X0107822Y0195669D01*
X0107822Y0198248D01*
X0106503Y0203567D01*
X0101608Y0203567D01*
X0098064Y0196623D01*
X0097764Y0197117D02*
X0098364Y0197117D01*
X0098364Y0197716D02*
X0097764Y0197716D01*
X0097764Y0198314D02*
X0098364Y0198314D01*
X0098364Y0198913D02*
X0097764Y0198913D01*
X0097764Y0199511D02*
X0098364Y0199511D01*
X0095177Y0199511D02*
X0093103Y0199511D01*
X0093103Y0198913D02*
X0094836Y0198913D01*
X0094796Y0198314D02*
X0093103Y0198314D01*
X0093927Y0197716D02*
X0094796Y0197716D01*
X0094796Y0197117D02*
X0094118Y0197117D01*
X0094655Y0195669D02*
X0092132Y0195691D01*
X0088982Y0195691D01*
X0087703Y0196321D02*
X0085833Y0195691D01*
X0085690Y0195920D02*
X0085975Y0195920D01*
X0085975Y0196519D02*
X0085690Y0196519D01*
X0085690Y0197117D02*
X0085975Y0197117D01*
X0085975Y0197716D02*
X0085690Y0197716D01*
X0085690Y0198314D02*
X0085975Y0198314D01*
X0085703Y0199367D02*
X0087203Y0199367D01*
X0087703Y0198867D01*
X0087703Y0196321D01*
X0087096Y0198314D02*
X0090303Y0198314D01*
X0090303Y0198913D02*
X0067750Y0198913D01*
X0068357Y0199511D02*
X0090303Y0199511D01*
X0090303Y0200110D02*
X0068963Y0200110D01*
X0069570Y0200708D02*
X0090303Y0200708D01*
X0090303Y0201307D02*
X0070177Y0201307D01*
X0070783Y0201905D02*
X0090303Y0201905D01*
X0090303Y0202504D02*
X0071390Y0202504D01*
X0071997Y0203102D02*
X0090303Y0203102D01*
X0090303Y0203701D02*
X0072603Y0203701D01*
X0073215Y0204299D02*
X0090303Y0204299D01*
X0090303Y0204898D02*
X0085097Y0204898D01*
X0085603Y0205496D02*
X0090303Y0205496D01*
X0090177Y0206095D02*
X0085768Y0206095D01*
X0087127Y0206693D02*
X0089662Y0206693D01*
X0089148Y0207292D02*
X0087922Y0207292D01*
X0088296Y0207890D02*
X0088634Y0207890D01*
X0086103Y0208867D02*
X0085303Y0208367D01*
X0084203Y0206067D01*
X0073003Y0206067D01*
X0072603Y0205667D01*
X0065203Y0198367D01*
X0065203Y0196567D01*
X0063103Y0195567D02*
X0063103Y0198467D01*
X0070803Y0206367D01*
X0076403Y0212267D01*
X0077346Y0214474D02*
X0082728Y0214474D01*
X0082404Y0215072D02*
X0061005Y0215072D01*
X0061005Y0214474D02*
X0075460Y0214474D01*
X0074618Y0213875D02*
X0061005Y0213875D01*
X0061005Y0213277D02*
X0074224Y0213277D01*
X0074003Y0212678D02*
X0061005Y0212678D01*
X0061005Y0212080D02*
X0074003Y0212080D01*
X0073727Y0211481D02*
X0061005Y0211481D01*
X0061005Y0210883D02*
X0073159Y0210883D01*
X0072591Y0210284D02*
X0061005Y0210284D01*
X0061005Y0209686D02*
X0072023Y0209686D01*
X0071455Y0209087D02*
X0061005Y0209087D01*
X0061005Y0208489D02*
X0070887Y0208489D01*
X0070319Y0207890D02*
X0061005Y0207890D01*
X0061005Y0207292D02*
X0069750Y0207292D01*
X0069166Y0206693D02*
X0061005Y0206693D01*
X0061005Y0206095D02*
X0068583Y0206095D01*
X0068000Y0205496D02*
X0061005Y0205496D01*
X0061005Y0204898D02*
X0067416Y0204898D01*
X0066833Y0204299D02*
X0061005Y0204299D01*
X0061005Y0203701D02*
X0066249Y0203701D01*
X0065666Y0203102D02*
X0061005Y0203102D01*
X0061005Y0202504D02*
X0065083Y0202504D01*
X0064499Y0201905D02*
X0061005Y0201905D01*
X0061005Y0201307D02*
X0063916Y0201307D01*
X0063333Y0200708D02*
X0061005Y0200708D01*
X0061005Y0200110D02*
X0062749Y0200110D01*
X0062166Y0199511D02*
X0061005Y0199511D01*
X0061005Y0198913D02*
X0061697Y0198913D01*
X0061703Y0198314D02*
X0061005Y0198314D01*
X0061005Y0197716D02*
X0061703Y0197716D01*
X0061703Y0197117D02*
X0061005Y0197117D01*
X0061005Y0196519D02*
X0061703Y0196519D01*
X0061703Y0195920D02*
X0061005Y0195920D01*
X0061005Y0195322D02*
X0061698Y0195322D01*
X0061967Y0194723D02*
X0061005Y0194723D01*
X0061005Y0194125D02*
X0062547Y0194125D01*
X0063123Y0193526D02*
X0061005Y0193526D01*
X0061005Y0192927D02*
X0063203Y0192927D01*
X0063269Y0192329D02*
X0061005Y0192329D01*
X0061005Y0191730D02*
X0063517Y0191730D01*
X0064043Y0191132D02*
X0061005Y0191132D01*
X0061005Y0190533D02*
X0064590Y0190533D01*
X0064060Y0189935D02*
X0061005Y0189935D01*
X0061005Y0189336D02*
X0063493Y0189336D01*
X0062894Y0188738D02*
X0061005Y0188738D01*
X0061005Y0188139D02*
X0062296Y0188139D01*
X0061703Y0187541D02*
X0061005Y0187541D01*
X0061005Y0186942D02*
X0061703Y0186942D01*
X0061703Y0186344D02*
X0061005Y0186344D01*
X0061005Y0185745D02*
X0061703Y0185745D01*
X0061703Y0185147D02*
X0061005Y0185147D01*
X0061005Y0184548D02*
X0061703Y0184548D01*
X0061703Y0183950D02*
X0061005Y0183950D01*
X0061005Y0183351D02*
X0061703Y0183351D01*
X0061703Y0182753D02*
X0061005Y0182753D01*
X0061005Y0182154D02*
X0061703Y0182154D01*
X0061703Y0181556D02*
X0061005Y0181556D01*
X0061005Y0180957D02*
X0061703Y0180957D01*
X0061703Y0180359D02*
X0061005Y0180359D01*
X0061005Y0179760D02*
X0061703Y0179760D01*
X0061703Y0179162D02*
X0061005Y0179162D01*
X0061005Y0178563D02*
X0061703Y0178563D01*
X0061703Y0177965D02*
X0061005Y0177965D01*
X0061005Y0177366D02*
X0061285Y0177366D01*
X0064103Y0176867D02*
X0061403Y0174167D01*
X0061403Y0169967D01*
X0065898Y0168171D01*
X0067871Y0168171D01*
X0067871Y0170140D02*
X0067871Y0170140D01*
X0070476Y0170140D01*
X0071603Y0171367D01*
X0071603Y0176367D01*
X0070703Y0177367D01*
X0067700Y0177367D01*
X0067452Y0177118D01*
X0067752Y0177366D02*
X0072952Y0177366D01*
X0072952Y0176768D02*
X0070720Y0176768D01*
X0070720Y0176169D02*
X0073436Y0176169D01*
X0074563Y0174972D02*
X0070718Y0174972D01*
X0070720Y0175571D02*
X0075013Y0175571D01*
X0074315Y0174374D02*
X0070473Y0174374D01*
X0070122Y0173775D02*
X0074303Y0173775D01*
X0074391Y0173177D02*
X0070721Y0173177D01*
X0070743Y0172578D02*
X0074639Y0172578D01*
X0075196Y0171980D02*
X0070743Y0171980D01*
X0070768Y0171381D02*
X0079622Y0171381D01*
X0079876Y0171980D02*
X0078210Y0171980D01*
X0078767Y0172578D02*
X0080131Y0172578D01*
X0080386Y0173177D02*
X0079015Y0173177D01*
X0079103Y0173775D02*
X0080544Y0173775D01*
X0081122Y0174374D02*
X0079091Y0174374D01*
X0078843Y0174972D02*
X0087563Y0174972D01*
X0088013Y0175571D02*
X0078393Y0175571D01*
X0076703Y0173867D02*
X0076611Y0173958D01*
X0076611Y0178880D01*
X0072952Y0179162D02*
X0070720Y0179162D01*
X0070720Y0178563D02*
X0072952Y0178563D01*
X0072952Y0177965D02*
X0070720Y0177965D01*
X0070703Y0177367D02*
X0071603Y0177967D01*
X0071603Y0184667D01*
X0070520Y0182154D02*
X0090764Y0182154D01*
X0090101Y0182753D02*
X0087383Y0182753D01*
X0087956Y0183351D02*
X0089439Y0183351D01*
X0088776Y0183950D02*
X0088204Y0183950D01*
X0088333Y0186237D02*
X0093503Y0181567D01*
X0097703Y0181567D01*
X0098265Y0181005D01*
X0098265Y0178880D01*
X0098265Y0176029D01*
X0097203Y0174967D01*
X0097203Y0171367D01*
X0098703Y0169867D01*
X0100703Y0167367D02*
X0102203Y0169367D01*
X0100703Y0167367D02*
X0096203Y0167367D01*
X0094703Y0168867D01*
X0094703Y0169367D01*
X0094453Y0170867D02*
X0096253Y0173167D01*
X0096253Y0173317D01*
X0096296Y0178880D01*
X0094328Y0178880D02*
X0094328Y0176042D01*
X0095303Y0175067D01*
X0095303Y0173467D01*
X0094003Y0171867D01*
X0082953Y0171867D01*
X0080203Y0165867D01*
X0081703Y0165867D02*
X0083953Y0170867D01*
X0094453Y0170867D01*
X0092303Y0168987D02*
X0084642Y0168987D01*
X0084373Y0168389D02*
X0092510Y0168389D01*
X0092146Y0167790D02*
X0084104Y0167790D01*
X0083834Y0167192D02*
X0091548Y0167192D01*
X0090949Y0166593D02*
X0083565Y0166593D01*
X0083296Y0165994D02*
X0090351Y0165994D01*
X0089752Y0165396D02*
X0083104Y0165396D01*
X0083106Y0164797D02*
X0089154Y0164797D01*
X0088555Y0164199D02*
X0083108Y0164199D01*
X0083110Y0163600D02*
X0088303Y0163600D01*
X0088303Y0163002D02*
X0083111Y0163002D01*
X0083113Y0162403D02*
X0088303Y0162403D01*
X0088303Y0161805D02*
X0083115Y0161805D01*
X0083117Y0161206D02*
X0088303Y0161206D01*
X0088303Y0160608D02*
X0083118Y0160608D01*
X0083120Y0160009D02*
X0088303Y0160009D01*
X0088303Y0159411D02*
X0083122Y0159411D01*
X0083124Y0158812D02*
X0088303Y0158812D01*
X0088303Y0158214D02*
X0083125Y0158214D01*
X0083127Y0157615D02*
X0088303Y0157615D01*
X0088303Y0157017D02*
X0083129Y0157017D01*
X0083131Y0156418D02*
X0088303Y0156418D01*
X0088303Y0155820D02*
X0083132Y0155820D01*
X0083134Y0155221D02*
X0088303Y0155221D01*
X0088303Y0154623D02*
X0083136Y0154623D01*
X0083138Y0154024D02*
X0088303Y0154024D01*
X0088303Y0153426D02*
X0083139Y0153426D01*
X0083141Y0152827D02*
X0088303Y0152827D01*
X0088303Y0152229D02*
X0083143Y0152229D01*
X0083145Y0151630D02*
X0088303Y0151630D01*
X0088303Y0151032D02*
X0083146Y0151032D01*
X0083148Y0150433D02*
X0088303Y0150433D01*
X0088303Y0149835D02*
X0083150Y0149835D01*
X0083152Y0149236D02*
X0088303Y0149236D01*
X0088303Y0148638D02*
X0083153Y0148638D01*
X0083155Y0148039D02*
X0088303Y0148039D01*
X0088303Y0147441D02*
X0083157Y0147441D01*
X0083159Y0146842D02*
X0088303Y0146842D01*
X0088303Y0146244D02*
X0083160Y0146244D01*
X0083162Y0145645D02*
X0088303Y0145645D01*
X0088443Y0145047D02*
X0083164Y0145047D01*
X0083166Y0144448D02*
X0089042Y0144448D01*
X0089640Y0143850D02*
X0083167Y0143850D01*
X0083169Y0143251D02*
X0090239Y0143251D01*
X0096992Y0148638D02*
X0108852Y0148638D01*
X0100203Y0145867D02*
X0097703Y0148367D01*
X0100203Y0145867D02*
X0100203Y0143867D01*
X0081796Y0133960D02*
X0088203Y0123367D01*
X0084676Y0126493D02*
X0080533Y0126493D01*
X0082622Y0127091D02*
X0084314Y0127091D01*
X0083952Y0127690D02*
X0083220Y0127690D01*
X0083478Y0128288D02*
X0083590Y0128288D01*
X0081203Y0129067D02*
X0074643Y0122807D01*
X0071603Y0119467D02*
X0068825Y0116488D01*
X0065325Y0114384D01*
X0067963Y0111530D02*
X0072723Y0111530D01*
X0072618Y0112128D02*
X0068393Y0112128D01*
X0068393Y0112727D02*
X0072370Y0112727D01*
X0072303Y0113325D02*
X0068393Y0113325D01*
X0068393Y0113924D02*
X0072336Y0113924D01*
X0072584Y0114523D02*
X0068393Y0114523D01*
X0069464Y0115121D02*
X0072803Y0115121D01*
X0072803Y0115720D02*
X0070076Y0115720D01*
X0070580Y0116318D02*
X0072803Y0116318D01*
X0072803Y0116917D02*
X0071139Y0116917D01*
X0071868Y0110931D02*
X0068254Y0110931D01*
X0068564Y0110333D02*
X0071677Y0110333D01*
X0071677Y0109734D02*
X0068593Y0109734D01*
X0068593Y0109136D02*
X0071677Y0109136D01*
X0071677Y0108537D02*
X0068593Y0108537D01*
X0068593Y0107785D02*
X0065625Y0107785D01*
X0065625Y0104816D01*
X0067464Y0104816D01*
X0067795Y0104905D01*
X0068091Y0105076D01*
X0068333Y0105318D01*
X0068505Y0105615D01*
X0068593Y0105945D01*
X0068593Y0107785D01*
X0068593Y0107340D02*
X0071677Y0107340D01*
X0071677Y0106742D02*
X0068593Y0106742D01*
X0068593Y0106143D02*
X0071677Y0106143D01*
X0071677Y0105545D02*
X0068464Y0105545D01*
X0067866Y0104946D02*
X0071811Y0104946D01*
X0070630Y0105890D02*
X0065325Y0108085D01*
X0065025Y0107340D02*
X0065625Y0107340D01*
X0065625Y0106742D02*
X0065025Y0106742D01*
X0065025Y0106143D02*
X0065625Y0106143D01*
X0065625Y0105545D02*
X0065025Y0105545D01*
X0065025Y0104946D02*
X0065625Y0104946D01*
X0066927Y0107939D02*
X0074251Y0107939D01*
X0074252Y0107340D02*
X0074852Y0107340D01*
X0074852Y0106742D02*
X0074252Y0106742D01*
X0074252Y0106143D02*
X0074852Y0106143D01*
X0077426Y0108537D02*
X0078963Y0108537D01*
X0078963Y0109136D02*
X0077426Y0109136D01*
X0077426Y0109734D02*
X0078963Y0109734D01*
X0078963Y0110333D02*
X0077426Y0110333D01*
X0077235Y0110931D02*
X0079187Y0110931D01*
X0080886Y0111530D02*
X0076380Y0111530D01*
X0076788Y0112128D02*
X0081485Y0112128D01*
X0082083Y0112727D02*
X0077036Y0112727D01*
X0078580Y0118093D02*
X0078703Y0118216D01*
X0082703Y0111367D02*
X0083303Y0111367D01*
X0084703Y0112767D01*
X0087103Y0112727D02*
X0088974Y0112727D01*
X0088803Y0113325D02*
X0087069Y0113325D01*
X0086821Y0113924D02*
X0088803Y0113924D01*
X0088980Y0114523D02*
X0086341Y0114523D01*
X0085290Y0115121D02*
X0089313Y0115121D01*
X0089297Y0112128D02*
X0087036Y0112128D01*
X0086788Y0111530D02*
X0089879Y0111530D01*
X0089900Y0110931D02*
X0086262Y0110931D01*
X0084313Y0110333D02*
X0089922Y0110333D01*
X0089944Y0109734D02*
X0084313Y0109734D01*
X0084313Y0109136D02*
X0089966Y0109136D01*
X0089987Y0108537D02*
X0084313Y0108537D01*
X0084313Y0107939D02*
X0089619Y0107939D01*
X0092546Y0107340D02*
X0097497Y0107340D01*
X0093870Y0097724D02*
X0093334Y0097188D01*
X0093334Y0090018D01*
X0088178Y0083400D02*
X0087716Y0083400D01*
X0083880Y0086991D02*
X0061005Y0086991D01*
X0061005Y0087590D02*
X0083671Y0087590D01*
X0083671Y0088188D02*
X0061005Y0088188D01*
X0068122Y0088787D02*
X0083671Y0088787D01*
X0083515Y0089385D02*
X0069138Y0089385D01*
X0069736Y0089984D02*
X0081884Y0089984D01*
X0081114Y0091757D02*
X0085854Y0090018D01*
X0081114Y0091757D02*
X0081114Y0093511D01*
X0080333Y0093729D01*
X0075168Y0093479D01*
X0072099Y0093575D02*
X0070528Y0093575D01*
X0070611Y0092976D02*
X0072099Y0092976D01*
X0072099Y0092378D02*
X0070611Y0092378D01*
X0070611Y0091779D02*
X0072099Y0091779D01*
X0072099Y0091181D02*
X0070379Y0091181D01*
X0070131Y0090582D02*
X0072376Y0090582D01*
X0072099Y0094173D02*
X0070280Y0094173D01*
X0070032Y0094772D02*
X0072099Y0094772D01*
X0072099Y0095370D02*
X0069497Y0095370D01*
X0068898Y0095969D02*
X0072099Y0095969D01*
X0072566Y0096567D02*
X0068823Y0096567D01*
X0066599Y0100757D02*
X0063293Y0100757D01*
X0062694Y0101355D02*
X0071899Y0101355D01*
X0071899Y0101954D02*
X0062096Y0101954D01*
X0078162Y0103151D02*
X0078372Y0103151D01*
X0081114Y0105866D02*
X0081114Y0100204D01*
X0083517Y0100204D01*
X0085996Y0097724D01*
X0086396Y0101960D01*
X0085565Y0106143D02*
X0084313Y0106143D01*
X0084313Y0106742D02*
X0085813Y0106742D01*
X0086332Y0107340D02*
X0084313Y0107340D01*
X0081638Y0107890D02*
X0081638Y0110302D01*
X0082703Y0111367D01*
X0081638Y0107890D02*
X0081114Y0105866D01*
X0078354Y0090582D02*
X0077960Y0090582D01*
X0087328Y0076218D02*
X0087991Y0076218D01*
X0087328Y0075619D02*
X0088865Y0075619D01*
X0088865Y0075021D02*
X0087328Y0075021D01*
X0087328Y0074422D02*
X0088865Y0074422D01*
X0088865Y0073225D02*
X0087328Y0073225D01*
X0087328Y0072627D02*
X0088865Y0072627D01*
X0088865Y0072028D02*
X0087328Y0072028D01*
X0087328Y0071430D02*
X0088865Y0071430D01*
X0088934Y0070831D02*
X0087328Y0070831D01*
X0086756Y0070233D02*
X0089354Y0070233D01*
X0092039Y0073824D02*
X0103298Y0073824D01*
X0103524Y0075619D02*
X0102611Y0075619D01*
X0081796Y0133960D02*
X0081703Y0165867D01*
X0079903Y0168467D02*
X0078003Y0168467D01*
X0077803Y0168667D01*
X0079903Y0168467D02*
X0081903Y0173167D01*
X0087803Y0173267D01*
X0088903Y0173867D01*
X0089703Y0173867D01*
X0094203Y0177755D02*
X0094328Y0178880D01*
X0094303Y0178855D01*
X0094328Y0178880D02*
X0094203Y0178755D01*
X0097203Y0183367D02*
X0102803Y0183367D01*
X0104103Y0182067D01*
X0104103Y0178947D01*
X0104170Y0178880D01*
X0102202Y0178880D02*
X0102202Y0174368D01*
X0106203Y0175367D02*
X0106139Y0178880D01*
X0108107Y0178880D02*
X0108203Y0178976D01*
X0108203Y0182867D01*
X0109703Y0184867D02*
X0112203Y0184867D01*
X0112703Y0184367D01*
X0112703Y0181507D01*
X0110076Y0178880D01*
X0110203Y0179007D01*
X0112303Y0174367D02*
X0117903Y0174367D01*
X0118203Y0175067D01*
X0118203Y0178627D01*
X0117950Y0178880D01*
X0119918Y0178880D02*
X0119918Y0178880D01*
X0119918Y0175808D01*
X0119603Y0175808D01*
X0119603Y0175336D01*
X0119718Y0175048D01*
X0119603Y0174779D01*
X0119603Y0174487D01*
X0119383Y0174267D01*
X0119303Y0174079D01*
X0119303Y0173787D01*
X0119083Y0173567D01*
X0118961Y0173282D01*
X0118690Y0173174D01*
X0118526Y0173010D01*
X0119517Y0172167D01*
X0122863Y0172167D01*
X0123103Y0172617D01*
X0123103Y0176178D01*
X0122933Y0176008D01*
X0121204Y0176008D01*
X0121011Y0175897D01*
X0120680Y0175808D01*
X0119918Y0175808D01*
X0119918Y0178880D01*
X0119918Y0174651D01*
X0120703Y0173867D01*
X0119490Y0174374D02*
X0123103Y0174374D01*
X0123103Y0174972D02*
X0119686Y0174972D01*
X0119603Y0175571D02*
X0123103Y0175571D01*
X0123094Y0176169D02*
X0123103Y0176169D01*
X0124503Y0176467D02*
X0126003Y0177967D01*
X0124503Y0176467D02*
X0124503Y0172267D01*
X0123703Y0170767D01*
X0119003Y0170767D01*
X0117003Y0172467D01*
X0109403Y0172467D01*
X0106203Y0175367D01*
X0106203Y0169367D02*
X0112003Y0169367D01*
X0110983Y0167192D02*
X0107223Y0167192D01*
X0108020Y0167790D02*
X0110185Y0167790D01*
X0103103Y0166467D02*
X0092803Y0166467D01*
X0079367Y0170783D02*
X0078966Y0170783D01*
X0076640Y0170783D02*
X0070943Y0170783D01*
X0070943Y0170184D02*
X0075926Y0170184D01*
X0075586Y0169586D02*
X0070943Y0169586D01*
X0070943Y0170140D02*
X0067871Y0170140D01*
X0070943Y0170140D01*
X0070819Y0168987D02*
X0075403Y0168987D01*
X0075403Y0168389D02*
X0070743Y0168389D01*
X0070743Y0167790D02*
X0075568Y0167790D01*
X0075884Y0167192D02*
X0070743Y0167192D01*
X0070743Y0166593D02*
X0076538Y0166593D01*
X0077803Y0160067D02*
X0077903Y0153467D01*
X0074803Y0150867D01*
X0068283Y0150867D01*
X0067871Y0150455D01*
X0067871Y0148486D02*
X0075823Y0148486D01*
X0076203Y0148867D01*
X0077403Y0145167D02*
X0073203Y0141367D01*
X0068945Y0172108D02*
X0067871Y0172108D01*
X0066895Y0172108D01*
X0063403Y0172117D01*
X0065138Y0173775D02*
X0065620Y0173775D01*
X0067152Y0174374D02*
X0067751Y0174374D01*
X0067751Y0174972D02*
X0067152Y0174972D01*
X0067152Y0175571D02*
X0067751Y0175571D01*
X0067751Y0176169D02*
X0067152Y0176169D01*
X0067152Y0176768D02*
X0067751Y0176768D01*
X0069885Y0180359D02*
X0072952Y0180359D01*
X0072952Y0180957D02*
X0070484Y0180957D01*
X0070520Y0181556D02*
X0073401Y0181556D01*
X0072952Y0179760D02*
X0070532Y0179760D01*
X0067401Y0183367D02*
X0067452Y0183418D01*
X0065954Y0183418D01*
X0064103Y0181567D01*
X0064103Y0176867D01*
X0064503Y0186344D02*
X0064885Y0186344D01*
X0065058Y0186942D02*
X0083803Y0186942D01*
X0085833Y0189589D02*
X0088333Y0186237D01*
X0091582Y0186887D02*
X0088982Y0189589D01*
X0092132Y0189589D02*
X0094632Y0187438D01*
X0095203Y0186867D01*
X0101203Y0186867D01*
X0102203Y0185867D01*
X0100322Y0189566D02*
X0098064Y0190324D01*
X0100322Y0189566D02*
X0104672Y0189566D01*
X0104672Y0186397D01*
X0105903Y0185767D01*
X0107822Y0187248D02*
X0107822Y0189566D01*
X0107822Y0187248D02*
X0109203Y0185867D01*
X0109703Y0184867D01*
X0113903Y0185667D02*
X0113903Y0182967D01*
X0115903Y0180967D01*
X0115981Y0178880D01*
X0116695Y0182154D02*
X0117221Y0182154D01*
X0116708Y0182753D02*
X0116097Y0182753D01*
X0116103Y0183467D02*
X0119918Y0180651D01*
X0119918Y0178880D01*
X0119918Y0178563D02*
X0119918Y0178563D01*
X0119918Y0177965D02*
X0119918Y0177965D01*
X0119918Y0177366D02*
X0119918Y0177366D01*
X0119918Y0176768D02*
X0119918Y0176768D01*
X0119918Y0176169D02*
X0119918Y0176169D01*
X0119291Y0173775D02*
X0123103Y0173775D01*
X0123103Y0173177D02*
X0118697Y0173177D01*
X0119033Y0172578D02*
X0123082Y0172578D01*
X0123203Y0167867D02*
X0128659Y0168171D01*
X0128659Y0172108D02*
X0129203Y0172653D01*
X0129203Y0175367D01*
X0135703Y0182367D02*
X0132057Y0186213D01*
X0132157Y0187384D01*
X0129007Y0187384D02*
X0129207Y0185762D01*
X0141203Y0173367D01*
X0141253Y0145367D01*
X0139953Y0142867D01*
X0133503Y0142867D01*
X0133323Y0148486D02*
X0128659Y0148486D01*
X0128659Y0154392D02*
X0128659Y0154392D01*
X0125787Y0159411D02*
X0125289Y0159411D01*
X0128659Y0162266D02*
X0130602Y0162266D01*
X0132703Y0164367D01*
X0132304Y0162266D02*
X0128659Y0162266D01*
X0139003Y0179867D02*
X0139203Y0213367D01*
X0138203Y0214367D01*
X0115567Y0214367D01*
X0115151Y0214782D01*
X0107649Y0214782D01*
X0107649Y0215385D01*
X0110718Y0216269D02*
X0112082Y0216269D01*
X0112082Y0216868D02*
X0110718Y0216868D01*
X0110718Y0217466D02*
X0112342Y0217466D01*
X0112398Y0218065D02*
X0110265Y0218065D01*
X0110121Y0218663D02*
X0111957Y0218663D01*
X0111882Y0219262D02*
X0110718Y0219262D01*
X0110718Y0219861D02*
X0111882Y0219861D01*
X0111882Y0220459D02*
X0110718Y0220459D01*
X0110718Y0221058D02*
X0114851Y0221058D01*
X0114851Y0221656D02*
X0115451Y0221656D01*
X0115451Y0221382D02*
X0115451Y0224350D01*
X0117290Y0224350D01*
X0117621Y0224261D01*
X0117918Y0224090D01*
X0118160Y0223848D01*
X0118331Y0223552D01*
X0118419Y0223221D01*
X0118419Y0221382D01*
X0115451Y0221382D01*
X0115451Y0221058D02*
X0137401Y0221058D01*
X0137401Y0221656D02*
X0118419Y0221656D01*
X0118419Y0222255D02*
X0137401Y0222255D01*
X0137401Y0222853D02*
X0118419Y0222853D01*
X0118358Y0223452D02*
X0137401Y0223452D01*
X0137401Y0224050D02*
X0117958Y0224050D01*
X0118419Y0220459D02*
X0137401Y0220459D01*
X0137401Y0219861D02*
X0118419Y0219861D01*
X0118419Y0219262D02*
X0137401Y0219262D01*
X0137401Y0218663D02*
X0118345Y0218663D01*
X0117904Y0218065D02*
X0137401Y0218065D01*
X0137401Y0217466D02*
X0117959Y0217466D01*
X0118219Y0216868D02*
X0137401Y0216868D01*
X0137401Y0216269D02*
X0118219Y0216269D01*
X0115451Y0222255D02*
X0114851Y0222255D01*
X0114851Y0222853D02*
X0115451Y0222853D01*
X0115451Y0223452D02*
X0114851Y0223452D01*
X0114851Y0224050D02*
X0115451Y0224050D01*
X0112344Y0224050D02*
X0110382Y0224050D01*
X0110718Y0223452D02*
X0111944Y0223452D01*
X0111882Y0222853D02*
X0110718Y0222853D01*
X0110718Y0222255D02*
X0111882Y0222255D01*
X0111882Y0221656D02*
X0110718Y0221656D01*
X0102903Y0207567D02*
X0104803Y0206067D01*
X0116503Y0206067D01*
X0120203Y0203867D01*
X0120303Y0186767D01*
X0121503Y0185367D01*
X0123203Y0183367D01*
X0124303Y0185167D02*
X0122708Y0187384D01*
X0124303Y0185167D02*
X0124903Y0185167D01*
X0117854Y0186344D02*
X0116220Y0186344D01*
X0116303Y0185745D02*
X0117187Y0185745D01*
X0116694Y0185147D02*
X0116285Y0185147D01*
X0116446Y0184548D02*
X0116037Y0184548D01*
X0115972Y0186942D02*
X0117903Y0186942D01*
X0117903Y0187541D02*
X0115915Y0187541D01*
X0116107Y0188139D02*
X0117903Y0188139D01*
X0117903Y0188738D02*
X0116107Y0188738D01*
X0116107Y0189336D02*
X0117903Y0189336D01*
X0117903Y0189935D02*
X0116107Y0189935D01*
X0116107Y0190533D02*
X0117903Y0190533D01*
X0117903Y0191132D02*
X0116107Y0191132D01*
X0115776Y0191730D02*
X0117903Y0191730D01*
X0117903Y0192329D02*
X0101133Y0192329D01*
X0101133Y0191730D02*
X0103017Y0191730D01*
X0102686Y0191132D02*
X0101133Y0191132D01*
X0100953Y0192927D02*
X0117903Y0192927D01*
X0117903Y0193526D02*
X0115798Y0193526D01*
X0116107Y0194125D02*
X0117903Y0194125D01*
X0117903Y0194723D02*
X0116107Y0194723D01*
X0116107Y0195322D02*
X0117903Y0195322D01*
X0117903Y0195920D02*
X0116107Y0195920D01*
X0116107Y0196519D02*
X0117903Y0196519D01*
X0117903Y0197117D02*
X0116107Y0197117D01*
X0115893Y0197716D02*
X0117903Y0197716D01*
X0117903Y0198314D02*
X0109000Y0198314D01*
X0107965Y0198314D02*
X0107679Y0198314D01*
X0107679Y0197716D02*
X0107965Y0197716D01*
X0107965Y0197117D02*
X0107679Y0197117D01*
X0107679Y0196519D02*
X0107965Y0196519D01*
X0107965Y0195920D02*
X0107679Y0195920D01*
X0107679Y0195322D02*
X0107965Y0195322D01*
X0107965Y0194723D02*
X0107679Y0194723D01*
X0107679Y0194125D02*
X0107965Y0194125D01*
X0107965Y0193526D02*
X0107679Y0193526D01*
X0104672Y0195669D02*
X0104672Y0199336D01*
X0105203Y0199867D01*
X0107405Y0198913D02*
X0117903Y0198913D01*
X0117903Y0199511D02*
X0107603Y0199511D01*
X0107603Y0200110D02*
X0117903Y0200110D01*
X0117903Y0200708D02*
X0107452Y0200708D01*
X0107157Y0201307D02*
X0117903Y0201307D01*
X0117903Y0201905D02*
X0106553Y0201905D01*
X0103853Y0201905D02*
X0093103Y0201905D01*
X0093103Y0201307D02*
X0103249Y0201307D01*
X0102954Y0200708D02*
X0093103Y0200708D01*
X0093103Y0200110D02*
X0102803Y0200110D01*
X0102803Y0199511D02*
X0100952Y0199511D01*
X0101293Y0198913D02*
X0103000Y0198913D01*
X0103272Y0198314D02*
X0101333Y0198314D01*
X0101333Y0197716D02*
X0102900Y0197716D01*
X0102686Y0197117D02*
X0101333Y0197117D01*
X0101228Y0194125D02*
X0102686Y0194125D01*
X0102995Y0193526D02*
X0100678Y0193526D01*
X0104672Y0195669D02*
X0094655Y0195669D01*
X0093103Y0202504D02*
X0117903Y0202504D01*
X0116917Y0203102D02*
X0093103Y0203102D01*
X0093103Y0203701D02*
X0098718Y0203701D01*
X0098893Y0203701D02*
X0115853Y0203701D01*
X0123203Y0193981D02*
X0122708Y0193487D01*
X0123203Y0193981D02*
X0123203Y0196367D01*
X0124203Y0199767D01*
X0134103Y0199767D01*
X0135703Y0201367D01*
X0135703Y0202867D01*
X0136203Y0203367D01*
X0130903Y0197267D02*
X0129007Y0195671D01*
X0129007Y0193487D01*
X0132157Y0193487D02*
X0133537Y0194867D01*
X0136703Y0194867D01*
X0126703Y0194332D02*
X0125858Y0193487D01*
X0126703Y0194332D02*
X0126703Y0196367D01*
X0125803Y0197267D01*
X0129903Y0229437D02*
X0137401Y0229437D01*
X0137401Y0230035D02*
X0129903Y0230035D01*
X0129903Y0230634D02*
X0137401Y0230634D01*
X0137401Y0231232D02*
X0129903Y0231232D01*
X0129903Y0231831D02*
X0137401Y0231831D01*
X0137401Y0232429D02*
X0129903Y0232429D01*
X0129903Y0233028D02*
X0137401Y0233028D01*
X0137401Y0233626D02*
X0129903Y0233626D01*
X0129903Y0234225D02*
X0137401Y0234225D01*
X0137401Y0234823D02*
X0129903Y0234823D01*
X0129903Y0235422D02*
X0137401Y0235422D01*
X0137401Y0236020D02*
X0129903Y0236020D01*
X0130624Y0236619D02*
X0137401Y0236619D01*
X0137401Y0237217D02*
X0131260Y0237217D01*
X0131704Y0237816D02*
X0137401Y0237816D01*
X0137401Y0238414D02*
X0132019Y0238414D01*
X0132236Y0239013D02*
X0137401Y0239013D01*
X0137401Y0239611D02*
X0132371Y0239611D01*
X0132424Y0240808D02*
X0137401Y0240808D01*
X0137401Y0240210D02*
X0127933Y0240210D01*
X0125613Y0236020D02*
X0119132Y0236020D01*
X0120379Y0236619D02*
X0124641Y0236619D01*
X0124006Y0237217D02*
X0120977Y0237217D01*
X0121550Y0237816D02*
X0123561Y0237816D01*
X0123246Y0238414D02*
X0121798Y0238414D01*
X0122046Y0239013D02*
X0123029Y0239013D01*
X0122778Y0239611D02*
X0122233Y0239611D01*
X0113033Y0239611D02*
X0111904Y0239611D01*
X0110303Y0241567D02*
X0110303Y0241617D01*
X0091730Y0219861D02*
X0085055Y0219861D01*
X0085076Y0219262D02*
X0091730Y0219262D01*
X0091786Y0218663D02*
X0085097Y0218663D01*
X0085118Y0218065D02*
X0092172Y0218065D01*
X0092258Y0217466D02*
X0085139Y0217466D01*
X0085160Y0216868D02*
X0091930Y0216868D01*
X0091930Y0216269D02*
X0085182Y0216269D01*
X0085466Y0215671D02*
X0091930Y0215671D01*
X0091930Y0215072D02*
X0087149Y0215072D01*
X0087990Y0214474D02*
X0091930Y0214474D01*
X0091930Y0213875D02*
X0088383Y0213875D01*
X0088603Y0213277D02*
X0091930Y0213277D01*
X0091930Y0212678D02*
X0088603Y0212678D01*
X0088725Y0212080D02*
X0092141Y0212080D01*
X0094303Y0211481D02*
X0089239Y0211481D01*
X0089754Y0210883D02*
X0094303Y0210883D01*
X0094303Y0210284D02*
X0090268Y0210284D01*
X0090782Y0209686D02*
X0094221Y0209686D01*
X0094502Y0209087D02*
X0091297Y0209087D01*
X0091811Y0208489D02*
X0094908Y0208489D01*
X0095277Y0207890D02*
X0092325Y0207890D01*
X0092858Y0207292D02*
X0095647Y0207292D01*
X0096016Y0206693D02*
X0093124Y0206693D01*
X0093103Y0206095D02*
X0096385Y0206095D01*
X0096754Y0205496D02*
X0093103Y0205496D01*
X0093103Y0204898D02*
X0097124Y0204898D01*
X0097490Y0204299D02*
X0093103Y0204299D01*
X0083523Y0207890D02*
X0074179Y0207890D01*
X0074747Y0208489D02*
X0083703Y0208489D01*
X0083703Y0209087D02*
X0075315Y0209087D01*
X0075883Y0209686D02*
X0083844Y0209686D01*
X0084126Y0210284D02*
X0077815Y0210284D01*
X0078413Y0210883D02*
X0084725Y0210883D01*
X0084194Y0211481D02*
X0078675Y0211481D01*
X0078803Y0212080D02*
X0083931Y0212080D01*
X0083803Y0212678D02*
X0078803Y0212678D01*
X0078582Y0213277D02*
X0083803Y0213277D01*
X0083309Y0213875D02*
X0078188Y0213875D01*
X0082401Y0215671D02*
X0061005Y0215671D01*
X0061005Y0216269D02*
X0082380Y0216269D01*
X0082359Y0216868D02*
X0061005Y0216868D01*
X0061005Y0217466D02*
X0082338Y0217466D01*
X0082316Y0218065D02*
X0061005Y0218065D01*
X0061005Y0218663D02*
X0082295Y0218663D01*
X0082274Y0219262D02*
X0061005Y0219262D01*
X0061005Y0219861D02*
X0082253Y0219861D01*
X0082232Y0220459D02*
X0061005Y0220459D01*
X0061005Y0221058D02*
X0082211Y0221058D01*
X0082189Y0221656D02*
X0061005Y0221656D01*
X0061005Y0222255D02*
X0079565Y0222255D01*
X0079193Y0222853D02*
X0061005Y0222853D01*
X0061005Y0223452D02*
X0079193Y0223452D01*
X0079193Y0224050D02*
X0061005Y0224050D01*
X0061005Y0224649D02*
X0079193Y0224649D01*
X0079193Y0225247D02*
X0061005Y0225247D01*
X0061005Y0225846D02*
X0079193Y0225846D01*
X0079193Y0226444D02*
X0061005Y0226444D01*
X0061005Y0237816D02*
X0078993Y0237816D01*
X0078993Y0238414D02*
X0061005Y0238414D01*
X0061005Y0239013D02*
X0078993Y0239013D01*
X0078993Y0239611D02*
X0061005Y0239611D01*
X0061005Y0240210D02*
X0079133Y0240210D01*
X0079755Y0240808D02*
X0061005Y0240808D01*
X0077423Y0228838D02*
X0079193Y0228838D01*
X0079193Y0228240D02*
X0077315Y0228240D01*
X0077067Y0227641D02*
X0079193Y0227641D01*
X0079193Y0227043D02*
X0076515Y0227043D01*
X0077882Y0229437D02*
X0079579Y0229437D01*
X0084569Y0198314D02*
X0067143Y0198314D01*
X0063103Y0195567D02*
X0065603Y0192967D01*
X0091582Y0186887D02*
X0092203Y0185767D01*
D27*
X0092203Y0185767D03*
X0097203Y0183367D03*
X0102203Y0185867D03*
X0105903Y0185767D03*
X0108203Y0182867D03*
X0113903Y0185667D03*
X0118803Y0183967D03*
X0123203Y0183367D03*
X0120703Y0173867D03*
X0115503Y0169467D03*
X0112003Y0169367D03*
X0112303Y0174367D03*
X0106203Y0169367D03*
X0102203Y0169367D03*
X0098703Y0169867D03*
X0100203Y0173867D03*
X0094703Y0169367D03*
X0089703Y0173867D03*
X0085903Y0184667D03*
X0076703Y0186667D03*
X0076703Y0173867D03*
X0077803Y0168667D03*
X0077803Y0160067D03*
X0075703Y0155367D03*
X0076203Y0148867D03*
X0077403Y0145167D03*
X0073203Y0141367D03*
X0081203Y0129067D03*
X0078653Y0123367D03*
X0071603Y0119467D03*
X0074703Y0113367D03*
X0069703Y0102867D03*
X0068103Y0098867D03*
X0084703Y0112767D03*
X0087903Y0105517D03*
X0091203Y0113617D03*
X0088203Y0123367D03*
X0098703Y0103267D03*
X0117203Y0139367D03*
X0118203Y0145567D03*
X0121803Y0142167D03*
X0116203Y0150867D03*
X0121903Y0152467D03*
X0132703Y0154367D03*
X0135953Y0148117D03*
X0136703Y0171667D03*
X0139003Y0179867D03*
X0130903Y0197267D03*
X0125803Y0197267D03*
X0105203Y0199867D03*
X0102903Y0207567D03*
X0086103Y0208867D03*
X0086203Y0212867D03*
X0085703Y0199367D03*
X0076403Y0212267D03*
X0065203Y0196567D03*
X0065603Y0192967D03*
X0063403Y0172117D03*
X0094703Y0156867D03*
X0094203Y0150367D03*
X0096203Y0146367D03*
X0100203Y0143867D03*
X0099703Y0156867D03*
X0109203Y0059267D03*
D28*
X0129903Y0104667D03*
X0129803Y0110867D03*
X0133603Y0109867D03*
X0125403Y0112567D03*
X0117703Y0107067D03*
X0132803Y0136467D03*
X0122603Y0162867D03*
X0123203Y0167867D03*
X0129203Y0175367D03*
X0126003Y0177967D03*
X0135703Y0182367D03*
X0136703Y0194867D03*
X0136203Y0203367D03*
X0128503Y0226867D03*
X0110303Y0241617D03*
X0101953Y0227767D03*
X0091103Y0236377D03*
X0093603Y0250367D03*
X0074873Y0229007D03*
M02*
