G75*
%MOIN*%
%OFA0B0*%
%FSLAX25Y25*%
%IPPOS*%
%LPD*%
%AMOC8*
5,1,8,0,0,1.08239X$1,22.5*
%
%ADD10R,0.05524X0.03950*%
%ADD11R,0.04343X0.03556*%
%ADD12R,0.03950X0.05524*%
%ADD13R,0.06706X0.05918*%
%ADD14R,0.05918X0.06706*%
%ADD15C,0.07800*%
%ADD16R,0.04737X0.04737*%
%ADD17R,0.03556X0.05524*%
%ADD18R,0.05524X0.06312*%
%ADD19R,0.05524X0.05524*%
%ADD20R,0.06706X0.03950*%
%ADD21R,0.03950X0.06706*%
%ADD22R,0.03950X0.03950*%
%ADD23R,0.10800X0.05800*%
%ADD24R,0.04343X0.03950*%
%ADD25R,0.04737X0.05131*%
%ADD26R,0.06500X0.11500*%
%ADD27R,0.01784X0.14580*%
%ADD28R,0.01784X0.16548*%
%ADD29R,0.02965X0.05524*%
%ADD30C,0.02769*%
%ADD31C,0.06800*%
%ADD32R,0.02375X0.02769*%
%ADD33R,0.05131X0.03556*%
%ADD34R,0.07300X0.07300*%
%ADD35C,0.03400*%
%ADD36C,0.03700*%
D10*
X0075315Y0217079D03*
X0075315Y0224165D03*
D11*
X0082197Y0222233D03*
X0082197Y0217115D03*
X0088107Y0217115D03*
X0088107Y0222233D03*
X0093846Y0222163D03*
X0093846Y0217045D03*
X0100677Y0217275D03*
X0100677Y0222393D03*
D12*
X0099505Y0211687D03*
X0092418Y0211687D03*
D13*
X0129419Y0212246D03*
X0129419Y0219727D03*
D14*
X0122435Y0218356D03*
X0122435Y0225236D03*
X0114955Y0225236D03*
X0114955Y0218356D03*
X0090203Y0227840D03*
X0082722Y0227840D03*
X0081081Y0235843D03*
X0081115Y0242990D03*
X0073635Y0242990D03*
X0073601Y0235843D03*
D15*
X0117633Y0240378D03*
X0127633Y0240378D03*
D16*
X0070718Y0199783D03*
X0070718Y0193484D03*
D17*
X0123896Y0190958D03*
X0129408Y0190958D03*
X0129408Y0202769D03*
X0123896Y0202769D03*
D18*
X0114297Y0200337D03*
X0114282Y0193056D03*
X0101683Y0193056D03*
X0101698Y0200337D03*
D19*
X0114675Y0211938D03*
X0122943Y0211938D03*
X0123149Y0231735D03*
X0114881Y0231735D03*
D20*
X0103376Y0090173D03*
X0103376Y0085449D03*
X0103376Y0080724D03*
X0103376Y0076000D03*
X0103376Y0071276D03*
X0103376Y0066551D03*
X0103376Y0061827D03*
X0103376Y0057102D03*
X0073849Y0066551D03*
X0073849Y0071276D03*
X0073849Y0076000D03*
X0073849Y0080724D03*
X0073849Y0085449D03*
X0073849Y0090173D03*
D21*
X0081526Y0096669D03*
X0086250Y0096669D03*
X0090975Y0096669D03*
X0095699Y0096669D03*
D22*
X0095699Y0090173D03*
X0095699Y0085449D03*
X0095699Y0080724D03*
X0090975Y0090173D03*
X0086250Y0090173D03*
X0081526Y0090173D03*
D23*
X0064020Y0216321D03*
X0064001Y0223492D03*
D24*
X0081997Y0200321D03*
X0081997Y0192841D03*
X0090264Y0196581D03*
D25*
X0095680Y0193540D03*
X0095680Y0200233D03*
X0076668Y0199800D03*
X0076668Y0193107D03*
D26*
X0064904Y0238391D03*
D27*
X0103179Y0256145D03*
X0105148Y0256145D03*
X0109085Y0256145D03*
X0111053Y0256145D03*
X0113022Y0256145D03*
X0114990Y0256145D03*
X0118927Y0256145D03*
X0120896Y0256145D03*
D28*
X0122864Y0255161D03*
X0116959Y0255161D03*
X0107116Y0255161D03*
X0101211Y0255161D03*
D29*
X0102081Y0241611D03*
X0105821Y0241611D03*
X0098341Y0241611D03*
X0098341Y0231374D03*
X0105821Y0231374D03*
D30*
X0107115Y0163745D03*
X0107115Y0159808D03*
X0107115Y0155871D03*
X0103178Y0155871D03*
X0103178Y0159808D03*
X0103178Y0163745D03*
X0099241Y0163745D03*
X0099241Y0159808D03*
X0095304Y0159808D03*
X0095304Y0163745D03*
X0091367Y0163745D03*
X0091367Y0159808D03*
X0091367Y0155871D03*
X0087430Y0155871D03*
X0087430Y0159808D03*
X0087430Y0163745D03*
X0083493Y0163745D03*
X0083493Y0159808D03*
X0083493Y0155871D03*
X0083493Y0151934D03*
X0083493Y0147997D03*
X0083493Y0144060D03*
X0083493Y0140123D03*
X0083493Y0136186D03*
X0087430Y0136186D03*
X0087430Y0140123D03*
X0087430Y0144060D03*
X0087430Y0147997D03*
X0087430Y0151934D03*
X0091367Y0144060D03*
X0091367Y0140123D03*
X0091367Y0136186D03*
X0095304Y0136186D03*
X0095304Y0140123D03*
X0099241Y0140123D03*
X0099241Y0136186D03*
X0103178Y0136186D03*
X0103178Y0140123D03*
X0103178Y0144060D03*
X0107115Y0144060D03*
X0107115Y0147997D03*
X0107115Y0151934D03*
X0111052Y0151934D03*
X0111052Y0147997D03*
X0111052Y0144060D03*
X0111052Y0140123D03*
X0111052Y0136186D03*
X0107115Y0136186D03*
X0107115Y0140123D03*
X0111052Y0155871D03*
X0111052Y0159808D03*
X0111052Y0163745D03*
D31*
X0066511Y0072557D02*
X0060511Y0072557D01*
X0060511Y0082557D02*
X0066511Y0082557D01*
X0066511Y0092557D02*
X0060511Y0092557D01*
D32*
X0059963Y0109867D03*
X0067443Y0109867D03*
D33*
X0063703Y0113016D03*
X0063703Y0106717D03*
D34*
X0115703Y0083367D03*
X0115703Y0073367D03*
X0125703Y0073367D03*
X0125703Y0083367D03*
D35*
X0109203Y0059267D03*
X0098703Y0103267D03*
X0091203Y0113617D03*
X0087903Y0105517D03*
X0084703Y0112767D03*
X0088203Y0123367D03*
X0081203Y0129067D03*
X0078653Y0123367D03*
X0071603Y0119467D03*
X0074703Y0113367D03*
X0069703Y0102867D03*
X0068103Y0098867D03*
X0073203Y0141367D03*
X0077403Y0145167D03*
X0076203Y0148867D03*
X0075703Y0155367D03*
X0077803Y0160067D03*
X0077803Y0168667D03*
X0076703Y0173867D03*
X0076703Y0186667D03*
X0085903Y0184667D03*
X0092203Y0185767D03*
X0097203Y0183367D03*
X0102203Y0185867D03*
X0105903Y0185767D03*
X0108203Y0182867D03*
X0113903Y0185667D03*
X0118803Y0183967D03*
X0123203Y0183367D03*
X0120703Y0173867D03*
X0115503Y0169467D03*
X0112003Y0169367D03*
X0112303Y0174367D03*
X0106203Y0169367D03*
X0102203Y0169367D03*
X0098703Y0169867D03*
X0100203Y0173867D03*
X0094703Y0169367D03*
X0089703Y0173867D03*
X0094703Y0156867D03*
X0094203Y0150367D03*
X0096203Y0146367D03*
X0100203Y0143867D03*
X0099703Y0156867D03*
X0116203Y0150867D03*
X0118203Y0145567D03*
X0121803Y0142167D03*
X0117203Y0139367D03*
X0121903Y0152467D03*
X0132703Y0154367D03*
X0135953Y0148117D03*
X0136703Y0171667D03*
X0139003Y0179867D03*
X0130903Y0197267D03*
X0125803Y0197267D03*
X0105203Y0199867D03*
X0102903Y0207567D03*
X0086103Y0208867D03*
X0086203Y0212867D03*
X0085703Y0199367D03*
X0076403Y0212267D03*
X0065203Y0196567D03*
X0065603Y0192967D03*
X0063403Y0172117D03*
D36*
X0074873Y0229007D03*
X0091103Y0236377D03*
X0101953Y0227767D03*
X0110303Y0241617D03*
X0093603Y0250367D03*
X0128503Y0226867D03*
X0136203Y0203367D03*
X0136703Y0194867D03*
X0135703Y0182367D03*
X0129203Y0175367D03*
X0126003Y0177967D03*
X0123203Y0167867D03*
X0122603Y0162867D03*
X0132803Y0136467D03*
X0125403Y0112567D03*
X0129803Y0110867D03*
X0133603Y0109867D03*
X0129903Y0104667D03*
X0117703Y0107067D03*
M02*
