G75*
%MOIN*%
%OFA0B0*%
%FSLAX25Y25*%
%IPPOS*%
%LPD*%
%AMOC8*
5,1,8,0,0,1.08239X$1,22.5*
%
%ADD10R,0.04737X0.04737*%
%ADD11R,0.07099X0.06312*%
%ADD12R,0.05524X0.03950*%
%ADD13R,0.03950X0.05524*%
%ADD14C,0.07800*%
%ADD15R,0.03950X0.08674*%
%ADD16R,0.04737X0.05131*%
%ADD17R,0.02572X0.03556*%
%ADD18R,0.01784X0.16548*%
%ADD19R,0.01784X0.14580*%
%ADD20R,0.04343X0.01981*%
%ADD21R,0.01981X0.04343*%
%ADD22R,0.02965X0.05524*%
%ADD23R,0.04737X0.04343*%
%ADD24C,0.06800*%
%ADD25C,0.03400*%
%ADD26C,0.03700*%
D10*
X0065325Y0108085D03*
X0065325Y0114384D03*
X0105003Y0102259D03*
X0105003Y0096459D03*
X0105011Y0090611D03*
X0111310Y0090611D03*
X0111302Y0096459D03*
X0111302Y0102259D03*
X0117702Y0102026D03*
X0117672Y0096197D03*
X0117676Y0090350D03*
X0117686Y0084519D03*
X0123985Y0084519D03*
X0123975Y0090350D03*
X0123971Y0096197D03*
X0124002Y0102026D03*
X0115363Y0064022D03*
X0109064Y0064022D03*
X0067452Y0177118D03*
X0067452Y0183418D03*
X0094998Y0214715D03*
X0094998Y0221014D03*
X0098064Y0196623D03*
X0098064Y0190324D03*
X0115151Y0214782D03*
X0115151Y0221082D03*
D11*
X0083442Y0225838D03*
X0083442Y0236862D03*
D12*
X0098986Y0088777D03*
X0098986Y0081690D03*
X0098949Y0077365D03*
X0098949Y0070278D03*
D13*
X0091739Y0073623D03*
X0084653Y0073623D03*
X0081638Y0107890D03*
X0074552Y0107890D03*
D14*
X0117633Y0240378D03*
X0127633Y0240378D03*
D15*
X0093870Y0097724D03*
X0085996Y0097724D03*
D16*
X0081114Y0100204D03*
X0075168Y0100172D03*
X0075168Y0093479D03*
X0081114Y0093511D03*
D17*
X0122708Y0187384D03*
X0125858Y0187384D03*
X0129007Y0187384D03*
X0132157Y0187384D03*
X0132157Y0193487D03*
X0129007Y0193487D03*
X0125858Y0193487D03*
X0122708Y0193487D03*
X0114121Y0195669D03*
X0110971Y0195669D03*
X0107822Y0195669D03*
X0104672Y0195669D03*
X0104672Y0189566D03*
X0107822Y0189566D03*
X0110971Y0189566D03*
X0114121Y0189566D03*
X0092132Y0189589D03*
X0088982Y0189589D03*
X0085833Y0189589D03*
X0082683Y0189589D03*
X0082683Y0195691D03*
X0085833Y0195691D03*
X0088982Y0195691D03*
X0092132Y0195691D03*
D18*
X0101211Y0255161D03*
X0107116Y0255161D03*
X0116959Y0255161D03*
X0122864Y0255161D03*
D19*
X0120896Y0256145D03*
X0118927Y0256145D03*
X0114990Y0256145D03*
X0113022Y0256145D03*
X0111053Y0256145D03*
X0109085Y0256145D03*
X0105148Y0256145D03*
X0103179Y0256145D03*
D20*
X0128659Y0172108D03*
X0128659Y0170140D03*
X0128659Y0168171D03*
X0128659Y0166203D03*
X0128659Y0164234D03*
X0128659Y0162266D03*
X0128659Y0160297D03*
X0128659Y0158329D03*
X0128659Y0156360D03*
X0128659Y0154392D03*
X0128659Y0152423D03*
X0128659Y0150455D03*
X0128659Y0148486D03*
X0128659Y0146518D03*
X0128659Y0144549D03*
X0128659Y0142581D03*
X0128659Y0140612D03*
X0128659Y0138644D03*
X0128659Y0136675D03*
X0128659Y0134707D03*
X0128659Y0132738D03*
X0128659Y0130770D03*
X0128659Y0128801D03*
X0128659Y0126833D03*
X0128659Y0124864D03*
X0067871Y0124864D03*
X0067871Y0126833D03*
X0067871Y0128801D03*
X0067871Y0130770D03*
X0067871Y0132738D03*
X0067871Y0134707D03*
X0067871Y0136675D03*
X0067871Y0138644D03*
X0067871Y0140612D03*
X0067871Y0142581D03*
X0067871Y0144549D03*
X0067871Y0146518D03*
X0067871Y0148486D03*
X0067871Y0150455D03*
X0067871Y0152423D03*
X0067871Y0154392D03*
X0067871Y0156360D03*
X0067871Y0158329D03*
X0067871Y0160297D03*
X0067871Y0162266D03*
X0067871Y0164234D03*
X0067871Y0166203D03*
X0067871Y0168171D03*
X0067871Y0170140D03*
X0067871Y0172108D03*
D21*
X0074643Y0178880D03*
X0076611Y0178880D03*
X0078580Y0178880D03*
X0080548Y0178880D03*
X0082517Y0178880D03*
X0084485Y0178880D03*
X0086454Y0178880D03*
X0088422Y0178880D03*
X0090391Y0178880D03*
X0092359Y0178880D03*
X0094328Y0178880D03*
X0096296Y0178880D03*
X0098265Y0178880D03*
X0100233Y0178880D03*
X0102202Y0178880D03*
X0104170Y0178880D03*
X0106139Y0178880D03*
X0108107Y0178880D03*
X0110076Y0178880D03*
X0112044Y0178880D03*
X0114013Y0178880D03*
X0115981Y0178880D03*
X0117950Y0178880D03*
X0119918Y0178880D03*
X0121887Y0178880D03*
X0121887Y0118093D03*
X0119918Y0118093D03*
X0117950Y0118093D03*
X0115981Y0118093D03*
X0114013Y0118093D03*
X0112044Y0118093D03*
X0110076Y0118093D03*
X0108107Y0118093D03*
X0106139Y0118093D03*
X0104170Y0118093D03*
X0102202Y0118093D03*
X0100233Y0118093D03*
X0098265Y0118093D03*
X0096296Y0118093D03*
X0094328Y0118093D03*
X0092359Y0118093D03*
X0090391Y0118093D03*
X0088422Y0118093D03*
X0086454Y0118093D03*
X0084485Y0118093D03*
X0082517Y0118093D03*
X0080548Y0118093D03*
X0078580Y0118093D03*
X0076611Y0118093D03*
X0074643Y0118093D03*
D22*
X0085854Y0090018D03*
X0085854Y0079781D03*
X0089594Y0079781D03*
X0093334Y0079781D03*
X0093334Y0090018D03*
X0105481Y0082813D03*
X0109221Y0082813D03*
X0112961Y0082813D03*
X0112961Y0072576D03*
X0105481Y0072576D03*
D23*
X0107649Y0215385D03*
X0107649Y0221487D03*
X0100366Y0221487D03*
X0100366Y0215385D03*
D24*
X0066511Y0072557D02*
X0060511Y0072557D01*
X0060511Y0082557D02*
X0066511Y0082557D01*
X0066511Y0092557D02*
X0060511Y0092557D01*
D25*
X0068103Y0098867D03*
X0069703Y0102867D03*
X0074703Y0113367D03*
X0071603Y0119467D03*
X0078653Y0123367D03*
X0081203Y0129067D03*
X0088203Y0123367D03*
X0091203Y0113617D03*
X0087903Y0105517D03*
X0084703Y0112767D03*
X0098703Y0103267D03*
X0117203Y0139367D03*
X0118203Y0145567D03*
X0121803Y0142167D03*
X0116203Y0150867D03*
X0121903Y0152467D03*
X0115503Y0169467D03*
X0112003Y0169367D03*
X0112303Y0174367D03*
X0106203Y0169367D03*
X0102203Y0169367D03*
X0098703Y0169867D03*
X0100203Y0173867D03*
X0094703Y0169367D03*
X0089703Y0173867D03*
X0085903Y0184667D03*
X0092203Y0185767D03*
X0097203Y0183367D03*
X0102203Y0185867D03*
X0105903Y0185767D03*
X0108203Y0182867D03*
X0113903Y0185667D03*
X0118803Y0183967D03*
X0123203Y0183367D03*
X0120703Y0173867D03*
X0132703Y0154367D03*
X0135953Y0148117D03*
X0136703Y0171667D03*
X0139003Y0179867D03*
X0130903Y0197267D03*
X0125803Y0197267D03*
X0105203Y0199867D03*
X0102903Y0207567D03*
X0086103Y0208867D03*
X0086203Y0212867D03*
X0085703Y0199367D03*
X0076703Y0186667D03*
X0076703Y0173867D03*
X0077803Y0168667D03*
X0077803Y0160067D03*
X0075703Y0155367D03*
X0076203Y0148867D03*
X0077403Y0145167D03*
X0073203Y0141367D03*
X0063403Y0172117D03*
X0065603Y0192967D03*
X0065203Y0196567D03*
X0076403Y0212267D03*
X0094703Y0156867D03*
X0094203Y0150367D03*
X0096203Y0146367D03*
X0100203Y0143867D03*
X0099703Y0156867D03*
X0109203Y0059267D03*
D26*
X0129903Y0104667D03*
X0129803Y0110867D03*
X0133603Y0109867D03*
X0125403Y0112567D03*
X0117703Y0107067D03*
X0132803Y0136467D03*
X0122603Y0162867D03*
X0123203Y0167867D03*
X0129203Y0175367D03*
X0126003Y0177967D03*
X0135703Y0182367D03*
X0136703Y0194867D03*
X0136203Y0203367D03*
X0128503Y0226867D03*
X0110303Y0241617D03*
X0101953Y0227767D03*
X0091103Y0236377D03*
X0093603Y0250367D03*
X0074873Y0229007D03*
M02*
